<svg xmlns="http://www.w3.org/2000/svg" width="448.289" height="179.18" viewBox="0 0 448.289 179.18">
  <path id="Union_66" data-name="Union 66" d="M266.318,68c-5.9-15.938-13.8-36.078-18.956-48.641C241.435,35.311,234.654,53.273,229.425,68h-2.5c-5.682-18.1-11.552-35.972-17.416-54-2.8-8.637-3.725-10.065-10.874-11.2V1.4h28.113V2.8c-7.841,1.267-8.161,2.859-6.386,8.468,3.886,12.4,8.438,26.338,12.58,38.781,5.341-14.461,13.359-37,17.266-47.84h2.185c6.253,16.084,12.831,32.047,19.057,47.7,4.6-13.755,8.843-27.54,11.738-37.389C285.1,5.865,284.575,4.2,274.708,2.8V1.4h23.609V2.8c-7.671,1.231-8.529,2.529-11.722,11.632-2.922,8.2-12.207,36.233-17.815,53.569ZM130.274,34.625C130.274,17.15,143.494,0,165.615,0c18.535,0,34.313,13.781,34.313,33.244,0,20.966-15.6,34.756-34.819,34.756C145.1,68,130.274,53.188,130.274,34.625Zm13.118-2.514c0,19.043,9.073,33.454,23.716,33.454,11.333,0,19.7-10.15,19.7-29.543,0-21.176-9.393-33.624-23.289-33.624C152.4,2.4,143.392,12.424,143.392,32.112ZM0,34.215C0,14,15.752,0,40.469,0,49,0,56.334,1.768,59.191,2.038c.325,4.932.959,10.83,1.53,14.937l-1.845.366c-2.057-6.76-4.349-10.775-10.319-13.2A28.674,28.674,0,0,0,37.617,2.369c-17,0-24.567,13.7-24.567,29.979,0,19.538,9.968,33.218,26.866,33.218,10.624,0,16.044-5.888,20.661-15.343l1.705.566c-1.029,3.891-3.774,12.077-5.3,14.907C54.276,66.267,46.184,68,39,68,11.877,68,0,51.736,0,34.215ZM363.379,67.795,315.511,13.26V39.984c0,9.419.143,12.393.32,15.662.352,6.46,1.364,8.088,10.72,9.39V66.5H302.109V65.036c7.959-1.313,9.111-2.6,9.462-9.229.176-3.255.458-7.091.458-15.823V12.553A7.431,7.431,0,0,0,310.4,7.631c-2.7-3.33-5.064-4.066-9.493-4.767V1.4h18.46l42.969,47.819V27.29c0-9.819-.246-12-.389-15.017-.357-6.8-2.436-8.342-11.562-9.409V1.4h24.344V2.864c-7.223,1.472-8.486,2.609-8.7,9.419-.107,2.93-.32,5.188-.32,15.007v40.5Zm-235.389-.7c-11.45-.5-14.414-2.349-18.263-7.691-3.657-5.128-7.6-11.577-11.119-17.716-2.495-4.276-3.944-5.268-8.2-5.268H87.8V54.536c0,8.166.714,9.072,8.828,10.5V66.5H67.9V65.035c8.038-1.462,8.79-2.133,8.79-10.5V13.23c0-8.167-.677-9.164-8.79-10.365V1.4H95.463c8.22,0,13.7.972,17.885,3.771a13.829,13.829,0,0,1,6.434,11.993c0,9.448-7.388,14.376-13.577,16.865,1.748,2.949,7.138,11.6,10.2,16.108,3.9,5.793,5.773,8.427,8.156,11,2.527,2.7,4.132,3.57,8.326,4.662l-.319,1.332C131.919,67.128,129.082,67.128,127.99,67.093ZM89.008,4.371c-.821.536-1.21,1.307-1.21,3.731V34.22H91.46c5.192,0,8.662-.33,11.37-2.529,3.434-2.674,4.75-6.389,4.75-12.268C107.579,8.052,101.321,3.6,94.2,3.6,91.364,3.6,89.722,3.871,89.008,4.371Z" transform="translate(31.91 0.5)" fill="#231815" stroke="rgba(0,0,0,0)" stroke-miterlimit="10" stroke-width="1"/>
  <path id="Union_67" data-name="Union 67" d="M0,80.624C6.221,78.014,9.461,74.059,10.065,66c.426-5.483.532-8.8.532-16.264v-36.4c0-8.7-1.023-9.334-9-10.472V1.4H30.134V2.864C22.655,4.031,21.84,4.737,21.84,13.336v36.7c0,12.7-.971,20.069-7.853,25.857A31.543,31.543,0,0,1,.533,82.021ZM124.145,62.908c-6.06-4.653-8.155-10.9-8.155-21.7V14.817c0-9.756-.641-10.716-8.6-11.953V1.4h28.37V2.864c-8.1,1.4-8.568,2.2-8.568,11.953V41.567c0,13.925,6.456,21.35,19.489,21.35,14.137,0,18.294-7.571,18.294-25.267V25.043c0-7.973-.176-11.592-.459-14.663C164.129,5.4,163,3.67,153.84,2.864V1.4h23.6V2.864c-8.122,1.007-8.272,3.39-8.592,7.882-.176,2.795-.426,6.324-.426,14.33v12.38c0,10.092-1,17.97-6.973,23.944-4.659,4.573-11.167,6.6-19.211,6.6C135.494,68,128.888,66.564,124.145,62.908ZM34.476,34.625C34.476,17.15,47.7,0,69.817,0,88.352,0,104.13,13.781,104.13,33.245,104.13,54.21,88.532,68,69.31,68,49.3,68,34.476,53.187,34.476,34.625Zm13.118-2.514c0,19.043,9.074,33.453,23.715,33.453,11.334,0,19.7-10.15,19.7-29.542C91.012,14.848,81.62,2.4,67.722,2.4,56.6,2.4,47.594,12.423,47.594,32.112ZM312.047,67.793,264.18,13.259V39.984c0,9.418.143,12.393.319,15.662.352,6.459,1.365,8.088,10.719,9.389V66.5H250.777V65.036c7.96-1.312,9.111-2.6,9.463-9.228.174-3.256.459-7.09.459-15.823V12.554a7.436,7.436,0,0,0-1.632-4.922c-2.7-3.33-5.065-4.067-9.494-4.768V1.4h18.459L311,49.222V27.291c0-9.821-.246-12-.389-15.018-.359-6.8-2.436-8.341-11.562-9.409V1.4h24.343V2.864c-7.223,1.473-8.485,2.609-8.7,9.418-.106,2.931-.319,5.188-.319,15.009v40.5Zm-68.209-.7c-11.449-.5-14.413-2.349-18.261-7.691-3.657-5.127-7.6-11.576-11.121-17.716-2.495-4.276-3.944-5.266-8.2-5.266h-2.608V54.536c0,8.165.715,9.073,8.829,10.5V66.5H183.753V65.036c8.04-1.462,8.792-2.134,8.792-10.5V13.229c0-8.165-.678-9.162-8.792-10.365V1.4h27.559c8.22,0,13.7.97,17.885,3.769a13.831,13.831,0,0,1,6.434,11.993c0,9.449-7.39,14.376-13.579,16.866,1.749,2.948,7.138,11.6,10.2,16.107,3.9,5.794,5.774,8.428,8.157,11,2.525,2.7,4.131,3.571,8.325,4.663l-.319,1.333C247.767,67.13,244.932,67.13,243.839,67.093ZM204.856,4.372c-.819.535-1.21,1.308-1.21,3.73V34.22h3.664c5.191,0,8.661-.329,11.369-2.529,3.433-2.673,4.75-6.389,4.75-12.267C223.428,8.052,217.17,3.6,210.05,3.6,207.214,3.6,205.571,3.871,204.856,4.372ZM328.431,66.5V65.036c9.244-1.2,9.952-1.773,9.952-10.441V13.516c0-8.875-.459-9.606-8.29-10.653V1.4h31.558c10,0,13.822-.065,15.087-.2.07,3.7.5,10.39.952,14.206l-1.63.267c-.817-2.539-2.238-6.211-4.137-8.5C369.967,4.764,367.994,4.3,361.706,4.3H352.44c-2.462,0-2.814.365-2.814,2.648V30.639h11.349c8.012,0,8.555-1.886,9.972-8.271h1.595V41.847h-1.595c-1.6-6.3-2.073-8.271-9.9-8.271H349.626V55.746c0,6.907,2.047,7.823,8.433,7.886h7.781c5.88,0,7.373-.836,10.039-3.923A35.627,35.627,0,0,0,380.83,51l1.525.3c-.532,3.437-2.451,12.584-3.166,15.2Zm71.735,0V65.036c8.642-1.172,9.174-2.138,9.174-11.738V40.9A9.153,9.153,0,0,0,408.063,36c-2.182-4.265-8.3-15.252-13.377-23.7-4.472-7.5-5.324-8.5-11.582-9.433V1.4h27.3V2.864c-7.04,1.227-7.275,2.3-5.335,5.984,4.454,8.236,10.228,18.282,14.174,25.527C422.822,27.715,428.973,16.1,431.92,10c2.1-4.341,2.06-5.933-6.458-7.135V1.4H447.15V2.864c-7.286.938-8.2,2.543-11.6,8.123-4.743,7.872-9.007,15.672-13.694,24.341a7.674,7.674,0,0,0-1.13,4.22L420.69,53.3c-.037,9.829.747,10.37,9.322,11.738V66.5Z" transform="translate(0.639 96.578)" fill="#231815" stroke="rgba(0,0,0,0)" stroke-miterlimit="10" stroke-width="1"/>
</svg>
