<svg xmlns="http://www.w3.org/2000/svg" width="138.205" height="19.073"><path data-name="Union 35" d="M7.443 3.325v2.137H3.42V3.325zM3.42 9.311-.603 7.059H3.42v2.252zm2.137 3.118c.346.558.674 1.174 1.02 1.809L3.42 15.2v-4.291h5.815V1.727H1.591v13.089a1.408 1.408 0 0 1-.847 1.27 5.875 5.875 0 0 1 .731 1.829c.462-.346 1.155-.635 5.852-2.214.327.674.577 1.309.77 1.79l1.636-.885a35.242 35.242 0 0 0-2.656-4.928zM17.183 1.862h-6.506v16.554h1.79V3.498h2.968v9.316c0 .25-.077.327-.346.346-.231.019-1.059.019-1.906-.019a5.552 5.552 0 0 1 .52 1.694 6.53 6.53 0 0 0 2.772-.327c.558-.269.712-.789.712-1.675zm14.937 3.85a11.8 11.8 0 0 1-1.1 1.829l-3.5.154a25.679 25.679 0 0 0 2.522-3h4.966l.004-1.64h-3.85A9.027 9.027 0 0 0 29.969.649l-1.694.4a9.075 9.075 0 0 1 .962 2h-4.759v1.636h3.523a22.653 22.653 0 0 1-1.944 2.406 2.521 2.521 0 0 1-1.155.789c.192.462.462 1.29.558 1.636.385-.154.962-.25 4.312-.462a16.8 16.8 0 0 1-5.12 3.715 9.821 9.821 0 0 1 1.116 1.469 19.522 19.522 0 0 0 7.988-8.008zm1.251 3.6a18.38 18.38 0 0 1-8.874 7.584 8.915 8.915 0 0 1 1.1 1.521 23.922 23.922 0 0 0 5.486-3.657 32.2 32.2 0 0 1 2.926 2.887l1.29-1.174a36.5 36.5 0 0 0-3.083-2.835 19.344 19.344 0 0 0 2.791-3.715zm4.466-6.41-1.694.611v10.052h1.692zM39.512.977l-.002 15.244c0 .346-.135.443-.443.462-.346.019-1.463.019-2.56-.019a7.349 7.349 0 0 1 .577 1.694 9.43 9.43 0 0 0 3.311-.308c.635-.269.885-.77.885-1.829V.976zM65.42 3.438a12.06 12.06 0 0 0-1.675-2.329l-1.213.712a13.174 13.174 0 0 1 1.603 2.447zm-10.876.52-3.175.83 1.424-.789a19.636 19.636 0 0 0-1.444-2.522l-1.386.712a17.041 17.041 0 0 1 1.367 2.6h-3.08v1.424h6.295zm-.308 2.56-5.177 2.255v1.405h5.176zm-5.178 3.927 5.177 3.66V9.061h-5.176zm3.677 2.658v2.753H50.58v-2.753zm1.54-1.444h-5.216v6.506h1.521v-.866h3.7zm4.06 2.734v-4.274h1.867v-1.6h-5.33v1.6h1.809v4.677c-.808.192-1.54.346-2.156.462l.462 1.732c1.694-.443 3.869-1.02 5.929-1.617l-.154-1.559zm7.449-8.335 2.427-1.655h-5.986a114.878 114.878 0 0 1 0-3.619h-1.752c0 1.232.019 2.425.058 3.619h-5.505v1.655h5.563c.246 6.78 1.02 12.38 3.311 12.38 1.309 0 1.771-.866 2.021-3.792a4.65 4.65 0 0 1-1.328-.962c-.038 2.04-.212 3.022-.481 3.022-.885 0-1.617-4.62-1.829-10.645zm17.67.731-3.501 3.619c0 1.54.366 2.156 2.04 2.156h2.291a5.581 5.581 0 0 0 1.405-.135c-.058-.385-.1-.962-.135-1.424a7.111 7.111 0 0 1-1.328.115h1.409c-.385 0-.462-.173-.462-.712v-1h3.484V8.002H85.17V6.789zm-10.565 6.622c1.732-.5 3.985-1.155 6.121-1.809l-.192-1.29-.751.212V6.789H76.45v1.213h-3.388v1.405h3.388v1.54c-1.5.4-2.926.751-3.985 1zm8.835-7.122h7.372l-.424-1.617h-6.948v-1.6a59.18 59.18 0 0 0 5.89-.731l-.789-1.54a93.573 93.573 0 0 1-13.012 1.137 5.691 5.691 0 0 1 .385 1.521 117.58 117.58 0 0 0 5.659-.25v1.463h-7.353v1.617h7.353v4.562a14.268 14.268 0 0 1-7.988 5.544 8.775 8.775 0 0 1 1.174 1.5 15.325 15.325 0 0 0 6.814-4.639v5.159h1.867V13.18a15.336 15.336 0 0 0 6.814 4.7 6.782 6.782 0 0 1 1.155-1.5 14.353 14.353 0 0 1-7.969-5.524zm25.351.115h-2.676V5.057h2.676zm-1.44 2.445h-1.232v-1.29h1.232zm0-6.217v1.27h-1.232v-1.27zm-.712 10.24h1.328l-1.232 3.176h-1.328zm3.811 0-1.232 3.176h-1.328v-3.176zm2.483 0-2.56 3.176h1.228v-3.176zm2.31-9.374h-2.676c.173-.77.327-1.578.462-2.368l-1.559-.308a17.06 17.06 0 0 1-1.482 5.409l-1.332-2.329h-1.386v-1.27h1.521V1.284h-5.332v2.734a51.255 51.255 0 0 0-2.656-2.06 6.336 6.336 0 0 0 .4-.808L98.14.65a13.736 13.736 0 0 1-3.773 4.62 7.785 7.785 0 0 1 .558 1.771c.231-.192.462-.4.712-.635v.6h1.752v1.713H94.81v1.519h2.579v5.56c-1.059.192-2.04.385-2.83.52l.4 1.6c1.713-.346 3.927-.789 6.063-1.251v.9h12.463v-1.519h-.77v-4.62h-9.22v4.62h-.712l-.1-.982-2.464.462v-5.29h2.194V8.714h-2.194V7.001h1.848V5.519h-4.212a17.947 17.947 0 0 0 1.732-2.214c.962.77 2.06 1.675 2.714 2.271l.77-1.1v5.717h5.544V8.849h-1.732v-1.29h1.386V6.52a6.739 6.739 0 0 1 1.232.751 13.717 13.717 0 0 0 .924-2.233h3.1zm-4.446 6.1h4.235v-1.5h-4.235zm-7.372 5c.269-.847.577-2.156.885-3.292l-1.29-.308a26.3 26.3 0 0 1-.712 3.292zm-5.332-3.157a34.269 34.269 0 0 1 .6 3.5l1.213-.289a29.517 29.517 0 0 0-.654-3.484zm25.928-7.372h12.608v2.214h1.732l.04-3.44h-2.964a14.66 14.66 0 0 0 1.347-1.6l-1.829-.462a16.145 16.145 0 0 1-1.405 2.04l.058.019h-2.507V.74h-1.771v2.1h-2.637l.443-.154a9.087 9.087 0 0 0-1.424-1.829l-1.6.443a12.357 12.357 0 0 1 1.155 1.54h-2.945v3.446h1.694zm2.945 1.963h6.7v1.1h-6.7zm8.47 2.156-.005-3.208h-10.124v3.215zm-8.181 7.6a19.845 19.845 0 0 1-5.447 1.367 9.9 9.9 0 0 1 1.347 1.347 20.141 20.141 0 0 0 5.813-2.06zm-1.309-2.021h8.893v.924h-8.893zm0-1.886h8.893v.9h-8.893zm0-1.867h8.893v.885h-8.893zm10.66 5.724V9.003h-12.377v6.735h8.643l-1.309.962a42.152 42.152 0 0 1 5.313 1.732l1.829-1c-1.347-.481-3.6-1.174-5.621-1.694z" fill="#fff" stroke="rgba(0,0,0,0)" stroke-miterlimit="10" opacity=".996"/></svg>