<svg xmlns="http://www.w3.org/2000/svg" width="138.205" height="19.073" viewBox="0 0 138.205 19.073">
  <path id="Union_35" data-name="Union 35" d="M14.308,26.687v2.137H10.285V26.687Zm-4.023,5.986V30.421h4.023v2.252Zm2.137,3.118c.346.558.674,1.174,1.02,1.809l-3.157.962V34.271H16.1V25.089H8.456V38.178a1.408,1.408,0,0,1-.847,1.27,5.875,5.875,0,0,1,.731,1.829c.462-.346,1.155-.635,5.852-2.214.327.674.577,1.309.77,1.79l1.636-.885a35.242,35.242,0,0,0-2.656-4.928ZM24.048,25.224H17.542V41.778h1.79V26.86H22.3v9.316c0,.25-.077.327-.346.346-.231.019-1.059.019-1.906-.019a5.552,5.552,0,0,1,.52,1.694,6.53,6.53,0,0,0,2.772-.327c.558-.269.712-.789.712-1.675Zm14.937,3.85a11.8,11.8,0,0,1-1.1,1.829l-3.5.154a25.679,25.679,0,0,0,2.522-3h4.966V26.417h-3.85a9.027,9.027,0,0,0-1.193-2.406l-1.694.4a9.075,9.075,0,0,1,.962,2H31.343v1.636h3.523a22.653,22.653,0,0,1-1.944,2.406,2.521,2.521,0,0,1-1.155.789c.192.462.462,1.29.558,1.636.385-.154.962-.25,4.312-.462a16.8,16.8,0,0,1-5.12,3.715A9.821,9.821,0,0,1,32.633,37.6a19.522,19.522,0,0,0,7.988-8.008Zm1.251,3.6a18.38,18.38,0,0,1-8.874,7.584,8.915,8.915,0,0,1,1.1,1.521,23.922,23.922,0,0,0,5.486-3.657,32.2,32.2,0,0,1,2.926,2.887l1.29-1.174A36.5,36.5,0,0,0,39.081,37a19.344,19.344,0,0,0,2.791-3.715Zm4.466-6.41H43.008V36.927H44.7Zm1.675-1.925V39.583c0,.346-.135.443-.443.462-.346.019-1.463.019-2.56-.019a7.349,7.349,0,0,1,.577,1.694,9.43,9.43,0,0,0,3.311-.308c.635-.269.885-.77.885-1.829V24.338ZM72.285,26.8a12.06,12.06,0,0,0-1.675-2.329l-1.213.712A13.174,13.174,0,0,1,71,27.63Zm-10.876.52H58.234l1.424-.789a19.636,19.636,0,0,0-1.444-2.522l-1.386.712a17.041,17.041,0,0,1,1.367,2.6h-3.08v1.424H61.41Zm-.308,2.56H55.924v1.405H61.1Zm-5.178,3.927H61.1V32.423H55.924ZM59.6,36.465v2.753H57.445V36.465Zm1.54-1.444H55.924v6.506h1.521v-.866h3.7ZM65.2,37.755V33.481h1.867v-1.6H61.737v1.6h1.809v4.677c-.808.192-1.54.346-2.156.462l.462,1.732c1.694-.443,3.869-1.02,5.929-1.617l-.154-1.559Zm7.449-8.335V27.765H69.09c-.019-1.174-.019-2.387,0-3.619H67.338c0,1.232.019,2.425.058,3.619H61.891V29.42h5.563C67.7,36.2,68.474,41.8,70.765,41.8c1.309,0,1.771-.866,2.021-3.792a4.65,4.65,0,0,1-1.328-.962c-.038,2.04-.212,3.022-.481,3.022-.885,0-1.617-4.62-1.829-10.645Zm17.67.731V33.77c0,1.54.366,2.156,2.04,2.156h2.291a5.581,5.581,0,0,0,1.405-.135c-.058-.385-.1-.962-.135-1.424a7.111,7.111,0,0,1-1.328.115H92.5c-.385,0-.462-.173-.462-.712v-1h3.484V31.364H92.035V30.151ZM79.754,36.773c1.732-.5,3.985-1.155,6.121-1.809l-.192-1.29-.751.212V30.151H83.315v1.213H79.927v1.405h3.388v1.54c-1.5.4-2.926.751-3.985,1Zm8.835-7.122h7.372V28.034H88.589v-1.6a59.18,59.18,0,0,0,5.89-.731l-.789-1.54A93.573,93.573,0,0,1,80.678,25.3a5.691,5.691,0,0,1,.385,1.521c1.79-.038,3.734-.115,5.659-.25v1.463H79.369v1.617h7.353v4.562a14.268,14.268,0,0,1-7.988,5.544,8.775,8.775,0,0,1,1.174,1.5,15.325,15.325,0,0,0,6.814-4.639v5.159h1.867V36.542a15.336,15.336,0,0,0,6.814,4.7,6.782,6.782,0,0,1,1.155-1.5,14.353,14.353,0,0,1-7.969-5.524Zm25.351.115h-2.676V28.419h2.676ZM112.5,32.211h-1.232v-1.29H112.5Zm0-6.217v1.27h-1.232v-1.27Zm-.712,10.24h1.328V39.41h-1.328Zm3.811,0V39.41h-1.328V36.234Zm2.483,0V39.41H116.75V36.234Zm2.31-9.374h-2.676c.173-.77.327-1.578.462-2.368l-1.559-.308a17.06,17.06,0,0,1-1.482,5.409V27.264h-1.386v-1.27h1.521V24.646h-5.332V27.38c-.693-.577-1.694-1.367-2.656-2.06a6.336,6.336,0,0,0,.4-.808l-1.347-.5a13.736,13.736,0,0,1-3.773,4.62,7.785,7.785,0,0,1,.558,1.771c.231-.192.462-.4.712-.635v.6h1.752v1.713h-2.579V33.6h2.579V39.16c-1.059.192-2.04.385-2.83.52l.4,1.6c1.713-.346,3.927-.789,6.063-1.251v.9H120.35V39.41h-.77V34.79h-9.22v4.62h-.712l-.1-.982-2.464.462V33.6h2.194V32.076h-2.194V30.363h1.848V28.881H104.72a17.947,17.947,0,0,0,1.732-2.214c.962.77,2.06,1.675,2.714,2.271l.77-1.1v5.717h5.544V32.211h-1.732v-1.29h1.386V29.882a6.739,6.739,0,0,1,1.232.751,13.717,13.717,0,0,0,.924-2.233h3.1Zm-4.446,6.1h4.235v-1.5h-4.235Zm-7.372,5c.269-.847.577-2.156.885-3.292l-1.29-.308a26.3,26.3,0,0,1-.712,3.292Zm-5.332-3.157a34.269,34.269,0,0,1,.6,3.5l1.213-.289a29.517,29.517,0,0,0-.654-3.484Zm25.928-7.372h12.608v2.214h1.732V26.205h-2.964a14.66,14.66,0,0,0,1.347-1.6l-1.829-.462a16.145,16.145,0,0,1-1.405,2.04l.058.019H136.25v-2.1h-1.771v2.1h-2.637l.443-.154a9.087,9.087,0,0,0-1.424-1.829l-1.6.443a12.357,12.357,0,0,1,1.155,1.54h-2.945v3.446h1.694Zm2.945,1.963h6.7v1.1h-6.7Zm8.47,2.156V28.342H130.456v3.215Zm-8.181,7.6a19.845,19.845,0,0,1-5.447,1.367,9.9,9.9,0,0,1,1.347,1.347,20.141,20.141,0,0,0,5.813-2.06Zm-1.309-2.021h8.893v.924h-8.893Zm0-1.886h8.893v.9h-8.893Zm0-1.867h8.893v.885h-8.893ZM141.755,39.1V32.365H129.378V39.1h8.643l-1.309.962a42.152,42.152,0,0,1,5.313,1.732l1.829-1c-1.347-.481-3.6-1.174-5.621-1.694Z" transform="translate(-6.865 -23.362)" fill="#fff" stroke="rgba(0,0,0,0)" stroke-miterlimit="10" stroke-width="1" opacity="0.996"/>
</svg>
