<svg xmlns="http://www.w3.org/2000/svg" width="88.999" height="19.055" viewBox="0 0 88.999 19.055">
  <path id="Path_6390" data-name="Path 6390" d="M15.842-25.822l-.4.1H1.925v1.771H13.686A23.365,23.365,0,0,1,8.777-20.47v8.777c0,.346-.154.443-.558.462-.443.019-1.944.019-3.446-.038A6.008,6.008,0,0,1,5.486-9.46a13.629,13.629,0,0,0,4.042-.308c.828-.25,1.116-.789,1.116-1.886v-7.911a28.849,28.849,0,0,0,6.622-5.216Zm14.283,9.971v-1.944h1.444v1.944ZM27.41-17.795h1.463v1.944H27.391c.019-.481.019-.943.019-1.386Zm2.522-6.237A16.2,16.2,0,0,1,29.22-22.3H27.256c.289-.539.558-1.136.808-1.732Zm.192,3.08h1.444v1.829H30.125Zm-2.714,0h1.463v1.829H27.41Zm12.8-3.754c-.1,1.963-.231,2.753-.443,2.984a.518.518,0,0,1-.52.173,13.725,13.725,0,0,1-1.559-.077,4.349,4.349,0,0,1,.4,1.482,12.387,12.387,0,0,0,1.944-.019,1.444,1.444,0,0,0,1.1-.539c.4-.462.577-1.752.712-4.87.019-.192.019-.616.019-.616H33.493v1.482H35.88a4.67,4.67,0,0,1-2.83,3.792V-22.3H30.76a24.712,24.712,0,0,0,1.155-2.541l-1.039-.654-.25.077H28.6c.154-.462.289-.924.423-1.386l-1.636-.366a13.921,13.921,0,0,1-2.907,6.006A12.069,12.069,0,0,1,25.794-20.1l.173-.212v3.061c0,2.156-.135,4.985-1.424,7.007a7.051,7.051,0,0,1,1.27.789,11.354,11.354,0,0,0,1.482-5.024h4.273v3.138c0,.25-.1.327-.346.346-.231,0-1.039,0-1.963-.019a5.689,5.689,0,0,1,.558,1.5,6.626,6.626,0,0,0,2.56-.269c.52-.269.674-.77.674-1.54V-20.74a4.89,4.89,0,0,1,.847,1.116,6.074,6.074,0,0,0,3.638-5.082Zm2.175,10.183h-3.5V-16.6H42.02v-1.54H38.883v-1.848H37.189v1.848H35.841q.2-.693.346-1.386l-1.482-.308A10.9,10.9,0,0,1,33.05-15.6a8.163,8.163,0,0,1,1.347.712,9.483,9.483,0,0,0,.9-1.713h1.886v2.079H33.378v1.559h3.811v3.388h1.694v-3.388h3.5Zm10.048-2.541V-18.7h4.139v.693a7.573,7.573,0,0,1-.038.943Zm0-4.658h4.139v1.636H52.434Zm10.279,0v1.636H58.44v-1.636Zm0,4.658H58.4a7.265,7.265,0,0,0,.038-.924V-18.7h4.273ZM64.484-15.6v-7.584H58.44V-24.57H65.7v-1.617H49.046v1.617h7.526v1.386H50.74V-15.6h5.544a4.524,4.524,0,0,1-1.367,2.175,7.778,7.778,0,0,1-2.156-2.117l-1.559.616a9.285,9.285,0,0,0,2.233,2.483,18.089,18.089,0,0,1-4.774,1.405,7.808,7.808,0,0,1,1.1,1.578A16.6,16.6,0,0,0,55.11-11.4c2.695,1.328,6.2,1.655,10.51,1.809a4.449,4.449,0,0,1,.751-1.771c-4.081-.038-7.315-.25-9.778-1.213a5.947,5.947,0,0,0,1.6-3.022ZM84.31-23.935a13.092,13.092,0,0,1-3.542,2.714A21.059,21.059,0,0,0,78.247-23.3a9.576,9.576,0,0,0,.9-.635Zm1.6-1.675-.308.1H81a11.892,11.892,0,0,0,1.193-1.232l-1.944-.443a16.38,16.38,0,0,1-6.6,4.523,5.52,5.52,0,0,1,1.213,1.29c.712-.327,1.386-.693,2.021-1.039a15.8,15.8,0,0,1,2.291,2,26.866,26.866,0,0,1-6.083,1.771,7.351,7.351,0,0,1,.847,1.578c5.178-1.039,10.7-3.5,13.147-7.834ZM87.1-17.063a10.835,10.835,0,0,1-3.754,3.253A23.564,23.564,0,0,0,80.768-16c.52-.346,1.039-.693,1.5-1.059Zm1.444-1.675-.308.077H84.118a16.2,16.2,0,0,0,1.213-1.367l-1.963-.443a16.828,16.828,0,0,1-8.008,5.216,5.2,5.2,0,0,1,1.116,1.386q1.5-.606,2.772-1.27A24.544,24.544,0,0,1,81.654-13a30.856,30.856,0,0,1-8.681,1.848,5.978,5.978,0,0,1,.712,1.732c7.007-.751,13.416-2.887,16.092-8.6Z" transform="translate(-1.425 27.765)" fill="#fff" stroke="rgba(0,0,0,0)" stroke-width="1" opacity="0.996"/>
</svg>
