<svg xmlns="http://www.w3.org/2000/svg" xmlns:xlink="http://www.w3.org/1999/xlink" width="46.714" height="55.657" viewBox="0 0 46.714 55.657">
  <defs>
    <linearGradient id="linear-gradient" x1="0.5" y1="0.775" x2="0.5" gradientUnits="objectBoundingBox">
      <stop offset="0" stop-color="#f5e9dd" stop-opacity="0"/>
      <stop offset="0.793" stop-color="#f5e9dd" stop-opacity="0.18"/>
      <stop offset="1" stop-color="#f5e9dd" stop-opacity="0.302"/>
    </linearGradient>
    <radialGradient id="radial-gradient" cx="0.5" cy="0.5" r="0.5" gradientUnits="objectBoundingBox">
      <stop offset="0" stop-color="#f3e7d6"/>
      <stop offset="0.291" stop-color="#f3e7d6"/>
      <stop offset="0.443" stop-color="#f3e7d6" stop-opacity="0.114"/>
      <stop offset="0.764" stop-color="#f3e7d6" stop-opacity="0.043"/>
      <stop offset="1" stop-color="#f3e7d6" stop-opacity="0"/>
    </radialGradient>
    <radialGradient id="radial-gradient-2" cx="0.5" cy="0.5" r="0.5" gradientUnits="objectBoundingBox">
      <stop offset="0" stop-color="#a57e69"/>
      <stop offset="0.754" stop-color="#a57e69"/>
      <stop offset="0.803" stop-color="#f3e7d6"/>
      <stop offset="0.862" stop-color="#c8a391" stop-opacity="0.153"/>
      <stop offset="0.921" stop-color="#c8a391" stop-opacity="0.2"/>
      <stop offset="1" stop-color="#c8a391" stop-opacity="0"/>
    </radialGradient>
  </defs>
  <g id="scroll" transform="translate(-1058.643 -844.643)">
    <path id="Path_6344" data-name="Path 6344" d="M29.734,2.136A7.509,7.509,0,0,0,24.477,0H11.523A7.509,7.509,0,0,0,6.266,2.136L4.514,3.854,2.177,6.145A7.221,7.221,0,0,0,0,11.3V36.7a7.221,7.221,0,0,0,2.177,5.156L4.732,44.36l1.534,1.5A7.509,7.509,0,0,0,11.523,48H24.477a7.509,7.509,0,0,0,5.257-2.136l1.66-1.628,2.429-2.382A7.221,7.221,0,0,0,36,36.7V11.3a7.221,7.221,0,0,0-2.178-5.156l-1.978-1.94Z" transform="translate(1064 852)" fill="#0d0702"/>
    <path id="Path_6343" data-name="Path 6343" d="M29.734,2.136A7.509,7.509,0,0,0,24.477,0H11.523A7.509,7.509,0,0,0,6.266,2.136L4.514,3.854,2.177,6.145A7.221,7.221,0,0,0,0,11.3V36.7a7.221,7.221,0,0,0,2.177,5.156L4.732,44.36l1.534,1.5A7.509,7.509,0,0,0,11.523,48H24.477a7.509,7.509,0,0,0,5.257-2.136l1.66-1.628,2.429-2.382A7.221,7.221,0,0,0,36,36.7V11.3a7.221,7.221,0,0,0-2.178-5.156l-1.978-1.94Z" transform="translate(1064 852)" stroke="#645a52" stroke-width="0.6" fill="url(#linear-gradient)"/>
  </g>
  <g id="Group_783" data-name="Group 783" transform="translate(2.832 -0.168)">
    <g id="Group_787" data-name="Group 787" transform="translate(5.525 8.525)">
      <circle id="Ellipse_125" data-name="Ellipse 125" cx="15" cy="15" r="15" fill="url(#radial-gradient)"/>
      <circle id="Ellipse_126" data-name="Ellipse 126" cx="6" cy="6" r="6" transform="translate(9 9)" fill="url(#radial-gradient-2)"/>
    </g>
  </g>
</svg>
