<svg xmlns="http://www.w3.org/2000/svg" width="1422" height="569.558"><g data-name="Group 94"><g data-name="Group 92"><g data-name="Group 81" transform="translate(11812.08 3975.75)" opacity=".15" fill="none" stroke="#f5e9dd" stroke-miterlimit="10"><path data-name="Path 129" d="M-11728.741-3737.58s109.154 4.824 139.909 7.84 91.664 6.332 111.867 5.428 118.2-5.126 140.513-5.428 23.519 2.111 25.931 3.015 6.936 1.508 1.508 2.714c-38.919 8.649-249.966 24.725-281.024 25.931s-104.329-3.618-131.165-6.332-39.8-4.221-41.912-6.633c-1.4-1.6 15.076-14.775 26.836-22.916s56.989-47.34 136.893-63.321 154.685-21.71 154.685-21.71 22.312-1.81 73.874-.6 115.787 4.523 139.909 5.729 78.7 5.729 80.809 6.031-2.412.6-6.935 2.412-117.295 13.569-186.345 31.359-143.224 48.844-143.224 48.844l.7.7s12.463-4.725 17.288-6.634 34.575-12.966 48.244-17.689 51.209-17.238 72.015-22.665 37.239-8.9 56.839-12.363 59.1-9.8 72.064-11.76 24.726-3.618 36.938-4.975 23.218-3.166 26.685-3.92 15.68-2.261 19.9-2.714 12.966-.452 18.093-.6 13.417-.6 18.694-1.206 12.362-1.508 12.513-.754-2.262 4.975-2.563 8.292-.753 8.594 1.658 17.488 6.031 32.566 7.538 51.863 1.809 49.752 2.562 70.558 3.619 60.908 4.674 76.889.754 37.691.754 37.691l-12.664 4.221a200.842 200.842 0 0 0 1.006-64.527c-5.227-35.58-17.891-63.723-43.219-87.443s-59.5-32.565-90.86-25.932-60.708 28.143-78 52.667-30.757 55.079-38.8 92.669a364.947 364.947 0 0 0-7.638 71.764s-11.659 1.407-50.658 3.618-70.96 3.015-86.237 2.814-31.157-7.237-31.157-7.237 65.934-6.232 82.216-8.644 33.168-4.624 37.389-14.473-4.824-29.349-12.865-47.239a332.59 332.59 0 0 0-24.725-45.029c-6.835-10.252-12.062-17.087-20.7-22.514s-37.791-9.649-51.863-10.453-51.862-4.221-51.862-4.221 14.07-5.427 20.1-7.84 18.9-2.815 36.384-4.422 93.474-7.84 111.766-10.855 26.937-10.252 45.028-22.313 34.173-22.916 34.173-22.916l34.474 12.161 9.951 9.347"/><path data-name="Path 130" d="M-11761.003-3711.95c2.714.9 54.275 8.443 108.55 10.554s58.8 3.015 68.447-.6 41.309-20.805 92.267-41.008 94.981-32.263 142.623-42.817 169.76-22.615 169.76-22.615"/><path data-name="Path 131" d="M-11762.914-3710.845s1.206 5.428 1.407 8.041 1.408 2.412 10.654 4.02 77.392 8.443 107.947 9.649 71.161-.6 75.583-1.809 4.624-1.206 6.03-4.021l1.407-2.814"/><path data-name="Path 132" d="M-11558.075-3697.979s-2.815 4.824-3.217 5.83-.4 2.211 1.608 5.629 20.705 23.921 20.705 23.921"/><path data-name="Path 133" d="M-11421.585-3676.671s3.618-19.9 4.02-21.911.6-3.217 4.423-3.417 29.148-1.608 36.786-5.428 9.247-6.433 14.473-7.035 37.992-5.026 44.626-6.03"/><path data-name="Path 134" d="M-11349.418-3559.98s6.03-52.466 33.47-101.615 76.6-76.662 120.611-75.684c40.706.9 79.6 16.282 108.55 73.874"/><path data-name="Path 135" d="M-11438.369-3633.854s57.592-24.122 82.92-33.168a333.465 333.465 0 0 1 50.958-13.267"/><path data-name="Path 136" d="m-11562.498-3699.788-3.216 7.035s-10.654 1.206-20.3 1.408-32.766 0-50.054-.4-40.2-2.211-60.909-3.819-47.24-4.824-55.281-6.03-7.84-2.613-7.84-2.613l.654-4.171"/><path data-name="Path 137" d="m-11761.507-3702.804-1.457 4.275s2.412 13.418 2.563 16.132-.754 4.674 1.658 5.729 15.529 3.92 24.877 5.126 55.933 6.483 75.533 7.538 53.823 2.563 66.336 1.809 46.737-7.086 46.737-7.086"/><path data-name="Path 138" d="M-11762.964-3698.532s.151 3.317 5.126 4.221 27.137 4.221 31.812 4.824 7.387.6 8.895 3.619 5.277 16.735 5.277 16.735"/><path data-name="Line 6" d="m-11718.79-3695.064 7.991 26.233"/><path data-name="Path 139" d="M-11760.249-3687.979s-.9 2.714 4.824 3.618 32.867 5.277 34.676 5.428 5.126.452 5.126.452"/><path data-name="Path 140" d="M-11757.838-3694.311a58.387 58.387 0 0 1 4.523 9.046"/><path data-name="Path 141" d="M-11756.632-3684.511a68.283 68.283 0 0 1 4.372 8.594"/><path data-name="Path 142" d="M-11739.144-3691.296s2.714 4.674 4.824 8.9"/><path data-name="Path 143" d="M-11737.937-3681.496a46.907 46.907 0 0 1 5.126 8.9"/><path data-name="Path 144" d="M-11760.401-3682.4s-10.1 6.332-13.87 8.594-7.84 1.658-9.046 4.523-1.206 4.975-2.714 7.538-4.674 3.467-5.277 14.624 11.157 66.337 11.157 66.337-5.478 13.468-6.684 16.684-1.609 8.242 1.809 10.051 31.56 7.84 49.049 10.855 83.825 13.267 109.354 15.88 64.126 6.433 72.367 6.232 13.267-.8 19.3-2.814 43.621-16.685 53.873-20.1a138.989 138.989 0 0 1 27.941-5.829c8.242-1 19.3-2.412 19.3-2.412l-.4-2.412-6.031-1.206s-28.946 2.01-37.993 5.026-42.615 16.283-51.46 19.9-14.071 5.026-24.122 5.226-68.548-5.025-90.057-7.639-120.216-18.495-128.654-20.305-10.654-2.01-13.468-4.02"/><path data-name="Path 145" d="M-11434.247-3554.653c-1.407.2-19.3 1-34.173 3.819s-38.6 13.066-51.662 18.293-21.71 8.644-33.57 8.442-59.5-4.221-77.794-6.231-106.339-15.88-118.6-17.891-17.289-3.415-17.289-3.415"/><path data-name="Path 146" d="M-11779.799-3577.77s-4.824 10.654-3.819 15.076 23.318 9.247 41.008 11.86 54.878 8.644 92.066 13.468 84.428 9.046 96.087 9.247 21.308-3.819 29.952-7.035 33.168-12.664 40-14.875 44.224-5.83 44.224-5.83"/><path data-name="Path 147" d="M-11778.795-3569.93s-3.417 1.608 1 3.217 15.88 4.824 48.446 9.649 90.458 12.664 118.8 15.278 84.629 5.427 84.629 5.427"/><path data-name="Path 148" d="M-11777.79-3577.971s-6.232 2.412-.8 3.618 26.937 6.835 83.222 14.876 131.06 14.473 145.53 15.076 45.229.2 45.229.2"/><path data-name="Path 149" d="M-11752.36-3560.785a15.292 15.292 0 0 1 3.719 7.639"/><path data-name="Path 150" d="M-11728.037-3556.864a15.292 15.292 0 0 1 3.719 7.639"/><path data-name="Path 151" d="M-11702.307-3553.04a15.291 15.291 0 0 1 3.719 7.639"/><path data-name="Path 152" d="M-11673.561-3549.226a15.292 15.292 0 0 1 3.719 7.639"/><path data-name="Path 153" d="M-11642.102-3545.306a15.292 15.292 0 0 1 3.719 7.639"/><path data-name="Path 154" d="M-11606.622-3541.386a15.291 15.291 0 0 1 3.719 7.639"/><path data-name="Path 155" d="M-11752.562-3568.825a15.292 15.292 0 0 1 3.719 7.639"/><path data-name="Path 156" d="M-11728.037-3564.503a15.292 15.292 0 0 1 3.719 7.639"/><path data-name="Path 157" d="M-11701.803-3560.382a15.292 15.292 0 0 1 3.719 7.639"/><path data-name="Path 158" d="M-11673.561-3556.663a15.292 15.292 0 0 1 3.719 7.639"/><path data-name="Path 159" d="M-11642.302-3553.346a15.289 15.289 0 0 1 3.718 7.639"/><path data-name="Path 160" d="M-11606.823-3549.426a15.292 15.292 0 0 1 3.719 7.639"/><path data-name="Path 161" d="M-11569.332-3538.572s3.116 3.116 3.819 9.85"/><path data-name="Path 162" d="M-11568.529-3545.808s2.412.8 3.116 7.538"/><path data-name="Path 163" d="m-11732.961-3629.482 64.979 6.483-.151 55.632-64.377-8.443z"/><path data-name="Path 164" d="m-11732.488-3631.284 65.683 6.8a1.376 1.376 0 0 1 1.235 1.373l-.144 55.989a1.376 1.376 0 0 1-1.555 1.362l-65.252-8.536a1.376 1.376 0 0 1-1.2-1.357l-.287-54.253a1.377 1.377 0 0 1 1.52-1.378z"/><path data-name="Path 165" d="M-11734.009-3629.907a29.4 29.4 0 0 0 .033-3.29.971.971 0 0 1 1.071-.995l68.418 7.032a.972.972 0 0 1 .872.972l-.142 29.395a.973.973 0 0 0 .927.976l7.467.35a.972.972 0 0 0 1-1.167l-6.387-30.94a.971.971 0 0 0-.856-.771l-70.9-7.016"/><path data-name="Path 166" d="m-11780.151-3580.786 6.854 1.64 2.723 2.723 5.106-1.362 4.085.681 2.042 2.723 3.745-1.362 5.106.681 2.383 2.723 4.425-1.362 5.787 1.022 2.723 2.042 3.4-1.362 8.956 1.262 2.513 2.111 4.523-1.105 7.74 1.206 2.714 2.211 4.523-1.407 7.84 1.206 2.111 2.111 5.025-1.407 9.046 1.407 2.512 2.312 4.724-1.407 9.548 1.206 2.01 2.111 5.427-1.306 10.06 1.206 3.216 2.211 4.824-1.307 10.353.9 2.714 2.211 5.83-1.407 10.051 1.106 3.217 2.312 5.93-1.407 11.056 1.105 3.417 2.111 5.126-1.608 13.871 1.407 3.518 2.312 5.126-2.01 18.8 1.005 3.92 2.01 11.257-2.212 3.819.453s3.92-1.508 7.538-9.5-.151-11.91-5.126-19-27.288-35.279-43.571-48.4-32.414-14.172-41.762-14.926-41.158-3.92-55.33-5.126-112.63-11.29-119.867-11.744-11.006-1.507-14.172 4.221-2.111 15.833-2.111 15.833-3.015-20.856 7.84-22.062 101.515 8.644 118 10.252 61.311 6.231 72.97 7.438 15.679 3.618 22.112 6.432 9.448 6.432 20.5 5.226 48.044-5.829 51.26-6.433 2.211-4.624-4.02-6.835-48.044-5.427-53.672-5.628l-5.628-.2 1.608-1.81s29.148 2.212 39.2 3.217 28.545 3.618 42.415 5.83 23.318 7.84 29.148 14.473 19.3 30.153 26.132 43.621 16.282 37.39 19.3 45.229 0 16.282-8.644 19.7-17.087 6.433-49.25 9.649-62.919 6.231-71.764 7.035-18.092 2.01-32.967 1-84.428-8.442-116.39-13.468-86.641-14.266-97.894-17.284-17.609-4.758-17.894-9.046c-.2-3.015 4.624-11.458 5.83-13.669s4.824-3.216 4.824-3.216"/><path data-name="Path 167" d="M-11785.026-3554.049s1.558 6.131 2.311 8.543 1.81 4.674 5.729 5.578 29.1 7.237 54.727 11.458 92.569 12.966 115.033 15.378 42.666 4.221 49.6 3.618 22.012-6.633 28.344-10.1 29.851-16.584 37.088-20.353"/><path data-name="Path 168" d="M-11506.665-3531.636s-12.665 7.539-20.353 12.363-21.71 10.252-30.3 11.91-95.585-8.9-115.033-11.609-68.9-10.7-81.865-13.719-30.3-7.689-33.47-9.046-3.166-2.412-2.714-4.975 3.016-9.8 3.016-9.8"/><path data-name="Path 169" d="M-11431.134-3551.085s0 .9-1.508 1.357-26.836 5.729-31.359 7.237-4.372 2.111-6.784 5.578-4.221 7.237-4.372 11.156-.6 4.975 3.317 4.674 29.7-3.166 37.841-4.674 11.156-1.96 12.966-2.865 13.87-.753 13.87-.753 1.659.6.6 2.714-5.779 5.377-5.779 5.377"/><path data-name="Path 170" d="M-11430.681-3554.402s6.181 12.815 8.141 16.282 2.412 3.92 6.483 4.372 12.664.9 12.664.9"/><path data-name="Line 7" d="m-11670.696-3690.692-.905 25.328"/><path data-name="Path 171" d="M-11670.546-3665.214s1.508-14.021 1.809-16.132 1.658-3.166 5.729-3.015 49.9 2.262 58.5 2.563 9.5.3 22.012-.754 22.765-2.563 22.765-2.563"/><path data-name="Path 172" d="M-11637.679-3682.852s3.92 5.88 4.372 8.594"/><path data-name="Path 173" d="M-11601.193-3681.345a61.307 61.307 0 0 1 4.372 7.689"/><path data-name="Path 174" d="M-11636.323-3672.601s3.92 5.88 4.674 8.9"/><path data-name="Path 175" d="M-11600.14-3671.696a47.862 47.862 0 0 1 4.221 9.046"/><path data-name="Path 176" d="M-11660.746-3674.561a13.709 13.709 0 0 0 5.277 1.06c3.015 0 27.288.905 37.842 1.206s17.489.6 25.027.3 39.651-4.372 39.651-4.372"/><path data-name="Path 177" d="m-11555.664-3698.18-3.236 5.986a2.478 2.478 0 0 0 .248 2.734c2.945 3.655 11.39 14.137 14.848 18.417a59.88 59.88 0 0 0 6.835 7.438"/><path data-name="Path 178" d="M-11556.869-3693.154s69.351-6.031 92.469-7.639 63.321-6.231 71.161-6.633 11.056-1.81 15.479-3.417a36.41 36.41 0 0 0 6.031-2.613l-181.321 14.472"/><path data-name="Path 179" d="m-11508.625-3691.145 4.624-1.608 10.855.4 2.412 3.015-2.814 9.247-3.418 2.617-17.489.8-.8 1.809 17.891-.6 5.628-.8 3.619-4.222 2.211-10.051-2.01-3.216-14.875-.4"/><path data-name="Path 180" d="m-11478.73-3694.015 3.612-1.256 8.48.314 1.884 2.356-2.2 7.224-2.67 2.042-13.663.628-.628 1.413 13.977-.471 4.4-.628 2.827-3.3 1.727-7.852-1.57-2.513-11.622-.314"/><path data-name="Path 181" d="m-11451.651-3697.157 3.42-1.189 8.028.3 1.784 2.23-2.081 6.839-2.527 1.932-12.934.595-.595 1.338 13.231-.446 4.163-.595 2.676-3.122 1.635-7.437-1.487-2.379-11-.3"/><path data-name="Path 182" d="M-11530.134-3666.62s-16.685-18.092-17.689-20.1-1.407-4.02 1-4.422 19.3-2.211 30.957-3.417 59.9-5.428 65.131-5.83 41.007-4.221 41.007-4.221"/><path data-name="Path 183" d="M-11444.699-3818.992s29.148-21.308 45.028-31.56 70.759-44.626 88.85-53.672 42.817-19.9 51.662-23.117 35.781-12.564 79.8-17.388a1903.528 1903.528 0 0 1 202.328-11.76c87.142-.3 141.718 6.031 186.344 14.775"/><path data-name="Path 184" d="M-11088.498-3809.947s39.6-49.049 57.089-67.542 30.555-31.359 44.827-41.008 33.771-15.076 51.059-17.087 64.125-5.226 103.926-.8 71.563 11.056 97.494 19.3 64.527 24.725 95.283 40c22.772 11.311 31 16.231 33.733 18.024a7.032 7.032 0 0 0 2.962 1.092l13.961 1.79"/><path data-name="Path 185" d="M-10560.217-3838.692s-59.5-37.389-85.634-50.858c-16.781-8.649-61.512-29.348-96.891-40s-58.5-14.876-100.108-19.3-86.237-4.624-119.2 2.211-42.013 13.267-53.471 20.906-34.776 30.354-53.069 50.054-61.11 67.542-61.11 67.542"/><path data-name="Path 186" d="m-10602.121-3857.971 21.147 12.594s2.714 1.056 4.824 2.111l2.111 1.056"/><path data-name="Path 187" d="M-11124.076-3807.936s20.7-22.916 35.379-39.6 47.641-53.27 60.1-63.722 25.529-19.1 25.529-19.1l-4.825-.2"/><path data-name="Path 188" d="m-11084.679-3542.792 2.413 1.407 11.86-4.221s-.2 9.046-.8 15.881-2.613 13.066-3.618 13.87-14.474 6.232-18.494 7.438-14.273 3.015-14.273 3.015 11.458-18.092 13.267-58.3-6.835-73.171-21.107-94.479-35.982-39.6-67.543-44.224-62.316 7.237-89.051 34.575-37.389 63.321-41.812 79.4-7.642 45.235-8.642 60.312-1.407 23.318-1.407 23.318l-18.293 1.206"/><path data-name="Path 189" d="M-11323.889-3504.8s-2.211 14.876-3.417 19.3-1.809 6.232-1.809 6.232-56.888 3.216-97.293 2.01-74.376 0-83.021-3.015-29.55-16.684-35.58-18.292a71.443 71.443 0 0 0-13.87-1.81"/><path data-name="Path 190" d="M-11561.543-3503.292a61.565 61.565 0 0 0 4.825 5.728c2.262 2.262 24.273 11.76 24.273 11.76"/><path data-name="Path 191" d="M-11518.876-3484.749s-19.9-1.206-31.811-2.261-70.558-7.086-86.69-9.8-57.29-8.9-74.327-12.212-38.443-6.181-45.078-9.046-6.181-3.317-8.141-4.975-6.483-6.031-6.483-6.031"/><path data-name="Path 192" d="M-11798.494-3543.396s-.05 6.031 4.171 7.689a165.6 165.6 0 0 0 21.107 6.332c9.046 2.111 23.067 4.975 33.319 6.784s25.479 4.372 25.479 4.372"/><path data-name="Path 193" d="M-11210.916-3555.96c4.761-.1 7.538 5.528 7.438 11.358s-3.417 10.051-7.136 11.056-8.644-1.709-9.247-9.146 3.92-13.168 8.945-13.268z"/><path data-name="Path 194" d="m-11187.196-3645.011-15.68 74.277s-8.844 9.247-11.86 12.262-6.332 9.75-6.332 9.75-1.809-7.337-2.211-8.644-4.322-4.021-5.528-4.925-7.136-7.437-11.258-12.262-5.93-6.332-6.533-13.167-1-13.569-2.412-16.986-3.518-9.649-4.221-10.152a2.289 2.289 0 0 0-1.91-.3c-.5.1 1.407 2.311 3.217 6.131a56.923 56.923 0 0 1 2.714 6.734"/><path data-name="Path 195" d="M-11189.407-3619.582s17.891-14.775 19.4-15.981 1.408-.5 1.709.4a9.336 9.336 0 0 1-1.407 6.633c-1.709 2.613-5.226 8.141-6.734 9.347s-7.237 6.031-10.955 9.046-9.247 17.187-9.247 17.187l-5.226 23.72-8.141 8.844s-.6.8 1.171 1.625 22.266 10.957 22.266 10.957 16.965-4.83 26.037-6.244 29.572-5.655 29.572-5.655"/><path data-name="Path 196" d="M-11196.644-3593.047s8.443-32.263 10.051-36.887 2.312-7.538 3.92-8.945 3.015-1 4.422-.6 8.241 2.815 8.241 2.815l.9-.6"/><path data-name="Path 197" d="M-11170.009-3635.562a38.809 38.809 0 0 0-7.237-1.909 30.651 30.651 0 0 0-6.533 0"/><path data-name="Path 198" d="M-11214.233-3570.432s3.719-1.909 4.121-4.221 3.116-17.991 5.829-25.831 12.262-35.38 12.262-35.38"/><path data-name="Line 8" d="m-11215.74-3576.061 22.715-58.899"/><path data-name="Path 199" d="M-11188.805-3641.092a9.967 9.967 0 0 1-1.306 2.714c-.7.8-4.724 5.628-6.634 7.739s-2.312 1.81-2.312 1.81-8.443 26.132-12.262 33.47a63.027 63.027 0 0 1-6.533 10.554"/><path data-name="Path 200" d="M-11212.321-3630.235a79.682 79.682 0 0 1 8.845 0 36.28 36.28 0 0 1 4.925.7"/><path data-name="Path 201" d="M-11189.307-3640.288a44.418 44.418 0 0 0-22.313-.9"/><path data-name="Path 202" d="M-11212.323-3643.704a19.938 19.938 0 0 1 .8 6.232c0 4.02-.6 9.347-1.808 12.362s-4.423 10.152-5.629 14.675-.6 12.061-.6 16.685 3.216 15.981 4.322 19.8 1.608 5.327 1.507 7.639-.7 4.925-1.307 5.428a4.019 4.019 0 0 1-1.306.7 5.372 5.372 0 0 0 .5-3.518c-.5-1.608-2.815-1.407-4.422-1.106s-4.021 1.508-4.624 2.412a7.746 7.746 0 0 0-.8 2.714"/><path data-name="Path 203" d="M-11230.917-3567.115s2.513-.3 4.724-.4 1.91-1.307 1.106-4.925-3.317-20.806-4.523-28.042-4.624-35.882-4.624-35.882"/><path data-name="Path 204" d="M-11231.52-3564.804s2.01-12.363 2.111-18.8-5.327-43.722-5.327-43.722"/><path data-name="Path 205" d="M-11225.491-3561.286s-1.206-4.121-2.211-5.026-3.217-.8-3.217-.8"/><path data-name="Path 206" d="M-11227.601-3567.417a2.487 2.487 0 0 1 2.01 1.608 14.576 14.576 0 0 1 1.105 2.915"/><path data-name="Path 207" d="M-11256.949-3612.747a8.344 8.344 0 0 1-1 3.015c-1.005 2.111-5.126 9.85-5.428 12.865s-.2 4.121 1.407 5.528 31.862 27.741 31.862 27.741"/><path data-name="Path 208" d="M-11269.41-3591.338s44.124 33.269 44.727 33.872.6 1.809 1.105 3.619 2.211 10.654 2.814 13.368 3.015 7.237 3.618 8.342.3 1.608-.5 2.01-5.327 2.815-5.628 3.518a10.2 10.2 0 0 1-2.613 3.92c-1.91 1.91-23.117 29.249-26.736 33.671s-7.337 9.649-9.046 10.453-2.513 1.307-4.422-1.709-6.734-10.654-6.734-10.654"/><path data-name="Path 209" d="M-11263.784-3587.117s33.369 35.279 34.575 36.284.2 1.709-.8 1.709-10.754-.4-10.754-.4"/><path data-name="Path 210" d="M-11252.627-3547.715s4.925-.2 5.83-.3a3.194 3.194 0 0 0 2.613-3.417c0-2.412-.7-4.422-4.423-9.749s-16.885-19.6-17.589-19.5-.927 1.43-1.206 2.211c-1 2.814-4.925 21.208-4.925 21.208"/><path data-name="Path 211" d="m-11266.196-3580.685-.5-5.93s16.081 16.584 19 21.006 7.639 10.051 7.538 14.172-5.126 4.423-7.337 4.221-7.438-.4-10.453-1.507a26.9 26.9 0 0 1-8.141-5.126c-1.809-1.709-8.041-3.518-8.945-4.523s-1.206-1.507-1-2.412c0 0 2.613-11.358 4.824-17.288s3.417-9.347 3.417-9.347"/><path data-name="Path 212" d="M-11254.135-3575.76s15.68 18.494 17.287 20.1 3.518 3.317 4.523 4.121.9 2.211-2.412 2.111"/><path data-name="Path 213" d="M-11279.765-3554.749a6.713 6.713 0 0 1 .6 3.216c0 2.212.905 12.363 1.005 13.569a3.449 3.449 0 0 0 2.01 3.015c1.407.7.4 1.106 7.74-.1s41.209-6.633 41.209-6.633l1.105-3.518s-4.523-.6-7.84-1.407a58.781 58.781 0 0 1-6.835-2.211"/><path data-name="Path 214" d="M-11278.559-3557.368s10.352 3.819 11.358 4.422 1.407 2.714 4.422 6.031 4.221 4.322 12.161 3.92 10.554-.8 12.865-.2 1.206 1.307-2.613 2.211-17.891 3.317-17.891 3.317 15.579-3.618 16.383-4.221-1.608.3-7.337.7-7.136.9-11.056-2.513"/><path data-name="Path 215" d="M-11281.171-3527.415a9.966 9.966 0 0 0 4.221-.2c2.513-.6 17.79-4.523 25.529-5.83s21.107-1.508 22.414-1.407 1.307 0 1.808-.8 3.518-5.428 3.518-5.428 2.513 2.211 2.513 3.217-1.206 3.316-.4 3.92 4.322 2.814 4.322 2.814"/><path data-name="Path 216" d="M-11265.693-3530.33a70.961 70.961 0 0 1 17.287-1.206c9.649.5 9.046 1.005 11.458.2s8.041-1.81 8.041-1.81"/><path data-name="Path 217" d="M-11227.198-3535.656s-2.312 2.814-1.91 3.92 2.212 1.709 4.021 2.01 3.719.5 3.719-.8-.2-3.417-.2-3.417"/><path data-name="Path 218" d="M-11242.577-3530.932s1.106 3.317-2.111 8.443-8.242 10.855-14.172 13.167-10.152 4.824-10.956 4.121-2.613-9.75-3.719-15.378-1.407-7.538-1.407-7.538"/><path data-name="Path 219" d="M-11277.755-3527.315s2.915 19.7 3.92 24.424 1.91 4.925 1.91 4.925 4.824-1.106 11.257-6.031 13.368-10.855 16.986-16.785a66.462 66.462 0 0 0 5.226-10.252"/><path data-name="Path 220" d="M-11248.305-3514.75s1.206 7.136 1.809 6.533 7.237-8.644 9.75-11.558 4.322-4.121 3.819-1.307-4.02 8.041-7.639 13.669-10.453 15.478-15.478 20.806a76.054 76.054 0 0 1-7.639 7.337l-.2-1s2.211-1.81 5.327-4.925a108.206 108.206 0 0 0 12.262-15.378c3.116-5.026 9.548-16.685 5.227-9.649s-7.337 8.04-11.659 8.543-6.132-.905-10.453 2.312a38.8 38.8 0 0 1-10.553 5.026l1.809-3.619"/><path data-name="Path 221" d="M-11239.159-3528.417s-1.307 1 1 1 4.523-.7 4.724.4-.4 3.216.905 2.814 2.311-2.111 4.121-2.412a4.169 4.169 0 0 0 2.714-1.909l-.6-1.408"/><path data-name="Path 222" d="M-11261.573-3469.321s11.257-17.79 19-28.645 19.8-23.62 25.731-28.545a30.912 30.912 0 0 1 13.066-6.131 18.065 18.065 0 0 1 1.537 6.755 65.961 65.961 0 0 0 .943 7.894s7.54 24.27 10.6 33.224 7.894 24.741 8.954 27.8 1.3 4.242-1.649 6.362-10.485 6.834-10.485 6.834-1.414.353 0-1.414 9.425-7.423 9.661-10.368-4.359-17.908-5.773-22.5-13.784-33.341-14.138-36.522"/><path data-name="Path 223" d="M-11221.918-3553.573a5.836 5.836 0 0 0 3.77-2 13.144 13.144 0 0 0 1.8-4.605"/><path data-name="Path 224" d="M-11201.87-3569.227s3.986 2.341 4.693 4.108 1.3 2.592.707 4.005-3.652 3.181-5.066 3.652-1.414 1.3-1.414 1.3"/><path data-name="Path 225" d="M-11199.416-3579.492a114.583 114.583 0 0 0 15.433-10.6c8.483-6.833 16.023-14.02 15.905-15.905s-3.534-6.362-6.126-8.6a20.358 20.358 0 0 0-4.124-2.945"/><path data-name="Path 226" d="M-11176.441-3619.18a89.71 89.71 0 0 1 7.54 7.407c2.945 3.416 2.71 4.477 2.71 4.477l14.374-5.419 2.945-3.063 1.06.824s-22.974 25.919-29.689 33.341-16.965 17.2-17.672 17.554l-.707.353"/><path data-name="Path 227" d="M-11138.741-3594.454s-1.885-5.537-4.123-8.482-3.063-4.831-5.891-3.535-16.141 15.081-21.8 20.618c-4.9 4.8-18.306 20.67-21.786 24.808a3.858 3.858 0 0 1-2.108 1.281l-2.379.537"/><path data-name="Path 228" d="M-11183.04-3571.834s10.25-7.776 13.548-10.014 3.888-2.356 8.012-2.238 7.893.471 7.893.471"/><path data-name="Path 229" d="M-11178.684-3575.016s17.2-6.244 21.089-7.187 14.727-5.184 16.848-6.6 2.828-3.063 1.649-3.063"/><path data-name="Path 230" d="M-11172.672-3583.262s3.534-3.063 10.368-4.359 10.956-1.649 16.022-4.241 6.126-3.181 6.126-3.181-3.534-6.48-6.48-8.247l-2.945-1.767"/><path data-name="Path 231" d="M-11154.294-3582.673a68.223 68.223 0 0 1 3.3 10.6 107.14 107.14 0 0 1 1.531 11.074l14.374 1.178 3.652-.825"/><path data-name="Path 232" d="M-11156.53-3582.201s3.3 10.6 3.77 15.787l.471 5.184s-7.775 1.179-17.554 1.649-18.261 1.06-20.5.236-.942-3.181-.942-3.181"/><path data-name="Path 233" d="M-11201.537-3557.461s-1.649 1.649 3.534 2.238 23.445.471 31.81-.235 21.207-1.3 21.207-1.3"/><path data-name="Path 234" d="M-11189.754-3546.975s-6.833-2.945-7.893-3.181-2-.943-2.474.943a33.2 33.2 0 0 0-1.178 9.543c.236 3.652 6.009 29.807 10.25 43.827s15.9 42.884 15.9 42.884"/><path data-name="Path 235" d="M-11210.608-3530.246s4.948 2.121 5.773 3.77 1.531 3.534 1.06 4.595 2 2.238 2 2.238"/><path data-name="Path 236" d="M-11213.629-3528.822a12.394 12.394 0 0 0 .3 3.92c.5 1.608 3.216 5.93 3.417 6.533s-2.815 9.85-5.026 23.62-5.729 45.33-5.83 48.043-.3 5.327-.3 5.327"/><path data-name="Path 237" d="M-11211.016-3512.841s2.01-2.111 2.714-1.809 1.809 1.105 3.015 5.226 5.93 16.584 4.925 16.082-8.041-8.443-8.041-8.443"/><path data-name="Path 238" d="M-11211.72-3509.825a123.4 123.4 0 0 1 5.729 16.383c2.211 8.443 7.137 29.449 7.337 33.671s.3 11.659-.3 12.463-3.115 1.508-7.438 1.809-14.272.1-14.272.1"/><path data-name="Path 239" d="M-11212.524-3507.212a110.8 110.8 0 0 1 5.83 23.821c1.306 11.961.6 20.3-.7 21.409s-6.332 1.608-8.543 1.809-3.518.2-3.518.2"/><path data-name="Path 240" d="M-11219.358-3457.964s8.342-.2 11.056-.8 2.915-1.507 4.02-.5 5.327 11.961 5.327 11.961"/><path data-name="Line 9" d="m-11208.303-3458.767 8.543 10.152"/><path data-name="Path 241" d="M-11218.357-3457.762a58.383 58.383 0 0 0 6.131 7.035 76.926 76.926 0 0 0 5.83 5.227"/><path data-name="Path 242" d="M-11194.331-3484.296a23.745 23.745 0 0 1-1.005 11.458c-2.111 6.432-2.211 7.639-2.01 8.543a74.068 74.068 0 0 1 1.809 11.156c.2 4.322.3 7.84.3 7.84"/><path data-name="Path 243" d="M-11239.762-3448.617a2.85 2.85 0 0 1 1.91-.2c1.206.3 6.332 2.512 9.046 2.613s3.116.2 3.719-2.01 9.147-52.868 10.252-60.306 1.206-7.94.7-9.548-1.608-3.015-1.91-4.221-.9-.4-.3-2.01a6.553 6.553 0 0 1 2.312-2.714c.7-.5 1.759-.7 2.111.5a7.194 7.194 0 0 1-.251 3.97"/><path data-name="Path 244" d="M-11255.948-3477.864s10.151 9.146 11.558 10.051 1.81.8 1.91 1.708.3 10.453.3 10.956 1.207-1.307 3.116-5.93 6.834-24.424 9.146-33.771a81.8 81.8 0 0 0 2.01-19.3s7.236-8.342 8.745-9.348"/><path data-name="Path 245" d="M-11245.19-3468.617a18.935 18.935 0 0 0 3.317-3.518c1.407-2.01 8.744-16.484 10.051-22.615s.9-17.891.9-17.891"/><path data-name="Path 246" d="M-11241.772-3451.027s5.93-10.152 7.036-12.765 4.021-4.422 6.634-7.739 4.824-11.257 5.528-17.79 2.111-23.118 2.613-21.409 0 16.986-.4 24.726-4.221 26.334-4.624 29.651-.4 4.221-2.211 6.332-1.508 2.111-1.206 2.714"/><path data-name="Path 247" d="M-11256.849-3476.557s5.126 4.221 6.835 8.041 3.518 7.136 4.925 9.95 2.915 3.417 2.915 3.417"/><path data-name="Path 248" d="M-11201.166-3544.903s3.618-2.613 6.432-1.909 3.115 1.206 4.422 1.105 13.167-2.211 21.208-3.417 28.143-3.618 31.258-3.618 4.824.5 5.026 1.809"/><path data-name="Path 249" d="M-11138.65-3552.643a10.238 10.238 0 0 1 4.221 5.93 50.173 50.173 0 0 1 1.206 10.252 6.15 6.15 0 0 0 1.206 2.814"/><path data-name="Path 250" d="M-11172.621-3548.421s14.272.4 17.087 1.307 8.041 7.237 9.548 7.839 3.015 1.106 7.337 1.106h5.026"/><path data-name="Path 251" d="M-11185.387-3546.311s14.976.9 20.2 1.106 6.131 1 3.819 1.105-14.574.9-15.679.9a7.067 7.067 0 0 0-2.01.3s9.046 1.809 16.081 3.518 26.736 9.85 26.736 9.85-3.417 14.675-5.126 20.2a66.008 66.008 0 0 1-3.015 8.242s-6.734-5.729-8.745-7.337-2.814-2.312-2.814-2.312 4.724-13.569 5.528-23.117"/><path data-name="Path 252" d="M-11152.721-3535.858a130.67 130.67 0 0 1-3.618 16.282c-2.11 6.533-2.915 8.543-2.915 8.543"/><path data-name="Path 253" d="M-11188.403-3546.008a7.419 7.419 0 0 0-1.809 2.01c-.7 1.206-.5 4.523-.5 5.628s8.844 8.945 15.88 15.478 18.694 13.971 23.418 17.187 10.554 7.639 10.554 7.639"/><path data-name="Line 10" d="m-11150.61-3531.636 14.373 2.111"/><path data-name="Path 254" d="M-11201.166-3538.37a5.15 5.15 0 0 0 2.915 2.815c2.111.7 4.121 1 5.126.7a2.845 2.845 0 0 0 1.507-3.317 23.023 23.023 0 0 1 .2-5.327 3.681 3.681 0 0 1 1.105-2.211"/><path data-name="Path 255" d="M-11200.765-3544.2a2.027 2.027 0 0 1 2.513 1.206 3.3 3.3 0 0 1-.4 4.02c-.8.8-2.579.716-2.647-.7"/><path data-name="Path 256" d="M-11196.542-3546.913a4.541 4.541 0 0 1 1.709 3.92c-.1 2.714-.3 6.03-1.407 6.734a4.122 4.122 0 0 1-2.01.7"/><path data-name="Path 257" d="M-11158.551-3504.399s6.633 5.226 7.94 8.443 1.106 6.332-.2 10.754a36.926 36.926 0 0 1-2.714 6.935l1.005.2s5.528-10.453 5.93-13.469-2.714-5.528-5.226-7.639-31.56-24.524-36.988-28.946-7.94-2.915-7.94-2.915c.6.4 3.618 1.709 2.111 3.518s1.206 0 9.548 4.824 11.056 6.232 11.056 6.232"/><path data-name="Path 258" d="M-11197.448-3520.681a74.315 74.315 0 0 1 10.956 8.141c6.332 5.528 14.071 15.076 17.89 20.1s9.75 16.785 9.75 16.785-4.624 5.428-8.141 9.046a129.358 129.358 0 0 1-10.051 8.745"/><path data-name="Path 259" d="M-11183.679-3474.648s4.523-3.92 7.639-7.237 3.518-3.618 3.216-5.528-2.111-10.955-13.669-25.128"/><path data-name="Path 260" d="M-11182.874-3472.135s7.237-6.835 10.051-9.548 2.513-3.417 2.513-3.417l3.719-4.221s5.36 3.238 7.892 6.245 4.432 8.863 3.482 8.7a28.766 28.766 0 0 1-3.635-1.28l-11.458-9.448h-2.914"/><path data-name="Path 261" d="M-11198.265-3524.541s1.266-1.266 4.273 0 18.833 14.244 18.833 14.244-19.625-11.237-20.574-11.712"/><path data-name="Path 262" d="M-11167.837-3632.049s7.127 5.407 11.306 11.06 4.712 8.274 4.712 8.274-12.135 11.9-21.914 20.382-27.451 20.853-27.451 20.853"/><path data-name="Path 263" d="M-11140.744-3588.799s3.63 9.591 4.613 15.982a104.262 104.262 0 0 1 1.042 13"/><path data-name="Path 264" d="M-11253.231-3614.858a121.436 121.436 0 0 1 10.434-10.555 33.075 33.075 0 0 1 9.065-5.325l-3.518 11.257a129.407 129.407 0 0 1 2.211 18.193c.3 8.744.6 22.615-.2 26.433s-1.206 4.323-1.206 4.323"/><path data-name="Path 265" d="M-11214.608-3643.772a24.428 24.428 0 0 1-6.3 4.007c-4.389 2.1-5.725 3.054-6.3 5.534s0 16.793 1.335 29.961 4.008 32.633 3.245 34.35l-.763 1.718"/><path data-name="Path 266" d="M-11211.908-3632.658a27.99 27.99 0 0 0 10.817-1.926 69.835 69.835 0 0 0 9.928-5.038"/><path data-name="Path 267" d="M-11237.25-3619.481a52.8 52.8 0 0 0-12.89 11.125"/><path data-name="Path 268" d="M-11251.473-3610.875a164.588 164.588 0 0 1 14.521-9.78"/><path data-name="Path 269" d="M-11205.056-3565.574a6.911 6.911 0 0 1 .7 3.642c-.235 1.879-2.467 2.467-2.937 1.645s.7-3.877.7-3.877"/><path data-name="Path 270" d="M-11200.727-3566.218c-.341-.1-1.323-.905-1.183.418s.557 3.2-.07 4.734-1.044 2.506-.209 2.506a6.407 6.407 0 0 0 3.968-2.367c.835-1.324 1.114-4.247-2.506-5.291z"/><path data-name="Path 271" d="M-11223.768-3563.225a4.006 4.006 0 0 1 .489 5.859"/><path data-name="Path 272" d="M-11219.939-3554.594c-.7-.766-1.462-1.044-.626-2.3a6.047 6.047 0 0 0 1.183-3.759c0-1.531-.348-2.784.7-2.3a21.065 21.065 0 0 1 2.715 1.741"/><path data-name="Path 273" d="M-11225.746-3537.918a6.661 6.661 0 0 1 .4 2.915c-.151 1.608-1.709 3.618-3.568 1.859"/><path data-name="Path 274" d="M-11221.168-3537.868s-1.507-1.307-1.809.352a24.6 24.6 0 0 0-.352 4.573c0 1.457.5 2.06 1.206 2.01l.7-.05"/><path data-name="Path 275" d="M-11205.239-3525.556c-.8-.654-1.307-1.457-1.91-1s-1.005.452-.754 1.457.5 1.106.151 2.111-1.307 2.261-.4 2.412 3.518-1.659 3.518-1.659"/><ellipse data-name="Ellipse 11" cx="103.34" cy="75.346" rx="103.34" ry="75.346" transform="rotate(-85.596 -7505.143 4373.098)"/><path data-name="Path 276" d="M-11127.411-3535.525c-4.512 58.594-42.737 103.431-85.377 100.147s-73.549-53.445-69.036-112.039 42.736-103.431 85.377-100.147 73.548 53.445 69.036 112.039z"/><ellipse data-name="Ellipse 12" cx="128.13" cy="91.935" rx="128.13" ry="91.935" transform="rotate(-84.263 -7549.853 4540.83)"/><path data-name="Path 277" d="M-11214.325-3413.647c48.753-1.866 91.867-53.78 98.669-121.482 6.349-63.188-21.3-118.542-63.262-135.749"/><ellipse data-name="Ellipse 13" cx="128.13" cy="91.935" rx="128.13" ry="91.935" transform="rotate(-84.263 -7549.853 4540.83)"/><path data-name="Path 278" d="M-11214.325-3413.648c-19.6 0-50.033.269-75.668-9.616-19.565-7.545-39.552-29.6-51.133-54.248"/><path data-name="Path 279" d="M-10602.577-3619.264c3.07-.076 4.861 4.416 4.8 9.072s-2.2 8.029-4.6 8.831-5.573-1.365-5.962-7.306 2.521-10.517 5.762-10.597z"/><path data-name="Path 280" d="m-10587.278-3690.396-10.11 59.33s-5.7 7.386-7.648 9.794-4.083 7.788-4.083 7.788-1.167-5.861-1.425-6.9-2.787-3.211-3.565-3.934-4.6-5.941-7.259-9.795-3.824-5.058-4.212-10.517-.648-10.838-1.555-13.568-2.268-7.708-2.722-8.109a1.237 1.237 0 0 0-1.231-.241c-.324.08.907 1.846 2.074 4.9a52.36 52.36 0 0 1 1.75 5.379"/><path data-name="Path 281" d="M-10588.707-3670.084s11.536-11.8 12.508-12.765.908-.4 1.1.322a8.975 8.975 0 0 1-.908 5.3c-1.1 2.088-3.37 6.5-4.342 7.466s-4.666 4.817-7.064 7.226-5.962 13.729-5.962 13.729l-3.37 18.947-5.25 7.065s-.385.639.755 1.3 14.358 8.752 14.358 8.752 10.939-3.858 16.789-4.988 19.067-4.517 19.067-4.517"/><path data-name="Path 282" d="M-10593.373-3648.889s5.444-25.771 6.481-29.464 1.491-6.021 2.528-7.145a2.236 2.236 0 0 1 2.852-.482c.907.321 5.314 2.248 5.314 2.248l.584-.482"/><path data-name="Path 283" d="M-10576.2-3682.848a21.406 21.406 0 0 0-4.667-1.526 16 16 0 0 0-4.212 0"/><path data-name="Path 284" d="M-10604.715-3630.824s2.4-1.526 2.657-3.372 2.009-14.371 3.759-20.633 7.907-28.26 7.907-28.26"/><path data-name="Line 11" d="m-10605.688-3635.32 14.647-47.046"/><path data-name="Path 285" d="M-10588.318-3687.264a8.956 8.956 0 0 1-.843 2.168c-.453.642-3.046 4.5-4.278 6.182s-1.49 1.445-1.49 1.445-5.444 20.874-7.906 26.735a53.062 53.062 0 0 1-4.212 8.43"/><path data-name="Path 286" d="M-10603.484-3678.593a41.506 41.506 0 0 1 5.7 0 19.251 19.251 0 0 1 3.176.562"/><path data-name="Path 287" d="M-10588.642-3686.622a27.159 27.159 0 0 0-6.351-1.445 26.468 26.468 0 0 0-8.036.722"/><path data-name="Path 288" d="M-10603.484-3689.351a19.449 19.449 0 0 1 .518 4.978 38.077 38.077 0 0 1-1.167 9.875c-.778 2.408-2.852 8.109-3.63 11.721s-.388 9.634-.388 13.327 2.074 12.765 2.787 15.816 1.037 4.255.972 6.1-.454 3.934-.843 4.335a2.45 2.45 0 0 1-.843.562 5.184 5.184 0 0 0 .324-2.81c-.324-1.285-1.815-1.124-2.852-.883a5.678 5.678 0 0 0-2.981 1.927 7.362 7.362 0 0 0-.519 2.167"/><path data-name="Path 289" d="M-10615.473-3628.176s1.62-.241 3.046-.321 1.231-1.044.713-3.934-2.139-16.618-2.917-22.4-2.981-28.661-2.981-28.661"/><path data-name="Path 290" d="M-10615.863-3626.329s1.3-9.875 1.361-15.013-3.435-34.923-3.435-34.923"/><path data-name="Path 291" d="M-10611.974-3623.52s-.778-3.292-1.425-4.014a3 3 0 0 0-2.074-.642"/><path data-name="Path 292" d="M-10613.336-3628.416s.778 0 1.3 1.285a13.566 13.566 0 0 1 .714 2.328"/><path data-name="Path 293" d="M-10632.259-3664.624a7.889 7.889 0 0 1-.648 2.409c-.648 1.686-3.305 7.868-3.5 10.276s-.13 3.292.907 4.416 20.545 22.158 20.545 22.158"/><path data-name="Path 294" d="M-10640.296-3647.523s28.451 26.574 28.84 27.056.389 1.445.714 2.89 1.425 8.51 1.814 10.678a38.51 38.51 0 0 0 2.333 6.664c.389.883.194 1.284-.324 1.606s-3.435 2.248-3.629 2.81a8.6 8.6 0 0 1-1.685 3.131c-1.232 1.525-14.906 23.362-17.239 26.895s-4.731 7.707-5.833 8.35-1.621 1.044-2.852-1.365-4.342-8.51-4.342-8.51"/><path data-name="Path 295" d="M-10636.665-3644.152s21.516 28.18 22.294 28.982.13 1.365-.518 1.365-6.935-.321-6.935-.321"/><path data-name="Path 296" d="M-10629.472-3612.68s3.175-.161 3.759-.241 1.685-.8 1.685-2.73-.453-3.533-2.851-7.788-10.888-15.655-11.342-15.575-.6 1.143-.777 1.766c-.648 2.248-3.176 16.94-3.176 16.94"/><path data-name="Path 297" d="m-10638.225-3639.01-.323-4.737s10.369 13.247 12.249 16.779 4.925 8.029 4.861 11.32-3.305 3.532-4.731 3.371-4.8-.321-6.74-1.2a17.344 17.344 0 0 1-5.249-4.094c-1.167-1.365-5.185-2.81-5.768-3.613s-.778-1.2-.649-1.927c0 0 1.685-9.072 3.11-13.809s2.2-7.466 2.2-7.466"/><path data-name="Path 298" d="M-10630.444-3635.08s10.11 14.772 11.147 16.057 2.269 2.649 2.917 3.292.584 1.766-1.555 1.686"/><path data-name="Path 299" d="M-10646.97-3618.3a6.43 6.43 0 0 1 .389 2.569c0 1.766.583 9.875.648 10.838a2.847 2.847 0 0 0 1.3 2.409c.907.562.259.883 4.99-.08s26.572-5.3 26.572-5.3l.713-2.81a49.221 49.221 0 0 1-5.055-1.124 33.117 33.117 0 0 1-4.407-1.766"/><path data-name="Path 300" d="M-10646.193-3620.388s6.675 3.051 7.323 3.533.908 2.167 2.851 4.817 2.723 3.452 7.842 3.131 6.805-.642 8.3-.161.778 1.044-1.685 1.766-11.536 2.649-11.536 2.649 10.046-2.89 10.564-3.372-1.037.241-4.732.562-4.6.722-7.128-2.007"/><path data-name="Path 301" d="M-10647.874-3596.464a5.225 5.225 0 0 0 2.722-.161c1.62-.482 11.471-3.613 16.461-4.656a83.6 83.6 0 0 1 14.452-1.124c.843.08.843 0 1.167-.642s2.269-4.335 2.269-4.335 1.62 1.766 1.62 2.569-.778 2.649-.259 3.131 2.787 2.248 2.787 2.248"/><path data-name="Path 302" d="M-10637.897-3598.792a37.234 37.234 0 0 1 11.147-.963c6.222.4 5.833.8 7.388.16a45.54 45.54 0 0 1 5.185-1.445"/><path data-name="Path 303" d="M-10613.076-3603.047s-1.491 2.248-1.231 3.131 1.426 1.365 2.593 1.606 2.4.4 2.4-.642-.13-2.729-.13-2.729"/><path data-name="Path 304" d="M-10622.99-3599.273s.713 2.649-1.361 6.744-5.315 8.67-9.139 10.517-6.545 3.854-7.064 3.292-1.685-7.787-2.4-12.283-.908-6.021-.908-6.021"/><path data-name="Path 305" d="M-10645.675-3596.382s1.879 15.736 2.528 19.509 1.232 3.934 1.232 3.934 3.11-.883 7.258-4.817 8.62-8.671 10.953-13.408a59.153 59.153 0 0 0 3.37-8.189"/><path data-name="Path 306" d="M-10626.685-3586.346s.778 5.7 1.167 5.218 4.666-6.9 6.286-9.233 2.787-3.291 2.463-1.043-2.592 6.422-4.925 10.918-6.74 12.364-9.98 16.619a55.429 55.429 0 0 1-4.926 5.861l-.13-.8s1.426-1.445 3.435-3.934a85.912 85.912 0 0 0 7.906-12.284c2.009-4.014 6.157-13.327 3.37-7.707s-4.731 6.422-7.518 6.824-3.953-.722-6.74 1.846a23.063 23.063 0 0 1-6.805 4.014l1.167-2.89"/><path data-name="Path 307" d="M-10620.788-3597.266s-.842.8.648.8 2.916-.562 3.046.321-.259 2.569.584 2.248 1.49-1.686 2.657-1.927a2.861 2.861 0 0 0 1.75-1.525l-.389-1.124"/><path data-name="Path 308" d="M-10635.24-3550.06s7.259-14.21 12.249-22.88 12.768-18.867 16.591-22.8a18.241 18.241 0 0 1 8.425-4.9 17.247 17.247 0 0 1 .991 5.4c.152 3.387.607 6.3.607 6.3s4.862 19.386 6.837 26.538 5.09 19.762 5.774 22.209.836 3.388-1.063 5.082-6.761 5.458-6.761 5.458-.912.282 0-1.129 6.077-5.928 6.229-8.281-2.81-14.3-3.722-17.974-8.888-26.632-9.116-29.173"/><path data-name="Path 309" d="M-10609.671-3617.358a3.533 3.533 0 0 0 2.431-1.6 12.16 12.16 0 0 0 1.164-3.678"/><path data-name="Path 310" d="M-10596.744-3629.862s2.57 1.87 3.026 3.281.836 2.071.456 3.2-2.354 2.54-3.266 2.917-.912 1.035-.912 1.035"/><path data-name="Path 311" d="M-10595.161-3638.061a75 75 0 0 0 9.951-8.47c5.47-5.458 10.332-11.2 10.256-12.7s-2.28-5.082-3.95-6.869a13.419 13.419 0 0 0-2.659-2.353"/><path data-name="Path 312" d="M-10580.346-3669.762a65.944 65.944 0 0 1 4.862 5.916c1.9 2.729 1.747 3.576 1.747 3.576l9.268-4.329 1.9-2.447.684.659s-14.814 20.7-19.144 26.632a180.363 180.363 0 0 1-11.4 14.022l-.456.282"/><path data-name="Path 313" d="M-10556.038-3650.013a33.7 33.7 0 0 0-2.658-6.775c-1.444-2.353-1.975-3.858-3.8-2.824s-10.407 12.045-14.054 16.469c-3.162 3.834-11.8 16.51-14.048 19.815a2.467 2.467 0 0 1-1.359 1.024l-1.534.429"/><path data-name="Path 314" d="M-10584.602-3631.943s6.609-6.211 8.736-8 2.507-1.882 5.167-1.788 5.09.377 5.09.377"/><path data-name="Path 315" d="M-10581.79-3634.486s11.091-4.988 13.6-5.741 9.5-4.14 10.863-5.27 1.823-2.447 1.063-2.447"/><path data-name="Path 316" d="M-10577.917-3641.071a14.03 14.03 0 0 1 6.685-3.482c4.406-1.035 7.065-1.317 10.332-3.388s3.95-2.541 3.95-2.541-2.279-5.176-4.178-6.587l-1.9-1.412"/><path data-name="Path 317" d="M-10566.065-3640.602a64.234 64.234 0 0 1 2.126 8.47c.684 4.14.988 8.846.988 8.846l9.267.941 2.356-.659"/><path data-name="Path 318" d="M-10567.509-3640.225s2.127 8.47 2.431 12.61l.3 4.141a100.945 100.945 0 0 1-11.319 1.318c-6.3.376-11.775.847-13.219.188s-.607-2.541-.607-2.541"/><path data-name="Path 319" d="M-10596.527-3620.463s-1.063 1.317 2.279 1.788 15.117.377 20.511-.188 13.674-1.035 13.674-1.035"/><path data-name="Path 320" d="M-10588.931-3612.088s-4.406-2.353-5.09-2.541-1.291-.752-1.6.753a32.5 32.5 0 0 0-.76 7.623c.152 2.918 3.875 23.809 6.609 35.007s10.256 34.254 10.256 34.254"/><path data-name="Path 321" d="M-10602.378-3598.724s3.191 1.694 3.722 3.011.988 2.823.684 3.67 1.291 1.788 1.291 1.788"/><path data-name="Path 322" d="M-10604.328-3597.588a12.226 12.226 0 0 0 .195 3.131c.324 1.285 2.074 4.737 2.2 5.218s-1.814 7.868-3.24 18.867-3.695 36.208-3.759 38.375-.194 4.255-.194 4.255"/><path data-name="Path 323" d="M-10602.641-3584.822s1.3-1.686 1.75-1.445 1.167.883 1.944 4.174 3.824 13.247 3.176 12.846-5.185-6.744-5.185-6.744"/><path data-name="Path 324" d="M-10603.094-3582.413a114.86 114.86 0 0 1 3.694 13.086c1.426 6.744 4.6 23.523 4.731 26.895s.195 9.313-.194 9.955-2.009 1.2-4.8 1.445-9.2.08-9.2.08"/><path data-name="Path 325" d="M-10603.613-3580.329a105.926 105.926 0 0 1 3.759 19.027c.842 9.554.389 16.217-.454 17.1s-4.083 1.285-5.509 1.445a22.482 22.482 0 0 1-2.268.161"/><path data-name="Path 326" d="M-10608.021-3540.987a51.15 51.15 0 0 0 7.129-.642c1.75-.482 1.879-1.2 2.592-.4s3.435 9.554 3.435 9.554"/><path data-name="Line 12" d="m-10600.891-3541.63 5.509 8.109"/><path data-name="Path 327" d="M-10607.373-3540.827a45.544 45.544 0 0 0 3.953 5.62 54.8 54.8 0 0 0 3.759 4.175"/><path data-name="Path 328" d="M-10591.883-3562.022a23.348 23.348 0 0 1-.648 9.153c-1.361 5.138-1.426 6.1-1.3 6.824a72.22 72.22 0 0 1 1.166 8.911c.13 3.453.194 6.262.194 6.262"/><path data-name="Path 329" d="M-10621.179-3533.521c.195 0 .454-.4 1.231-.161s4.083 2.007 5.833 2.088 2.009.16 2.4-1.606 5.9-42.229 6.611-48.17.777-6.342.453-7.627-1.036-2.408-1.231-3.372-.583-.321-.195-1.606a5.011 5.011 0 0 1 1.491-2.167c.454-.4 1.134-.562 1.361.4a7.042 7.042 0 0 1-.163 3.171"/><path data-name="Path 330" d="M-10631.611-3556.884s6.546 7.306 7.453 8.029 1.167.642 1.231 1.365.194 8.349.194 8.75.778-1.043 2.009-4.737 4.407-19.509 5.9-26.975a80.492 80.492 0 0 0 1.3-15.414s4.666-6.664 5.638-7.467"/><path data-name="Path 331" d="M-10624.676-3549.498a14.162 14.162 0 0 0 2.139-2.81c.907-1.606 5.638-13.167 6.481-18.064s.583-14.291.583-14.291"/><path data-name="Path 332" d="M-10622.472-3535.448s3.823-8.109 4.537-10.2 2.592-3.533 4.277-6.182 3.111-8.991 3.565-14.21 1.361-18.465 1.685-17.1 0 13.568-.259 19.75-2.722 21.034-2.98 23.684-.26 3.372-1.426 5.058-.972 1.686-.778 2.167"/><path data-name="Path 333" d="M-10632.195-3555.84s3.3 3.372 4.407 6.422 2.268 5.7 3.176 7.948 1.879 2.73 1.879 2.73"/><path data-name="Path 334" d="M-10596.291-3610.433s2.333-2.087 4.148-1.525 2.009.964 2.852.883 8.49-1.766 13.675-2.73 18.146-2.89 20.155-2.89 3.111.4 3.24 1.445"/><path data-name="Path 335" d="M-10555.983-3616.614a8.13 8.13 0 0 1 2.722 4.737 49.194 49.194 0 0 1 .777 8.189 5.518 5.518 0 0 0 .779 2.248"/><path data-name="Path 336" d="M-10577.885-3613.243s9.2.321 11.018 1.044 5.185 5.78 6.156 6.262a9.078 9.078 0 0 0 4.731.883h3.24"/><path data-name="Path 337" d="M-10586.114-3611.556s9.656.722 13.026.883 3.954.8 2.463.883-9.4.723-10.11.723a3.775 3.775 0 0 0-1.3.241s5.833 1.445 10.369 2.81 17.239 7.867 17.239 7.867-2.2 11.721-3.305 16.137a61.1 61.1 0 0 1-1.944 6.583s-4.342-4.576-5.638-5.861-1.815-1.846-1.815-1.846 3.046-10.838 3.564-18.465"/><path data-name="Path 338" d="M-10565.053-3603.207a126.389 126.389 0 0 1-2.333 13.006c-1.36 5.218-1.879 6.824-1.879 6.824"/><path data-name="Path 339" d="M-10588.06-3611.316a5.617 5.617 0 0 0-1.167 1.606c-.454.963-.324 3.613-.324 4.5s5.7 7.145 10.24 12.364 12.054 11.159 15.1 13.729 6.8 6.1 6.8 6.1"/><path data-name="Line 13" d="m-10563.691-3599.835 9.267 1.686"/><path data-name="Path 340" d="M-10596.291-3605.213a3.879 3.879 0 0 0 1.879 2.248 5.512 5.512 0 0 0 3.305.562 2.458 2.458 0 0 0 .972-2.649 22.722 22.722 0 0 1 .129-4.255 3.187 3.187 0 0 1 .714-1.766"/><path data-name="Path 341" d="M-10596.031-3609.875s1.037-.482 1.62.963a3.123 3.123 0 0 1-.259 3.211.93.93 0 0 1-1.707-.557"/><path data-name="Path 342" d="M-10593.308-3612.038a3.94 3.94 0 0 1 1.1 3.131c-.064 2.167-.194 4.817-.907 5.379a2.312 2.312 0 0 1-1.3.562"/><path data-name="Path 343" d="M-10568.811-3578.079s4.277 4.174 5.12 6.744.713 5.058-.13 8.59a33.8 33.8 0 0 1-1.75 5.539l.648.161s3.564-8.349 3.824-10.758-1.75-4.416-3.37-6.1-20.35-19.589-23.85-23.121-5.119-2.328-5.119-2.328c.389.321 2.333 1.365 1.361 2.81s.777 0 6.156 3.854 7.129 4.978 7.129 4.978"/><path data-name="Path 344" d="M-10593.893-3591.084a49.791 49.791 0 0 1 7.064 6.5c4.083 4.415 9.073 12.042 11.536 16.057s6.286 13.407 6.286 13.407-2.981 4.336-5.25 7.226a91.582 91.582 0 0 1-6.481 6.985"/><path data-name="Path 345" d="M-10585.013-3554.315s2.917-3.131 4.926-5.781 2.268-2.89 2.074-4.415-1.361-8.751-8.814-20.071"/><path data-name="Path 346" d="M-10584.495-3552.307s4.667-5.459 6.48-7.627 1.621-2.73 1.621-2.73l2.4-3.372a27.046 27.046 0 0 1 5.089 4.988c1.633 2.4 2.858 7.079 2.245 6.953a16.392 16.392 0 0 1-2.344-1.023l-7.388-7.547h-1.879"/><path data-name="Path 347" d="M-10594.42-3594.168s.816-1.011 2.755 0 12.144 11.378 12.144 11.378-12.654-8.976-13.266-9.355"/><path data-name="Path 348" d="M-10574.799-3680.042a48.771 48.771 0 0 1 7.29 8.834c2.694 4.515 3.038 6.609 3.038 6.609s-7.825 9.5-14.13 16.28-17.7 16.657-17.7 16.657"/><path data-name="Path 349" d="M-10557.33-3645.495a96.871 96.871 0 0 1 2.975 12.766 102.916 102.916 0 0 1 .671 10.384"/><path data-name="Path 350" d="M-10629.862-3666.31a90.882 90.882 0 0 1 6.728-8.431 20.623 20.623 0 0 1 5.845-4.254l-2.268 8.992a127.119 127.119 0 0 1 1.426 14.531c.194 6.985.389 18.064-.13 21.115a14.563 14.563 0 0 1-.777 3.452"/><path data-name="Path 351" d="M-10604.956-3689.405a16.023 16.023 0 0 1-4.061 3.2c-2.83 1.677-3.692 2.439-4.061 4.421s0 13.414.861 23.932 2.584 26.066 2.092 27.438l-.493 1.372"/><path data-name="Path 352" d="M-10603.218-3680.527a14.913 14.913 0 0 0 6.976-1.539 42.835 42.835 0 0 0 6.4-4.024"/><path data-name="Path 353" d="M-10619.555-3670.003a37.9 37.9 0 0 0-8.311 8.886"/><path data-name="Path 354" d="M-10628.728-3663.129a108.31 108.31 0 0 1 9.364-7.812"/><path data-name="Path 355" d="M-10598.798-3626.94a6.619 6.619 0 0 1 .455 2.909c-.151 1.5-1.591 1.97-1.894 1.313s.454-3.1.454-3.1"/><path data-name="Path 356" d="M-10596.007-3627.458c-.22-.078-.853-.723-.763.334a9.785 9.785 0 0 1-.045 3.781c-.4 1.223-.673 2-.135 2a4.051 4.051 0 0 0 2.558-1.89 2.958 2.958 0 0 0-1.615-4.225z"/><path data-name="Path 357" d="M-10610.863-3625.068a3.246 3.246 0 0 1 .987 2.335 3.458 3.458 0 0 1-.672 2.345"/><path data-name="Path 358" d="M-10608.395-3618.173c-.449-.611-.943-.834-.4-1.835a5.655 5.655 0 0 0 .763-3c0-1.223-.225-2.224.448-1.835a13.662 13.662 0 0 1 1.751 1.39"/><path data-name="Path 359" d="M-10612.136-3604.853a6.472 6.472 0 0 1 .26 2.328c-.1 1.285-1.1 2.89-2.3 1.486"/><path data-name="Path 360" d="M-10609.186-3604.815s-.973-1.044-1.167.281a24.272 24.272 0 0 0-.227 3.653c0 1.165.325 1.646.778 1.606l.454-.041"/><path data-name="Path 361" d="M-10598.915-3594.978c-.518-.522-.842-1.164-1.231-.8s-.648.362-.487 1.165.324.883.1 1.686-.843 1.806-.26 1.927 2.268-1.325 2.268-1.325"/><path data-name="Path 362" d="M-10550.942-3604.243c-2.826 45.454-26.8 80.232-53.556 77.68s-46.149-41.469-43.324-86.922 26.8-80.233 53.556-77.68 46.15 41.468 43.324 86.922z"/><ellipse data-name="Ellipse 14" cx="84.932" cy="49.968" rx="84.932" ry="49.968" transform="rotate(-87.445 -7169.049 3806.54)"/><path data-name="Path 363" d="M-10542.326-3601.904c-4.561 56.241-34.667 98.547-67.242 94.492s-55.286-52.933-50.725-109.174 34.667-98.546 67.243-94.492 55.283 52.933 50.724 109.174z"/><path data-name="Path 364" d="M-10604.773-3505.59c31.436-1.49 59.236-42.958 63.622-97.036 4.093-50.472-13.649-94.855-40.792-108.432-7.932-3.967-22.328-9.794-55.234-6.367"/><path data-name="Path 365" d="M-10542.326-3601.904c-4.561 56.241-34.667 98.547-67.242 94.492s-55.286-52.933-50.725-109.174 34.667-98.546 67.243-94.492 55.283 52.933 50.724 109.174z"/><path data-name="Path 366" d="M-11651.033-3498.326s24.408 19.867 49.951 26.111 55.628 3.973 70.386-1.135 17.028-8.514 17.028-8.514"/><path data-name="Path 367" d="M-11000.549-3899.199s16.132-13.719 28.645-19.9 17.489-6.935 21.258-7.84a221.8 221.8 0 0 1 26.987-4.07c11.91-1.056 42.365-2.262 42.365-2.262l-1.207-3.316s-34.676.6-52.617 3.316-32.039 7.075-42.817 12.664c-12.212 6.332-28.72 20.127-42.214 33.621-6.935 6.935-66.487 77.191-66.487 77.191l6.036-.055s28.461-33.832 38.128-44.84 37.322-44.034 56.923-55.312 32.758-16.377 53.97-18.528 37.323-2.953 37.323-2.953"/><path data-name="Path 368" d="M-10893.508-3931.764a411.5 411.5 0 0 1 16.082 61.713c5.693 32.79 6.231 47.642 6.231 47.642"/><path data-name="Path 369" d="M-10869.39-3822.61s-3.487-36.771-8.845-61.311a428.28 428.28 0 0 0-13.669-47.642l11.471-.553s6.5 14.225 12.4 32.163c5.729 17.427 8.837 33.938 11.458 48.847s4.487 27.454 4.487 27.454"/><path data-name="Path 370" d="M-11050.008-3844.787s1.8 1.8 2.294 6.226 2.13 27.2 2.13 27.2l-34.571 2.786a18.35 18.35 0 0 1 8.028-2.458c4.752-.328 24.9-1.966 24.9-1.966"/><path data-name="Path 371" d="M-11046.603-3824.616a37.126 37.126 0 0 0-6.495.493c-1.644.493-3.288.74-3.37 1.726-.037.441.164.658 3.781.9a42.874 42.874 0 0 0 6.248 0"/><path data-name="Line 14" d="m-11088.294-3805.122 54.828-3.92"/><path data-name="Line 15" d="m-11029.899-3812.459-15.383 1.097"/><path data-name="Path 372" d="M-11088.294-3803.615c.6-.151 53.169-3.769 53.169-3.769"/><path data-name="Path 373" d="M-11086.937-3802.71s-1.658 3.618-.3 12.061 4.372 24.273 5.277 30.756a569.241 569.241 0 0 1 4.221 58.044c.453 25.931 1.809 55.029 2.563 67.09s1.959 34.676 2.713 44.023 1.357 23.218 1.507 30.907-.151 12.815-.151 12.815 12.514-4.674 18.7-6.784 18.694-7.086 37.992-9.348 90.308-11.458 103.876-13.117 72.819-9.046 73.423-9.347 1.357-5.427 1.959-10.855l.6-5.428s-45.079 5.428-73.874 9.348-101.162 12.664-111.565 14.172-12.664 2.262-13.87-.6 2.865-6.784 6.03-9.2 20.354-16.283 29.55-20.051 51.411-12.664 60-14.473 68.9-14.323 85.031-17.639 20.354-3.92 20.354-3.92l1.055-2.714s.453-42.968 1.81-68.749 2.865-43.722 2.11-51.41-4.372-27.439-7.688-33.922-5.428-7.689-7.839-10.855a55.141 55.141 0 0 1-4.674-7.84s-67.693 4.071-81.413 5.126-74.025 5.126-74.025 5.126"/><path data-name="Path 374" d="M-11033.417-3786.93c-3.274-2.865-4.624-4.925-5.427-7.136s-2.915-7.035-1.809-8.141 10.754-10.051 12.162-12.061a19.9 19.9 0 0 0 2.814-6.031c.4-1.608.2-1.709.6-2.01s18.092-.6 20.1-.7 1.809 0 1.507.4-.2 1.307 1.608 3.618 5.126 5.93 5.126 5.93a15.889 15.889 0 0 0-2.613.9c-1.005.5-6.734 2.814-7.84 6.835s.9 12.966.9 14.674-.6 3.518-2.714 4.121-14.373 1.407-17.288 1.507-4.714.205-7.126-1.906z"/><path data-name="Path 375" d="M-11032.713-3787.437s11.558-18.393 12.865-20.3 1.608-8.041-1-10.855-3.116-3.015-3.116-3.015"/><path data-name="Path 376" d="M-11025.077-3822.309s-.8-.3-1.407-2.211-1.91-11.056-2.312-13.569-.8-4.02.6-5.83 13.569-14.574 20.6-16.584 10.252-3.217 21.107-2.613 22.012 2.412 30.253 5.528 17.187 9.247 18.293 10.754 0 1.608-1.81 2.01a61.91 61.91 0 0 1-12.061 1.91c-6.533.4-39.9 2.211-48.646 2.412s-23.72.8-25.831.6-2.412-.9-1.709-2.211 4.824-6.332 10.352-11.157 8.945-7.036 15.077-7.739 25.127.2 34.072 1.809 17.891 5.729 21.811 7.739 5.327 2.915 4.121 3.618-4.523 1.608-10.051 2.312-31.56 2.111-41.511 2.613-29.952 1-32.665 1.105"/><path data-name="Path 377" d="M-10938.836-3844.723s-.4 12.865-1.106 16.182"/><path data-name="Path 378" d="M-10938.737-3827.737a71.438 71.438 0 0 1-10.955 2.211c-7.638 1.106-52.868 2.312-52.868 2.312s51.26-4.724 53.371-4.925 5.829 0 7.337 0 2.513-.1 3.116.4 1.106.8-.1 2.412-9.448 6.231-16.684 9.146-30.857 3.116-34.375 3.317a43.7 43.7 0 0 1-6.834-.2"/><path data-name="Path 379" d="M-10988.991-3840.904c.9.4.3 2.211 6.332 2.814s43.521-2.614 43.521-2.614"/><path data-name="Path 380" d="M-11175.111-3735.67s31.892-11.39 58.252-17.247 99.58-18.224 123.987-23.105 94.371-16.272 111.621-18.88 167.269-13.343 167.269-13.343"/><path data-name="Path 381" d="M-10926.159-3750.639s126.266-17.573 149.371-20.177 125.289-12.366 125.289-12.366"/><path data-name="Path 382" d="M-11023.404-3586.536s10.291-6.771 17.874-10.833 24.374-8.4 48.747-13.27 123.494-22.207 123.494-22.207l.813-8.125s-141.635 27.895-153.013 31.686-19.499 8.666-37.915 22.749z"/><path data-name="Path 383" d="m-10834.559-3601.892 1.27-5.768s-187.136 24.916-193.094 25.728-7.486 2.956-7.486 2.956"/><path data-name="Path 384" d="M-10833.289-3632.847s-1.407 13.77 0 25.186"/><path data-name="Path 385" d="M-11432.931-3820.068c2.022-1.348 65.022-48.177 109.493-71.76s66.033-33.354 66.033-33.354 21.9-5.968 73.445-8.759c60.131-3.257 175.934 3.505 175.934 3.505"/><path data-name="Path 386" d="M-11439.67-3819.732s63.337-43.123 81.193-54.242 41.776-25.266 62.327-35.037 37.893-17.024 37.893-17.024l-3.417-.4"/><path data-name="Path 387" d="M-11257.405-3925.182s18.547-6.482 29-9.3 40.505-9.247 40.505-9.247"/><path data-name="Line 16" d="m-11269.01-3917.491 18.487-9.28"/><path data-name="Path 388" d="m-10880.839-3936.74 1.507 3.618s28.193-.6 69.653 4.975a482.717 482.717 0 0 1 76.136 16.886l-4.824-5.277a514.106 514.106 0 0 0-64.979-14.322 605.609 605.609 0 0 0-77.493-5.88z"/><path data-name="Path 389" d="M-10850.993-3823.968s-3.777-30.035-9.5-53.22c-8.594-34.827-18.544-54.879-18.544-54.879h12.218s9.2 17.941 20.5 55.029 12.966 52.315 12.966 52.315"/><path data-name="Path 390" d="M-10951.365-3817.995s52.371-3.354 66.818-4.128 34.36-1.6 34.36-1.6l1.005 2.512s-69.05 4.523-82.016 5.227-37.189 2.111-37.189 2.111"/><path data-name="Path 391" d="m-10848.982-3824.018 1.507 2.915s49.149-3.217 64.226-4.021 44.827-4.221 55.481-6.031 35.078-10.051 42.717-12.463 13.971-4.624 13.971-4.624l-4.322-1.909s-8.945 3.618-18.293 6.433-23.921 7.639-36.686 10.051-42.013 5.025-57.19 5.829-61.411 3.82-61.411 3.82z"/><path data-name="Path 392" d="M-10846.804-3819.792s1.125 1.876 3 4.877 4 5 6.251 7.752 4 5.127 7 17.13a112.851 112.851 0 0 1 3.751 24.132c.5 7.127-1.375 36.385-2 47.513s-2.25 71.27-2.25 71.27l-1 3s33.009-7.627 50.764-9.128 35.635 5.877 43.888 9.5 24.382 13.129 27.383 15.129 2.876 5.5 1.25 8.127-7.127 2.751-15.255 3.5-41.261 5.626-63.017 8.377-46.638 6.127-46.638 6.127-1.375 14.5-2 15.879l-.625 1.376s16.255-1.875 27.257-3.626 43.637-6 69.019-6.5 51.515-.5 51.515-.5 1.875-9.753 3.126-19.13 3.751-33.134 9.5-53.265 16.058-46.719 28.32-60.086 16.182-14.775 17.287-16.785 3.015-12.564 2.915-16.082a203.5 203.5 0 0 0-4.423-33.168c-3.216-13.77-6.131-23.519-12.664-32.063s-19.2-18.8-24.524-21.006c0 0-8.845 3.216-21.509 6.935s-24.625 8.744-36.987 10.553-45.43 5.126-69.151 6.734-50.183 3.428-50.183 3.428z"/><path data-name="Path 393" d="M-10830.407-3641.543a47.177 47.177 0 0 0-.7 8.516s43.165-6.883 61.831-5.366 43.981 10.616 46.431 10.966 6.066 2.1 3.383-.117-12.132-7.583-21.466-11.783-20.532-9.216-35.465-9.333-54.014 7.117-54.014 7.117z"/><path data-name="Path 394" d="M-10832.391-3603.039s1.167-4.783 1.283-5.133c0 0 103.362-13.066 110.129-14.7s6.533-1.517 7-2.333l.467-.817 5.25-.116"/><path data-name="Path 395" d="M-10831.108-3633.026s-1.756 13.859 0 24.849"/><path data-name="Path 396" d="M-11068.303-3546.286s-1.976 21.457-3.106 25.409l-1.129 3.952s14.681-5.082 18.633-5.929 78.2-10.446 97.4-12.422 108.129-12.983 108.129-12.983 3.388-4.517 4.517-5.082 7.058-1.412 7.058-1.412a86.929 86.929 0 0 0 5.364-17.5c1.412-8.47 1.13-11.011 1.13-11.011s-177.579 23.15-191.7 25.126-46.296 11.852-46.296 11.852z"/><path data-name="Path 397" d="M-10823.571-3555.456s50.416-6.787 73.524-7.11 51.869.485 51.869.485 2.1-2.424 4.686-9.049 5.656-23.43 5.656-23.43-47.185 1.454-67.222 2.424-73.523 8.564-73.523 8.564-.646 10.342-2.262 16.482a111.4 111.4 0 0 1-4.686 13.25 56.476 56.476 0 0 0-6.948 1.131c-2.262.646-3.878 4.363-3.878 4.363l114.728-14.058"/><path data-name="Path 398" d="M-10686.051-3596.264s6.835-57.29 19.5-91.866 31.56-49.652 43.822-57.29 38.419-14.126 58.521-.054"/><path data-name="Path 399" d="M-10671.11-3707.189s11.5-25.724 28.994-42c19.674-18.294 40.554-24.366 66.689-16.5s45.471 42.071 45.471 42.071"/><path data-name="Path 400" d="M-10866.271-3930.934s69.976.89 116.27 14.957"/><path data-name="Path 401" d="M-10737.543-3912.481s20.133 19.682 35.007 37.562 20.884 26.894 20.884 26.894"/><path data-name="Path 402" d="M-10731.533-3910.678s15.626 4.207 47.329 17.579 59.347 29 62.652 30.2 3.906.9 6.01 1.352 3.606 0 1.652-1.2a644.412 644.412 0 0 0-64.606-31.7c-31.852-13.221-58.3-21.635-58.3-21.635s15.626 15.17 35.763 38.61 22.086 26.894 22.086 26.894 4.057-3.906 27.5-3.155 59.5 5.559 59.5 5.559-.3-1.953-3.005-3.606-18.029-9.465-18.029-9.465"/><path data-name="Path 403" d="M-10721.014-3907.373s-3.756-.9-3.456.6 2.4 4.207 4.958 7.062 21.485 23.889 29.147 33.2 10.668 11.869 11.87 13.071 5.259.751 5.259.751"/><path data-name="Path 404" d="m-10742.296-3913.979 20.449 20.821s11.47 36.147 12.745 42.288 2.548 10.774 2.548 10.774"/><path data-name="Path 405" d="M-10704.236-3840.791s-9.964-35.22-11.47-39.97-4.933-14.369-4.933-14.369"/><path data-name="Path 406" d="M-10718.298-3892.672s3.982 12.259 6.878 21.064 8.573 30.586 8.573 30.586"/><path data-name="Path 407" d="M-10716.477-3881.814c-.29-.435-25.107-28.59-32.363-31.348s-25.833-8.563-60.083-13.933"/><path data-name="Path 408" d="M-10541.602-3590.832c1.772.148 2.509.3 3.1-.591s6.2-17.865 7.678-30.857a100.493 100.493 0 0 0 12.7-5.168c7.382-3.543 13.14-8.858 13.878-10.335l.738-1.476s1.033.738.3 3.691-2.658 8.415-2.658 11.958-1.772 7.235-3.544 10.483-19.341 16.093-29.085 22"/><path data-name="Path 409" d="M-10507.497-3616.817s-2.067 2.658-14.173 10.63"/><path data-name="Path 410" d="M-10524.292-3625.727a65.347 65.347 0 0 0 13.076-6.739c5.332-3.857 7.129-4.847 7.7-6.791 0 0 5.91-24.748 6.477-30.08s.568-10.892 1.475-17.585 2.95-17.472 2.383-23.371-12.966-47.789-16.987-58.643-11.86-30.555-12.664-32.364-1.206-14.071-4.021-19.1-10.252-8.041-18.9-11.86a165.143 165.143 0 0 0-45.028-12.664 456.246 456.246 0 0 0-54.074-4.221c-14.876-.2-22.916 1.408-22.916 1.408s10.854 6.231 18.092 14.071 11.659 12.664 17.489 35.178 6.031 37.189 6.031 37.189l-2.349 14.934a.382.382 0 0 0 .56.4c3.481-1.906 19.666-10.266 34.406-9.507a59.045 59.045 0 0 1 36.851 15.94c7.541 7.027 23.309 22.281 29.823 53.475s2.571 60.331 2.571 60.331l-6.342 1.885s1.371-48.505-8.912-71.643-27.252-40.107-46.106-42.506-36.678 4.113-52.961 21.939-27.424 54.675-30.338 68.215-5.656 46.277-9.083 58.275-8.741 26.909-8.741 26.909l-9.941.171"/><path data-name="Path 411" d="M-10616.313-3847.709s-15.287-1.741-30.476-2.225-22.059 1.548-22.059 1.548l-5.031-2.129c.871-.1 6.483-1.741 18.963-1.741s38.313 2.415 43.15 2.9c12.481 1.257 31.665 4.44 31.665 4.44"/><path data-name="Path 412" d="M-10596.583-3815.425c2.656 6.492 8 19.909 9.441 23.6s4.515 9.03 9.236 9.441 14.983-.205 17.856-.411 5.336-3.694 4.72-8.62-7.594-21.14-10.261-26.066-6.363-8.21-10.878-8.825-13.745-.429-17.24-.411-6.567 2.261-2.874 11.292z"/><path data-name="Path 413" d="M-10535.141-3827.281c7.689 3.769 18.142 10.1 21.66 12.313s6.232 5.729 6.031 6.734-1.709 1.307-3.619 1.709-5.729.8-5.93 1.708a8.713 8.713 0 0 0 .6 5.327c1 1.709 3.216 6.533 4.322 8.945s2.915 5.428 2.413 5.729-5.83 1.307-5.83 1.307"/><path data-name="Path 414" d="M-10516.999-3804.821s5.679-1.055 6.96-1.357 2.79-.829 2.79-.829a4.91 4.91 0 0 1 .452 1.96c0 1.056-.452 2.563-.076 3.166s1.282.678 2.639 1.055 1.884 1.206 2.186 2.714.679 3.241.15 3.618-1.884.6-1.734 1.658 1.507 3.317 1.734 4.975.3 5.352.3 5.352a29.811 29.811 0 0 1-3.694.3 7.957 7.957 0 0 1-4.372-2.613"/><path data-name="Line 17" d="m-10515.276-3782.738 6.358-1.385"/><path data-name="Path 415" d="M-10506.873-3801.881c.032.572-.409.761-1.668 1.139s-5.1 1.259-5.476 1.385-.693.5-.315 1.259 2.077 5.351 2.707 5.728 2.455.252 3.525.189 4.468-.654 4.468-.654"/><path data-name="Path 416" d="M-10512.255-3793.188a36.066 36.066 0 0 0 10.357-1.305"/><path data-name="Path 417" d="M-10512.885-3794.698s5.288-.441 7.617-.819a23.261 23.261 0 0 0 3.588-.818"/><path data-name="Path 418" d="M-10503.505-3792.118s-4.155.693-5.288.819-1.826.251-1.637.818 1.385 3.525 2.2 4.155a6.044 6.044 0 0 0 3.4 1.008 29.262 29.262 0 0 0 3.021-.063"/><path data-name="Path 419" d="m-10515.717-3788.088 3.777-.378s-.062.881-.566 1.2a1.976 1.976 0 0 1-1.888.378 3.534 3.534 0 0 1-1.323-1.2z"/><path data-name="Path 420" d="m-10519.872-3796.965 3.9-.189a2.268 2.268 0 0 1-1.071 1.259c-.755.315-.944.126-1.7-.063a1.961 1.961 0 0 1-1.129-1.007z"/><path data-name="Path 421" d="M-10501.596-3782.507s.8 10.52 1.386 17.241 2.533 24.063 3.118 27.96 2.533 20.848 2.533 20.848"/><path data-name="Path 422" d="M-11540.111-3610.533s35.847-14.5 47.887-18.334 15.6-4.926 13.135-7.388-15.05-10.4-15.05-10.4"/><path data-name="Path 423" d="M-11486.111-3657.673c-.9.5-1.709 1.206-1 1.508s16.685 1.809 18.9 1.909a10.522 10.522 0 0 0 5.93-.9c2.412-1.106 6.835-3.417 7.739-3.92s.6-1.608-1.307-1.81-18.293-.7-20.1-.6a7.583 7.583 0 0 0-3.518.9c-1.418.6-6.468 2.813-6.644 2.913z"/><path data-name="Path 424" d="M-11089.099-3853.794s-23.626 18.9-30.714 24.02-15.357 4.725-40.951 4.725-169.318-5.513-201.213-5.119c0 0-47.891.957-49.81.957s-6.467.113.125-5.821c0 0 72.39-45.675 91.134-55.8s51.517-26.659 51.517-26.659 27.137-5.628 46.837-6.835 35.379-2.412 34.374-1-29.55 18.695-30.555 19.5-1.608 2.211 1.809 2.01 26.937 0 30.354-.4 5.628 0 11.86-3.417 23.519-12.865 28.746-16.081 9.649-2.814 19.1-3.015 74.779 2.814 83.423 3.216 13.468 2.412 12.463 5.83-6.925 10.9-6.925 10.9"/><path data-name="Path 425" d="M-11107.767-3808.4s62.133-72.1 78.082-88.382 42.2-36.549 62.8-41.865"/><path data-name="Path 426" d="M-10604.774-3505.596c-9.438.686-34.171-1.066-46.024-3.041-12.34-2.056-22.483-6.259-30.71-14.485-7.206-7.207-19.083-23.949-22.854-39.374"/><path data-name="Path 427" d="M-10875.516-3770.547c-1.711-.285-5.628-.2-8.041-.6s-8.041-2.613-8.543-7.438 2.211-6.533 5.226-7.538 5.528-1.005 6.734-2.111.5-3.819 3.619-5.327 9.95-2.111 13.669-1.407 3.618 2.311 5.126 3.216 2.613 1.206 6.031 1.005 8.643-.8 10.754.5 5.026 3.015 5.829 6.835-.7 7.438-2.312 8.342-9.85 1.81-11.86 2.312-1.407.8-2.312 2.01-2.613 4.724-8.945 5.226-7.94-.6-10.252-2.211-2.311-2.412-4.723-2.814z"/><path data-name="Path 428" d="M-10890.718-3778.206c.3 1.357 1.734 3.392 4.975 4.071s10.93 1.884 11.156 1.809 3.392-4 8.594-4.6 15.076-1.281 15.755-1.206.527.452.151 1.206a2.917 2.917 0 0 0-.377 1.131s11.006-1.583 11.835-1.885 2.789-3.769 3.015-4.674a4.546 4.546 0 0 0-1.131-4.523c-1.658-1.583-1.734-1.508-4.975-1.734s-16.434.829-21.032 1.282-15.679 2.337-18.77 2.864-7.463 2.035-8.593 3.166a3.534 3.534 0 0 0-.603 3.093z"/><path data-name="Path 429" d="M-10835.837-3781.603s-8.292.528-18.243 1.131-25.1 2.186-27.062 2.261-2.88-.229-2.789-1.583c.075-1.13 1.055-1.507 2.261-1.884a204.4 204.4 0 0 1 22.388-4.448c8.368-.98 16.815-1.975 18.845-2.111 1.131-.075 3.015.377 3.694 1.357"/><path data-name="Line 18" d="m-10890.719-3778.211 6.784-1.583"/><path data-name="Path 430" d="M-10883.042-3779.795s-.37.8 2.343.74 13.811-1.418 20.346-1.788 24.74-1.515 24.74-1.515"/><path data-name="Path 431" d="M-10840.253-3785.404c.123.678.184 2.651 1.788 2.651s1.541-1.356 1.418-2.22a2.471 2.471 0 0 0-2.034-2.158c-1.234-.122-1.172 1.727-1.172 1.727z"/><path data-name="Path 432" d="M-10888.899-3782.383a23.731 23.731 0 0 1 5.919-2.4c2.713-.617 3.329-.247 3.453-1.48s.062-3.514.864-5.3"/><path data-name="Path 433" d="M-10890.009-3774.367a14.286 14.286 0 0 0 6.35 1.912c2.836.123 7.707-.309 9.125.678s1.11 2.22 2.959 3.391"/><path data-name="Path 434" d="M-10853.633-3777.821s-.678.431.123 1.542 1.172 2.528 2.713 2.158 10.05-1.726 10.974-1.85 1.356-.37 2.528-2.59.863-2.4.863-2.4"/><path data-name="Path 435" d="M-10866.553-3795.253c.943-.05 3.236.66 5.434 3.872s3.436 3.55 4.676 3.493"/><path data-name="Path 436" d="M-10649.111-3802.19s.827 4.66.5 5.741a3.43 3.43 0 0 1-2.378 2.486c-1.405.432-8.107 1.4-9.944 1.837s-.649.324-1.513 1.73-2.595 4.108-7.459 4.324-9.3-2.919-10.809-4.108-4.972-.54-7.783-.864-6.493-3.5-7.675-6.486c-.989-2.5-1.145-4.537 2.065-5.633s6.265-.783 6.813-2.584-.078-4.7 7.126-5.325 8.144 1.488 9.789 2.584 1.488 1.566 3.132 1.41 9.319-1.645 10.885-1.175a15.85 15.85 0 0 1 3.289 1.566"/><path data-name="Path 437" d="M-10661.528-3806.375s-6.891 1.175-10.807 1.8-15.036 3.289-16.132 3.915-1.1 1.645 0 2.349 5.717 0 11.355-.548 24.825-1.645 26.234-1.723 1.331.7 1.331.7.548-2.584.627-3.6-1.958-2.272-2.819-2.9-1.724-.313-4.073-.313-12.216.627-20.673 1.332a60.215 60.215 0 0 0-16.368 3.6c-1.8.7-3.462 2.856-2.662 4.62a6.248 6.248 0 0 0 4.7 4.278 43.054 43.054 0 0 0 8.931.818s2.931-3.409 5.863-4.09 12.885-1.568 14.18-1.637 1.227.068 1.091 1.159-1.637 2.8-.477 2.727 8.794-1.432 9-1.568a3.532 3.532 0 0 0 1.7-1.909c.614-1.432 1.022-2.727 1.022-2.727"/><path data-name="Line 19" d="m-10661.613-3793.947-3.499-3.46"/><path data-name="Path 438" d="M-10680.578-3811.003c1.709-.151 4.875 3.015 5.578 3.769a19.915 19.915 0 0 0 1.859 1.658"/><path data-name="Path 439" d="M-10666.154-3797.379a23.621 23.621 0 0 1 2.915 3.467 3.778 3.778 0 0 1 .3 3.417 13.781 13.781 0 0 1-2.01 2.915"/><path data-name="Path 440" d="M-10681.883-3792.037c1 .233 2.159 2.444 3.114 3.2"/><path data-name="Path 441" d="M-10687.364-3803.564s.15-1.709.452-3.87"/></g><g data-name="Group 88" opacity=".2"><g data-name="Group 85"><text data-name="1" transform="translate(362.63 112.25)" fill="#f5e9dd" font-size="33" font-family="Helvetica"><tspan x="-9.177" y="0">1</tspan></text><g data-name="Ellipse 15" transform="translate(346.63 86.25)" fill="none" stroke="#f5e9dd"><circle cx="16" cy="16" r="16" stroke="none"/><circle cx="16" cy="16" r="15.5"/></g><g data-name="Ellipse 16" transform="translate(343.63 83.25)" fill="none" stroke="#f5e9dd" stroke-width=".5"><circle cx="19" cy="19" r="19" stroke="none"/><circle cx="19" cy="19" r="18.75"/></g></g><path data-name="Line 22" fill="none" stroke="#f5e9dd" stroke-width=".5" d="M346.13 121.75h174"/></g><g data-name="Group 90" opacity=".2"><g data-name="Group 85"><text data-name="4" transform="translate(926.63 284.631)" fill="#f5e9dd" font-size="33" font-family="Helvetica"><tspan x="-9.177" y="0">4</tspan></text><g data-name="Ellipse 15" transform="translate(910.63 258.631)" fill="none" stroke="#f5e9dd"><circle cx="16" cy="16" r="16" stroke="none"/><circle cx="16" cy="16" r="15.5"/></g><g data-name="Ellipse 16" transform="translate(907.63 255.631)" fill="none" stroke="#f5e9dd" stroke-width=".5"><circle cx="19" cy="19" r="19" stroke="none"/><circle cx="19" cy="19" r="18.75"/></g></g><path data-name="Line 22" fill="none" stroke="#f5e9dd" stroke-width=".5" d="M779.13 294.131h174"/></g><g data-name="Group 91" opacity=".2"><g data-name="Group 85"><text data-name="5" transform="translate(1161.13 29)" fill="#f5e9dd" font-size="33" font-family="Helvetica"><tspan x="-9.177" y="0">5</tspan></text><g data-name="Ellipse 15" transform="translate(1145.13 3)" fill="none" stroke="#f5e9dd"><circle cx="16" cy="16" r="16" stroke="none"/><circle cx="16" cy="16" r="15.5"/></g><g data-name="Ellipse 16" transform="translate(1142.13)" fill="none" stroke="#f5e9dd" stroke-width=".5"><circle cx="19" cy="19" r="19" stroke="none"/><circle cx="19" cy="19" r="18.75"/></g></g><path data-name="Line 22" fill="none" stroke="#f5e9dd" stroke-width=".5" d="M1013.63 38.5h174"/></g><g data-name="Group 87" opacity=".2"><g data-name="Group 86"><text data-name="2" transform="translate(98.63 183.25)" fill="#f5e9dd" font-size="33" font-family="Helvetica"><tspan x="-9.177" y="0">2</tspan></text><g data-name="Ellipse 15" transform="translate(82.63 157.25)" fill="none" stroke="#f5e9dd"><circle cx="16" cy="16" r="16" stroke="none"/><circle cx="16" cy="16" r="15.5"/></g><g data-name="Ellipse 16" transform="translate(79.63 154.25)" fill="none" stroke="#f5e9dd" stroke-width=".5"><circle cx="19" cy="19" r="19" stroke="none"/><circle cx="19" cy="19" r="18.75"/></g></g><path data-name="Line 23" fill="none" stroke="#f5e9dd" stroke-width=".5" d="M82.13 192.75h174"/></g><g data-name="Group 89" opacity=".2"><g data-name="Group 86"><text data-name="3" transform="translate(299.63 384.25)" fill="#f5e9dd" font-size="33" font-family="Helvetica"><tspan x="-9.177" y="0">3</tspan></text><g data-name="Ellipse 15" transform="translate(283.63 358.25)" fill="none" stroke="#f5e9dd"><circle cx="16" cy="16" r="16" stroke="none"/><circle cx="16" cy="16" r="15.5"/></g><g data-name="Ellipse 16" transform="translate(280.63 355.25)" fill="none" stroke="#f5e9dd" stroke-width=".5"><circle cx="19" cy="19" r="19" stroke="none"/><circle cx="19" cy="19" r="18.75"/></g></g><path data-name="Line 23" fill="none" stroke="#f5e9dd" stroke-width=".5" d="M283.13 393.75h174"/></g></g></g></svg>