<svg xmlns="http://www.w3.org/2000/svg" width="139.646" height="34.001"><path data-name="Path 3991" d="M3.12 1.452A12.068 12.068 0 0 1 6.168 6.49c3.01 2.24 5.775-3.64-2.73-5.285zM.775 9.432a10.513 10.513 0 0 1 3.045 4.69c3.01 1.995 5.46-3.85-2.73-4.935zm30.938 10.219c.49 0 .84-.175.945-.56-1.33-1.26-3.57-3.01-3.57-3.01l-1.89 2.555h-5.46V15.49c.875-.1 1.12-.455 1.225-.91l-4.48-.455v4.515H9.349l.28 1.015h7.1a30.208 30.208 0 0 1-8.785 11.9l.385.49a29.063 29.063 0 0 0 10.149-8.575v9.869h.63c1.19 0 2.625-.63 2.625-.98V20.596a23.023 23.023 0 0 0 8.26 11.234 3.717 3.717 0 0 1 2.8-2.975l.07-.385a23.176 23.176 0 0 1-10.744-8.819zM16.068 5.337c-.1 4.025-.14 7.525-5.81 10.254l.42.525c7.665-2.345 8.155-5.88 8.47-9.554.735-.1 1.015-.455 1.085-.84zm6.86.175v6.44c0 1.785.315 2.415 2.695 2.415h2.17c3.675 0 4.76-.42 4.76-1.54 0-.56-.28-.8-1.085-1.12l-.14-.035h-.315a2.726 2.726 0 0 1-.735.14 3.139 3.139 0 0 1-.63.07l-3.15.385c-.665 0-.735-.1-.735-.525v-5.04c.595-.1.945-.385.98-.8zm7.28-3.99-1.82 1.82-14.874.39a18.124 18.124 0 0 0-.455-2.03h-.525c-.14 2.94-1.05 4.62-2.345 5.425a2.115 2.115 0 0 0-.521 1.185l-.455-.07c-4.795 12.879-4.795 12.879-5.425 14.1-.315.735-.49.735-.91.735h-1.51v.735a3.114 3.114 0 0 1 1.715.525c.77.525.91 3.675.35 7.245.175 1.225.84 1.785 1.54 1.785a2.507 2.507 0 0 0 2.485-2.695c.14-3.045-1.12-4.515-1.19-6.23a17.66 17.66 0 0 1 .35-3.115c.35-1.61 2.135-8.715 3.115-12.739.7 1.645 4.445 1.33 3.92-4.235h14.915c-.28 1.26-.63 2.9-.84 3.85l.385.21c1.12-.875 2.94-2.45 3.955-3.43.7-.035 1.085-.1 1.295-.385zm12.319 5.04 24.849 3.076c.49 0 .8-.175.91-.56a46.368 46.368 0 0 0-3.57-3.045l-1.925 2.59h-8.574c2.31-.315 2.87-4.725-4.235-5.04L49.668.717a11.319 11.319 0 0 1 3.08 4.48 2.377 2.377 0 0 0 .98.35H43.052l-3.85-1.5v10.46c0 6.3-.28 13.124-3.535 18.549l.455.315c6.02-5.18 6.4-12.914 6.4-18.864zm8.365 10.149-.005-4.374h6.4v4.375zm7 2.345c1.19 0 2.59-.56 2.59-.84v-5.88h6.02c.49 0 .84-.175.91-.56-1.12-1.225-3.115-2.94-3.115-2.94l-1.68 2.485-2.136.001v-2.52c.875-.14 1.12-.455 1.19-.91l-4.375-.42v3.85h-6.4v-2.52c.84-.14 1.12-.455 1.19-.91l-4.375-.42v3.85h-4.62l.28 1.015h4.34v7.245h.595c1.155 0 2.59-.525 2.59-.8v-1.05h6.4v1.33zm.91 2.66a19.159 19.159 0 0 1-4.585 4.97 14.643 14.643 0 0 1-5.88-4.97zm2.17-2.8-2.065 1.785-14.28.006.315 1.015h2.555a16.446 16.446 0 0 0 4.725 6.3 38.113 38.113 0 0 1-12.7 4.725l.21.525a41.75 41.75 0 0 0 14.454-3.815c3.15 1.96 7.1 3.115 11.794 3.815a3.75 3.75 0 0 1 2.66-3.115v-.42a46 46 0 0 1-11.619-1.96 21.046 21.046 0 0 0 5.53-5.46c.875-.035 1.26-.14 1.54-.49zM98.279 1.907l-2.135 1.995H73.256l.312 1.015h22.086a63.2 63.2 0 0 1-7.174 6.473l-3.112-.313v17.569c0 .525-.245.77-.945.77-.98 0-6.3-.35-6.3-.35v.524c2.31.315 3.43.7 4.165 1.26a3.458 3.458 0 0 1 1.155 2.415c4.725-.42 5.39-1.89 5.39-4.41V12.442c.8-.1 1.155-.42 1.225-.91l-.28-.035a79.571 79.571 0 0 0 10.464-6.02 2.574 2.574 0 0 0 1.575-.42zm17.394 19.883v-5h2.275v5zm-4.585-5h2.135v5h-2.31c.14-1.68.175-3.29.175-4.725zm4.27-11.164a33.532 33.532 0 0 1-1.75 4.375h-2.03l-1.71-.711a28.118 28.118 0 0 0 2.485-3.675zm-4.27 5.39h2.135v4.76l-2.135-.011zm6.86 0v4.76h-2.275v-4.76zm1.05-2.73-1.4 1.715h-3.01a41.261 41.261 0 0 0 3.885-4.025c.7-.035 1.12-.1 1.365-.385l-2.9-2.625-1.65 1.636h-2.38c.28-.595.56-1.19.84-1.82a1.2 1.2 0 0 0 1.33-.735L110.914.752a34.58 34.58 0 0 1-5.146 11.725l.455.315a19.3 19.3 0 0 0 2.065-1.785v6.055c0 5.215-.1 11.059-2.52 15.784l.455.35c2.975-2.9 4.13-6.755 4.585-10.394h7.14v6.4c0 .525-.14.735-.735.735-.7 0-3.955-.245-3.955-.245v.525a5.088 5.088 0 0 1 2.8 1.05 3.054 3.054 0 0 1 .735 1.96c3.535-.315 3.99-1.575 3.99-3.675V11.567a2.733 2.733 0 0 0 1.5-.77zm14.909-3.71c-.175 3.535-.455 5.355-.91 5.74-.21.21-.42.245-.945.245s-2.1-.1-3.045-.175v.525a4.474 4.474 0 0 1 2.24.945 2.83 2.83 0 0 1 .525 1.995 5.575 5.575 0 0 0 3.255-.875c1.26-.91 1.715-3.15 1.925-7.98a2.019 2.019 0 0 0 1.26-.56l-3.01-2.415-1.61 1.54-12.424 2.511.315 1.015h4.725c-.42 3.92-1.82 7.14-5.25 9.554l.21.49a13.008 13.008 0 0 0 8.575-10.044zm.35 20.369h-2.8l-4.164-4.944h5.74c.49 0 .8-.175.91-.56-1.12-1.05-2.975-2.52-2.975-2.52l-1.61 2.065h-2.065v-3.675c.77-.14 1.05-.455 1.12-.91l-4.3-.42v5h-3.29a24.926 24.926 0 0 0 1.295-2.765 1.139 1.139 0 0 0 1.26-.665l-3.815-1.225a29.634 29.634 0 0 1-2.73 8.749l.49.315a14.681 14.681 0 0 0 2.9-3.395h8.045v4.935h-7.07l.28 1.015h6.79v7.35h.6c1.19 0 2.59-.63 2.59-.945v-6.4h6.72c.49 0 .8-.175.91-.56-1.155-1.155-3.115-2.695-3.115-2.695z" fill="#f8e8db" stroke="rgba(0,0,0,0)"/></svg>