<svg xmlns="http://www.w3.org/2000/svg" width="600" height="200" fill="#111"><path d="M32.021 37.173h-9.964v-9.155h12.136c.6 0 1.022-.213 1.15-.681-1.661-1.405-4.3-3.449-4.3-3.449L28.7 26.826h-6.643v-8.048h9.453c.6 0 .979-.213 1.107-.681-1.575-1.448-4.173-3.321-4.173-3.321l-2.257 2.768H7.581l.341 1.235H17.8v8.048H6.132l.341 1.192H17.8v9.155H1.916l.3 1.235H37.94a1.02 1.02 0 0 0 1.107-.681c-1.7-1.575-4.514-3.747-4.514-3.747zM21.248.208l-1.49 2.385H7.494l.383 1.192h7.877C12.86 9.708 6.681 15.882 0 19.97l.341.511c8.516-3.534 16.308-9.538 20.652-16.521 3.023 5.961 9.283 11.369 15.712 14.9a5.5 5.5 0 0 1 3.79-3.747l.043-.468c-7.665-2.129-15.244-6.6-18.395-10.73 1.575-.085 2.81-.426 3.279-.979zM63.7 23.249c.6 0 .979-.213 1.107-.681-1.363-1.363-3.662-3.236-3.662-3.236l-2 2.683h-2.9v-5.107h8.388c.6 0 1.022-.213 1.107-.681-1.448-1.4-3.917-3.406-3.917-3.406l-2.083 2.848h-3.15a42.02 42.02 0 0 0 4.556-5.791c.894.085 1.4-.255 1.575-.766l-4.684-1.49h5.195c.6 0 1.022-.213 1.15-.681-1.448-1.405-3.79-3.279-3.79-3.279l-2.086 2.725H55.1C57.527 6 58.379 1.487 50.97 0l-.426.255a12.174 12.174 0 0 1 2.6 5.493 3.115 3.115 0 0 0 1.32.639h-9.8l.341 1.235h3.066l-.383.17a17.617 17.617 0 0 1 2.129 6.941c2.853 2.853 6.472-3.066-1.575-7.111h9.368a75.226 75.226 0 0 1-2.133 8.047H44.029l.341 1.231h8.005v5.11H44.71l.341 1.235h7.324v3.194L48.2 24.655a35.361 35.361 0 0 1-4.131 11.623l.468.426a27.065 27.065 0 0 0 6.942-9.368 3.114 3.114 0 0 0 .894 0v12.349h.681c1.959 0 3.194-.766 3.194-1.022V23.249zm-6.9 2.172a15.758 15.758 0 0 1 2.64 7.707c3.066 2.9 6.6-3.747-2.172-7.963zm20.48-10.3h-7.532V6.259a70.18 70.18 0 0 0 10.986-2.427c1.15.383 1.916.3 2.342-.128L78.648.17a50.515 50.515 0 0 1-8.559 4.854l-4.258-1.448v14.18c0 7.665-.639 15.372-5.791 21.418l.554.511c8.431-5.663 9.155-14.435 9.155-21.844v-1.49h5.067v23.376h.684c2 0 3.279-.937 3.279-1.192V16.35h4.173c.6 0 1.065-.213 1.15-.681-1.661-1.533-4.386-3.79-4.386-3.79zM91.932 32.108c2.172-2.129 4.173-4.216 5.45-5.408 7.2-7.026 10.007-10.134 10.007-14.265 0-4.9-2.853-8.388-8.985-8.388-4.9 0-9.2 2.427-9.751 7.154A2.579 2.579 0 0 0 91 12.734c1.235 0 2.172-.766 2.683-3.066L94.7 6.049a9.147 9.147 0 0 1 2.257-.3c3.492 0 5.663 2.683 5.663 6.728 0 3.96-2.129 7.324-6.685 12.476-2.086 2.342-4.556 5.237-7.111 8.09v3.065h19.715v-4zm26.911 4.6a3.258 3.258 0 1 0 .114-6.515h-.114a3.258 3.258 0 1 0-.114 6.515h.114m15.415-27.98h14.052v-4h-15.755l-.979 14.648 1.235.468a14.727 14.727 0 0 1 4.514-.724c4.343 0 7.154 2.81 7.154 7.75 0 5.11-2.6 8.176-7.026 8.176a9.748 9.748 0 0 1-2.81-.383l-.724-3.194c-.511-2.257-1.235-3.023-2.64-3.023a2.321 2.321 0 0 0-2.3 1.575c.766 4.343 3.96 6.728 8.985 6.728 6.728 0 11.284-3.96 11.284-10.177 0-6.3-4.173-9.794-10.517-9.794a16.113 16.113 0 0 0-5.025.724zM188.463 6.6l1.575 6.643h2.3L192 4.726h-26.19l-.341 8.516h2.3l1.576-6.642h6.983c.128 4.258.128 8.516.128 12.732V21.5c0 4.258 0 8.474-.128 12.6l-4.684.468v1.537h14.52v-1.53l-4.683-.467c-.085-4.216-.085-8.431-.085-12.6v-2.177c0-4.343 0-8.559.085-12.732zm40.92-.341V4.726h-13.455v1.533l4.13.468c.085 4.13.085 8.3.085 12.434h-14.35c0-4.216 0-8.388.085-12.434l4.173-.468V4.726H196.6v1.533l4.216.468c.043 4.216.043 8.431.043 12.6V21.5c0 4.258 0 8.474-.043 12.6l-4.216.468v1.541h13.456v-1.534l-4.171-.467c-.085-4.13-.085-8.346-.085-13.2h14.35c0 4.9 0 9.155-.085 13.2l-4.13.468v1.532h13.45v-1.533l-4.256-.467c-.085-4.216-.085-8.431-.085-12.6v-2.177c0-4.3 0-8.474.085-12.6zm15.417 11.07c-3.279-1.32-5.11-3.023-5.11-6 0-3.534 2.64-5.365 6.43-5.365a7.151 7.151 0 0 1 3.577.809l1.448 5.961h2.385l.255-6.3a12.926 12.926 0 0 0-7.835-2.47c-6.132 0-10.688 3.151-10.688 8.687 0 4.726 3.108 7.452 8.176 9.581l1.831.809c4.045 1.575 5.621 3.108 5.621 6.089 0 3.7-2.853 5.748-7.281 5.748a9.662 9.662 0 0 1-4.812-1.065l-1.451-6.213H235l-.255 6.77a18.314 18.314 0 0 0 9.24 2.512c6.9 0 11.369-3.534 11.369-9.027 0-4.471-2.342-7.111-8.644-9.666zM305.433 32.108c2.172-1.959 4.13-3.79 5.45-4.982 7.366-6.345 9.964-9.751 9.964-13.839 0-4.769-2.853-8.09-8.985-8.09-4.9 0-9.2 2.427-9.751 7.154a2.61 2.61 0 0 0 2.342 1.49c1.235 0 2.172-.724 2.683-3.023l.979-3.619a12.181 12.181 0 0 1 2.3-.255c3.492 0 5.663 2.47 5.663 6.387s-1.916 7.281-6.685 12.306c-2.086 2.129-4.556 4.769-7.111 7.409v3.062H322v-4zm26.869 4.6a3.258 3.258 0 1 0 .114-6.515h-.114a3.258 3.258 0 1 0-.114 6.515h.114m12.008-12.391 10.261-14.439v14.435zm19.417 0h-4.854V5.577h-3.152l-13.8 19.331v2.555h12.646v8.645h4.3v-8.644h4.854zM401.927 6.6l1.576 6.643h2.3l-.341-8.516h-26.194l-.341 8.516h2.3L382.8 6.6h6.978c.128 4.258.128 8.516.128 12.732v2.172c0 4.258 0 8.474-.128 12.6l-4.684.468v1.533h14.52v-1.53l-4.679-.467c-.085-4.216-.085-8.431-.085-12.6v-2.177c0-4.343 0-8.559.085-12.732zm38.451-1.874H429.13v1.536l4.9.639.085 15.585c.043 8.176-2.725 11.284-8.09 11.284-4.9 0-7.792-2.683-7.792-10.688v-3.874c0-4.216 0-8.346.085-12.434l4.556-.511V4.726H409.33v1.533l3.832.426c.128 4.173.128 8.388.128 12.519v4.854c0 9.2 4.684 12.817 11.625 12.817 6.77 0 11.114-4 11.156-13.583l.085-16.436 4.216-.6zm13.2 14.988c0-4.9 0-9.07.043-13.243h3.7c4.812 0 7.026 2.3 7.026 6.387 0 3.917-2.342 6.856-7.239 6.856zm15.5 14.52-2-7.281c-.937-3.747-2.47-5.578-6.132-6.217 5.748-.979 8.3-4.258 8.3-7.877 0-5.11-4.088-8.133-11.241-8.133h-13.631v1.536l4.216.468c.085 4.173.085 8.431.085 12.6v2.17c0 4.258 0 8.474-.085 12.6l-4.216.468v1.538h13.541v-1.531l-4.3-.468c-.043-4.13-.043-8.3-.043-12.689h2.385c3.79 0 5.152 1.107 6 4.769l1.788 7.111c.511 2.427 1.959 3.321 5.152 3.321a12.387 12.387 0 0 0 3.879-.511zm16.862.085c-.043-4.3-.043-8.687-.043-13.626h2.555c6.174 0 8.9 2.3 8.9 6.856 0 4.428-2.938 6.77-8.431 6.77zm2.981-27.848c4.854 0 7.068 1.874 7.068 5.961 0 4.343-2.47 6.515-7.792 6.515h-2.3c0-4.258 0-8.388.043-12.476zM476.7 4.728v1.533l4.216.468c.085 4.13.085 8.3.085 12.476v2.086c0 4.343 0 8.6-.085 12.817l-4.216.468v1.532h12.9c9.538 0 12.859-4.343 12.859-8.6 0-4-2.768-7.068-9.5-7.877 5.706-1.107 7.792-4.088 7.792-7.366 0-4.386-3.364-7.537-10.39-7.537zm36.23 15.71c0-7.75 2.81-14.6 8.985-14.6s8.985 6.856 8.985 14.6c0 7.707-2.81 14.52-8.985 14.52s-8.985-6.813-8.985-14.52m8.985-16.479c-7.494 0-14.435 6.046-14.435 16.479 0 10.645 6.9 16.436 14.435 16.436s14.392-6.046 14.392-16.436c0-10.688-6.9-16.479-14.393-16.479zM33.6 68.259v-1.533H20.141v1.533l4.13.468c.085 4.13.085 8.3.085 12.434H10.007c0-4.216 0-8.388.085-12.434l4.173-.468v-1.533H.809v1.533l4.216.468c.043 4.216.043 8.431.043 12.6V83.5c0 4.258 0 8.474-.043 12.6l-4.216.468v1.541h13.456v-1.534l-4.173-.467c-.085-4.13-.085-8.346-.085-13.2h14.35c0 4.9 0 9.155-.085 13.2l-4.13.468v1.532H33.6v-1.533l-4.259-.467c-.085-4.216-.085-8.431-.085-12.6v-2.177c0-4.3 0-8.474.085-12.6zm28.7.6 3.96-.6v-1.533H55.781v1.533l4.343.6-6.812 14.6-6.856-14.689 4.471-.511v-1.533H37.6v1.533l3.236.341 8.516 17.245c0 4.3 0 7.239-.085 10.262l-4.726.468v1.533h14.476v-1.533l-4.684-.467c-.085-3.194-.085-6.217-.085-10.858zm16.816 27.465c-.043-4.3-.043-8.687-.043-13.626h2.555c6.174 0 8.9 2.3 8.9 6.856 0 4.428-2.938 6.77-8.431 6.77zM82.1 68.476c4.854 0 7.068 1.874 7.068 5.961 0 4.343-2.47 6.515-7.792 6.515h-2.3c0-4.258 0-8.388.043-12.476zm-12.222-1.75v1.533l4.216.468c.085 4.13.085 8.3.085 12.476v2.086c0 4.343 0 8.6-.085 12.817l-4.216.468v1.534h12.903c9.538 0 12.859-4.343 12.859-8.6 0-4-2.768-7.068-9.5-7.877 5.706-1.107 7.792-4.088 7.792-7.367 0-4.386-3.364-7.537-10.39-7.537zm39.089 14.988c0-4.9 0-9.07.043-13.243h3.7c4.812 0 7.026 2.3 7.026 6.387 0 3.917-2.342 6.856-7.239 6.856zm15.5 14.52-2-7.281c-.937-3.747-2.47-5.578-6.132-6.217 5.748-.979 8.3-4.258 8.3-7.877 0-5.11-4.088-8.133-11.241-8.133H99.767v1.533l4.216.468c.085 4.173.085 8.431.085 12.6V83.5c0 4.258 0 8.474-.085 12.6l-4.216.468v1.541h13.541v-1.534l-4.3-.468c-.043-4.13-.043-8.3-.043-12.689h2.385c3.79 0 5.152 1.107 6 4.769l1.788 7.111c.511 2.427 1.959 3.321 5.152 3.321a12.388 12.388 0 0 0 3.875-.511v-1.533zm21.163-27.976v-1.532h-13.544v1.533l4.216.468c.085 4.173.085 8.431.085 12.6V83.5c0 4.258 0 8.474-.085 12.6l-4.216.468v1.541h13.541v-1.534l-4.258-.467c-.043-4.173-.043-8.431-.043-12.6v-2.177c0-4.3 0-8.474.043-12.6zm14.6 28.061c-.043-4.258-.043-8.644-.043-13.413v-1.49c0-4.471 0-8.729.043-12.945h3.619c6.856 0 10.858 4.9 10.858 13.967 0 8.772-3.96 13.881-11.2 13.881zm-9.283-29.594v1.533l4.216.468c.085 4.173.085 8.431.085 12.689v1.533c0 4.726 0 9.027-.085 13.158l-4.216.468v1.534h12.774c9.751 0 16.351-5.748 16.351-15.712s-6.089-15.67-15.5-15.67zM211.925 62.339a8.117 8.117 0 0 1 2.512 4.6c2.981 2.342 6.046-3.619-2.086-4.9zm-18.352.043a8.353 8.353 0 0 1 2.512 4.6c2.981 2.3 6-3.619-2.129-4.9zm1.49 6.643v3.662h-3.619v-3.662zm0 8.729h-3.619v-3.832h3.619zm0 4.982h-3.619v-3.747h3.619zm18.395-10.049H209.5v-3.662h3.96zm0 5.067H209.5v-3.832h3.96zm0 4.982H209.5v-3.747h3.96zm-25.463 3.023h.6c1.7 0 2.853-.852 2.853-1.107v-.681h12.689c.6 0 .979-.213 1.107-.681a37.958 37.958 0 0 0-3.279-2.768l-1.746 2.214H198.3v-3.747h4.556a.968.968 0 0 0 1.065-.681c-1.107-1.107-2.853-2.512-2.853-2.512l-1.533 1.959H198.3v-3.833h4.726l.554.383a19.239 19.239 0 0 0 2.427-2.172v13.456h.6c1.746 0 2.9-.852 2.9-1.15v-.468h13.754c.6 0 .979-.213 1.107-.681-1.277-1.235-3.406-2.853-3.406-2.853l-1.788 2.3h-2.4v-3.748h4.939c.6 0 .979-.213 1.107-.681a37.384 37.384 0 0 0-2.981-2.555l-1.576 2h-1.489v-3.831h4.939c.6 0 .979-.213 1.065-.681a30.6 30.6 0 0 0-2.981-2.555l-1.533 2h-1.49v-3.661h5.748c.6 0 .979-.213 1.107-.681-1.277-1.15-3.321-2.683-3.321-2.683l-1.746 2.129h-8.552l-.639-.255c.554-.979 1.065-2.044 1.533-3.066.937.043 1.448-.341 1.575-.852l-4.684-1.533a33.615 33.615 0 0 1-4.214 10.859c-1.065-1.022-2.512-2.172-2.512-2.172l-1.533 1.916H198.3v-3.662h5.237c.6 0 .979-.213 1.065-.681-1.235-1.15-3.236-2.683-3.236-2.683l-1.746 2.129h-7.665l-.554-.213a30.377 30.377 0 0 0 1.7-3.023c.894.043 1.448-.3 1.618-.809l-4.639-1.66a38.1 38.1 0 0 1-5.408 12.05l.6.426a23.8 23.8 0 0 0 2.728-2.47zm24.527 2.172a30.262 30.262 0 0 1-7.409 6 25.379 25.379 0 0 1-9.921-6zm3.066-3.492-2.64 2.257h-26.486l.383 1.235h7.236A23.914 23.914 0 0 0 202 95.6a69.549 69.549 0 0 1-16.9 5.365l.255.681a67.606 67.606 0 0 0 19.5-4.471 55.1 55.1 0 0 0 16.692 4.514 4.591 4.591 0 0 1 3.321-3.832l.043-.554a77.649 77.649 0 0 1-15.8-2.214 31.255 31.255 0 0 0 8.3-6.387c1.15-.043 1.661-.17 2-.554zM233.9 81.16h3.96v3.96h-3.96zm3.96-1.24h-3.96v-4h3.96zm7.75 0h-4.127v-4h4.127zm-4.13 1.24h4.13v3.96h-4.13zm8.857 12.9c-3.023.341-6.046.724-8.857 1.022v-3.574h7.792c.6 0 .979-.213 1.107-.681-1.448-1.277-3.747-3.023-3.747-3.023l-2 2.47h-3.149v-3.917h4.13v1.022h.639a4.257 4.257 0 0 0 3.023-.937V76.179a2.171 2.171 0 0 0 1.576-.724l-3.577-2.768-1.746 2.044h-4.045V71.5h8.985c.6 0 1.022-.213 1.15-.639-1.533-1.405-3.96-3.279-3.96-3.279l-2.177 2.718h-4v-3.744a95.266 95.266 0 0 0 6.557-.809c1.065.468 1.959.511 2.385.128l-3.747-3.79a102.045 102.045 0 0 1-17.671 4.515l.128.724c2.81-.043 5.834-.213 8.729-.426V70.3h-8.985l.341 1.192h8.644v3.236h-3.492l-3.96-1.618v15.034h.554c1.788 0 2.938-.681 2.938-.979v-.809h3.96v3.917h-8.351l.341 1.235h8v4c-3.875.383-7.068.724-8.942.852l1.874 4.939a1.562 1.562 0 0 0 1.15-.937c8.474-2.342 14.35-4.258 18.48-5.663zm14.6-23.547-2.172 2.257h-4.217c.043-2.64.043-5.408.085-8.346.979-.128 1.4-.554 1.533-1.192l-5.493-.554c0 3.577.043 6.941.043 10.092h-4.638l.383 1.235h4.217c-.128 11.923-1.277 20.652-8.985 27.167l.554.681c10.56-6.132 12.05-15.244 12.306-27.848h4.684c-.255 14.052-.681 21.035-2 22.312a1.8 1.8 0 0 1-1.448.554c-.809 0-2.938-.17-4.343-.3v.639a6.974 6.974 0 0 1 3.236 1.4 4.243 4.243 0 0 1 .639 2.768 6.326 6.326 0 0 0 4.854-1.916c2.044-2.214 2.6-8.687 2.853-24.867a2.809 2.809 0 0 0 1.788-.766zM305.9 70.728l-2.342 2.427H292.7c.17-2.938.213-6 .255-9.112 1.065-.128 1.448-.554 1.533-1.192l-6-.6c0 3.79.043 7.409-.128 10.9h-13.5l.383 1.235h13.03c-.681 10.39-3.449 19.374-15.329 26.656l.468.681c15.116-6.685 18.352-16.266 19.2-27.337h11.412c-.426 11.539-1.192 20.141-2.81 21.546a2.222 2.222 0 0 1-1.746.554c-1.15 0-4.939-.3-7.366-.511l-.043.639a14.007 14.007 0 0 1 5.241 1.746 3.779 3.779 0 0 1 1.065 3.023c2.81 0 4.641-.6 6.089-2.044 2.3-2.385 3.279-11.028 3.7-24.271a2.854 2.854 0 0 0 1.874-.766zM328.513 89.293a41.21 41.21 0 0 1-10.986 10.177l.383.511a41.051 41.051 0 0 0 13.668-7.494c.894.213 1.277 0 1.576-.383zm16.521-9.921a22.9 22.9 0 0 1 3.066 4.9c-8.6.511-16.649 1.022-21.8 1.235 7.537-2.938 16.266-7.324 20.567-10.475.979.3 1.661.043 1.874-.341l-4.514-3.321a46.276 46.276 0 0 1-5.834 4.9c-4.386.3-8.474.554-11.539.724a64.7 64.7 0 0 0 12.221-6.259 1.472 1.472 0 0 0 1.746-.426l-4.386-2.64c2.385-.809 4.641-1.575 6.43-2.342 1.192.383 2 .341 2.385-.128l-4.258-3.279c-4.514 2.938-13.8 6.941-21.205 9.155l.213.639a122.717 122.717 0 0 0 16.266-4c-2.3 2.555-8.09 7.2-12.434 8.857a5.019 5.019 0 0 1-1.32.3l2.086 4.3a2.166 2.166 0 0 0 .852-.809c3.875-.766 7.452-1.575 10.432-2.257a67.905 67.905 0 0 1-12.6 6.9 8.154 8.154 0 0 1-1.746.383l2.172 4.556a2.347 2.347 0 0 0 1.022-1.022c3.832-.554 7.409-1.065 10.688-1.575v9.41c0 .511-.17.724-.852.724-.894 0-4.726-.255-4.726-.255v.6a5.95 5.95 0 0 1 3.406 1.277 4.147 4.147 0 0 1 .809 2.64c4.812-.383 5.535-2.129 5.535-4.9V86.7c3.449-.554 6.43-1.065 8.942-1.49a13.73 13.73 0 0 1 .937 3.492c3.662 3.108 7.068-4.9-3.96-9.623zm-3.108 10.517c3.364 2.342 7.963 6.387 9.794 9.708 4.641 2.129 6.174-7.026-9.453-10.134zM362.365 89a2.348 2.348 0 0 0 1.107-.894c3.662-1.022 7.026-2.214 9.453-3.066a9.978 9.978 0 0 1 .341 2.172c2.768 2.6 6.046-3.364-1.874-7.665l-.511.213a25.628 25.628 0 0 1 1.746 4.173c-3.151.213-6.174.468-8.474.554a59.319 59.319 0 0 0 10.986-10.943 1.518 1.518 0 0 0 1.618-.426l-4.557-3.071a33.821 33.821 0 0 1-2.385 4.428c-2.3.043-4.471.043-6.217.043a49.7 49.7 0 0 0 7.792-9.2 1.433 1.433 0 0 0 1.533-.6l-4.982-2.51c-.937 3.279-3.747 9.368-6 11.667a4.017 4.017 0 0 1-1.192.426l1.874 4.514a2.254 2.254 0 0 0 .979-.852c1.874-.6 3.619-1.192 5.11-1.746a37.261 37.261 0 0 1-6.6 7.792 5.608 5.608 0 0 1-1.363.468zm9.283-.341a12.647 12.647 0 0 1 1.959 6.3c2.683 2.512 6-3.151-1.448-6.557zm-7.963 1.235a8.982 8.982 0 0 1-2.044 6.3 2.365 2.365 0 0 0-.937 2.938c.724 1.192 2.64.979 3.492-.043 1.192-1.575 1.661-4.854.213-9.2zm3.747-.6a20.8 20.8 0 0 1 .255 7.665c2.385 3.066 6.472-2.427.341-7.792zm31.382 1.7h-.514a51.766 51.766 0 0 1-1.4 5.621.8.8 0 0 1-.681.511 13.207 13.207 0 0 1-1.448.043h-1.576c-.766 0-.852-.213-.852-.766V79.969c.894-.213 1.7-.426 2.427-.6a12.233 12.233 0 0 1 1.23 3.236c3.917 2.938 6.941-5.45-5.11-9.794l-.426.3a30.559 30.559 0 0 1 3.79 5.28c-6.217.426-12.093.766-15.925.894a75.675 75.675 0 0 0 7.537-9.325h13.112c.6 0 1.065-.213 1.15-.681-1.576-1.49-4.173-3.577-4.173-3.577l-2.3 3.023h-6.941a92.84 92.84 0 0 0 2.257-3.7c.852.043 1.363-.255 1.533-.724l-5.45-2.47a55.16 55.16 0 0 1-2.64 6.9h-7.066l.341 1.235h6.174a47.8 47.8 0 0 1-5.323 8.857 3.987 3.987 0 0 1-1.363.554l1.874 4.726a2.534 2.534 0 0 0 1.192-1.065l3.066-.639c-.255 6.43-1.363 13.115-9.836 18.736l.554.6c11.284-5.237 12.859-12.647 13.37-20.183 1.15-.255 2.214-.511 3.236-.724v16.436c0 2.385.511 3.236 3.406 3.236h2.427c4.386 0 5.706-.639 5.706-2.044 0-.681-.213-1.15-1.235-1.576zM29.637 159.808c0-1.15-1.277-2.683-5.067-3.321l-.426.383a13.527 13.527 0 0 1 1.192 1.065l-3.406.085v-2.042h4.386v.809h.554a4.9 4.9 0 0 0 2.768-.894v-3.108a2.22 2.22 0 0 0 1.107-.554l-3.194-2.385-1.533 1.533h-4.089v-.809c.766-.128 1.022-.468 1.107-.894l-4.555-.468v2.172h-3.322l-2.129-.894a24.233 24.233 0 0 0 1.916-1.618H32.7c-.3 6-.766 9.794-1.575 10.6a1.2 1.2 0 0 1-.979.341zm-3.321-5.067h-4.387v-2.129h4.386zm-11.369-2.129h3.534v2.129h-3.534zm5.876-13.456c1.405 0 3.151-.6 3.151-.894v-2.172c2.64.681 5.791 1.618 8.3 2.385l-1.235 1.277H13.711l-1.874-.766c3.406-1.192 6.132-2.214 8.261-3.066v3.236zm6.813 1.831h3.832v3.151h-3.832zm-6.941 0h3.7v3.151h-3.7zm-3.321 3.151h-3.918v-3.151h3.917zm-9.837-16.43h25.038v3.236H7.537zm24.744 19.924h-16.1a3.856 3.856 0 0 0 .554-.681c1.15-.043 1.661-.3 1.831-.766l-4.13-.809h17.032v.639h.6a5.421 5.421 0 0 0 2.938-.937v-3.662a2.529 2.529 0 0 0 1.4-.724l-1.874-1.4.809.3c2.3.554 3.492-2.683-6-4.088a41.091 41.091 0 0 0 4.13-1.192c.511.3.937.255 1.107.085l-.937-1.065a5.8 5.8 0 0 0 2.64-.894v-4a3.466 3.466 0 0 0 1.788-.894l-4.093-3.071-1.831 2H8.176l-4.386-1.7V140.4c0 7.877-.128 16.436-3.492 22.994l.6.383c6.43-6.3 6.643-15.84 6.643-23.419v-8.176h24.31c-1.277.852-3.406 2.086-5.195 3.023-.809-.085-1.7-.17-2.683-.213v-1.022c.894-.17 1.15-.511 1.192-.979l-5.067-.468v2.427l-3.7.681c.681-1.15-.724-3.577-6.6-3.023l-.3.511a26.608 26.608 0 0 1 4.982 2.81c-2.725.468-4.939.852-6.3 1.022l1.7 3.151v6.557h.511a5.453 5.453 0 0 0 2.512-.639 24.686 24.686 0 0 1-6.046 7.409l.383.468a28.11 28.11 0 0 0 4.471-2.385v5.7h.47c1.277 0 2.768-.724 2.768-1.022v-.213h3.532v2.086c-4.3.085-7.92.128-9.964.085l1.874 3.917a1.588 1.588 0 0 0 1.107-.894c6.387-.894 11.114-1.618 14.648-2.3a3.863 3.863 0 0 1 .468.681l-.937-.085v.645a12.807 12.807 0 0 1 1.363.341l.085.255a1.7 1.7 0 0 0 1.448.426 2.266 2.266 0 0 1 .468.383 2.744 2.744 0 0 1 .681 2.172 6.576 6.576 0 0 0 3.917-1.15c1.746-1.448 2.342-5.834 2.725-13.157a2.5 2.5 0 0 0 1.618-.681l-3.662-3.066zM49.948 124.468a14.954 14.954 0 0 1 3.449 7.2c3.747 2.981 7.409-4.854-3.066-7.452zm9.581 13.668-2.048 2.172h-4.212c.17-2.086.255-4.173.3-6.345H64c.6 0 .979-.213 1.107-.681-1.49-1.448-4.13-3.534-4.13-3.534l-2.214 3.023h-14.6l.341 1.192h4.683c.255 10.56-.341 21.035-5.493 29.423l.468.426c6.217-5.834 8.3-13.668 9.027-22.27h4.684c-.3 10.773-.979 15.925-2.172 17.032a1.72 1.72 0 0 1-1.363.468c-.809 0-2.725-.17-3.917-.255v.639a5.584 5.584 0 0 1 2.81 1.32 4.048 4.048 0 0 1 .6 2.64 6.31 6.31 0 0 0 4.6-1.661c1.959-1.831 2.81-6.856 3.194-19.63a2.908 2.908 0 0 0 1.746-.724zm4.852 14.18c4.386 2.555 10.134 7.068 12.561 10.858 5.237 2.172 6.345-8.09-12.263-11.284zm3.7-11.156c2.129 1.661 4.9 4.471 6 6.813 4.173 1.916 6.132-5.919-5.621-7.154zm6.3-14.818c1.107-.17 1.533-.468 1.661-.979l-5.876-1.32c-.937 6.046-3.96 14.563-8.048 19.928l.468.341c5.28-4.088 9.027-10.56 11.2-16.308 1.4 6 3.875 11.923 7.452 15.67a4.607 4.607 0 0 1 2.981-3.236l.085-.554a26.423 26.423 0 0 1-9.915-13.543zM98.822 158.193v-13.84h18.139v13.839zm18.139-28.4v13.325H98.83V129.79zm1.746-3.577-2.172 2.342H99.171l-4.514-1.874v36.747h.724c1.831 0 3.449-1.022 3.449-1.576v-2.427h18.139v3.7h.681c1.575 0 3.577-1.022 3.662-1.363v-31.208a3.477 3.477 0 0 0 1.746-.894zM169.123 134.988c.639 0 1.065-.213 1.192-.681-1.746-1.661-4.726-4.045-4.726-4.045l-2.683 3.492h-9.325V126c1.277-.213 1.661-.681 1.746-1.32l-5.876-.6v9.666h-16.215l.383 1.235h13.162c-2.683 8.09-8.048 16.607-15.159 22.1l.468.468a42.078 42.078 0 0 0 17.373-17.118v12.306h-8.686l.341 1.235h8.346v9.628h.809c1.661 0 3.321-.809 3.321-1.277v-8.346h7.835c.6 0 1.022-.213 1.15-.681-1.575-1.575-4.258-3.832-4.258-3.832l-2.342 3.279h-2.385v-17.715c2.853 9.538 7.707 16.9 14.009 21.29a5 5 0 0 1 3.832-3.577l.085-.468a37.723 37.723 0 0 1-17.075-17.288zM191.523 150.657h8.058v5.025h-8.058zm11.837.6a2.73 2.73 0 0 0 1.575-.852l-3.917-2.853-1.831 1.874h-7.494l-3.912-1.621V159.6h.554c1.49 0 3.194-.809 3.194-1.15v-1.533h8.052V159h.639c1.235 0 3.108-.809 3.151-1.107zm4.939-6.387h-25.118l-4.343-1.746v20.524h.639c1.618 0 3.364-.937 3.364-1.277V146.1h25.889v12.434c0 .554-.17.852-.894.852-.979 0-4.812-.255-4.812-.255v.6c1.916.255 2.853.724 3.406 1.32a4.19 4.19 0 0 1 .894 2.683c4.812-.426 5.45-2.044 5.45-4.769v-12.142a3.3 3.3 0 0 0 1.788-.852l-4.343-3.279zm-19.119-9.708h12.945v4.982H189.18zm13.626 8.048c1.277 0 3.321-.724 3.364-.979v-6.345a3.332 3.332 0 0 0 1.788-.894l-4.3-3.194-1.959 2.129h-12.256l-4.215-1.7v11.369h.553c1.618 0 3.406-.894 3.406-1.235v-.979h12.945v1.829zm4.769-13.839h-10.042c1.661-1.448.894-5.365-6.557-5.493l-.341.3a11.029 11.029 0 0 1 3.96 5.195H176.2l.341 1.235h37.34c.639 0 1.065-.213 1.192-.681-1.831-1.576-4.812-3.747-4.812-3.747zM221.542 151a2.251 2.251 0 0 0 1.15-.894 176.984 176.984 0 0 0 9.368-3.066 9.98 9.98 0 0 1 .341 2.172c2.768 2.6 6.046-3.364-1.874-7.665l-.511.213a24.135 24.135 0 0 1 1.746 4.173c-3.108.213-6.174.426-8.431.554a59.007 59.007 0 0 0 11.114-10.943 1.516 1.516 0 0 0 1.618-.426l-4.514-3.066a48.606 48.606 0 0 1-2.385 4.428c-2.385.043-4.684.043-6.43.043a51.136 51.136 0 0 0 7.792-9.2 1.433 1.433 0 0 0 1.533-.6l-4.978-2.514c-.937 3.236-3.747 9.325-6 11.667a4.017 4.017 0 0 1-1.192.426l1.874 4.514a2.254 2.254 0 0 0 .979-.852c1.874-.6 3.747-1.235 5.28-1.788a36.566 36.566 0 0 1-6.728 7.835 5.607 5.607 0 0 1-1.363.468zm.979.894a10.017 10.017 0 0 1-2.086 6.728 2.355 2.355 0 0 0-.852 2.938c.766 1.15 2.683.894 3.492-.213 1.15-1.661 1.618-5.025.128-9.453zm3.747-.554a22.275 22.275 0 0 1 .426 7.963c2.47 3.066 6.43-2.683.17-8.133zm4.216-.681a12.637 12.637 0 0 1 2 6.174c2.683 2.47 5.961-3.236-1.49-6.43zm22.532-10.35a35.327 35.327 0 0 1-4.343 11.5 28.049 28.049 0 0 1-5.2-11.5zm-3.151-11.8-1.448 10.56h-6.345c.255-3.449.3-6.983.341-10.56zm5.152 8.388-2.257 2.172h-.554l1.448-10.092a2.2 2.2 0 0 0 1.49-.554l-3.832-3.066-1.7 1.916h-14.52l.383 1.235h3.151c-.043 12.136.128 24.654-6.345 34.618l.681.6c6.345-6.43 8.346-14.563 9.027-23.419h.639a42.692 42.692 0 0 0 4.343 14.052 29.474 29.474 0 0 1-10.688 8.686l.341.6a31.026 31.026 0 0 0 11.837-6.941 26.16 26.16 0 0 0 7.32 7.024 4.487 4.487 0 0 1 3.747-3.066l.128-.468a28.723 28.723 0 0 1-8.857-5.961 33.959 33.959 0 0 0 6.259-13.243c.979-.128 1.448-.255 1.746-.681zM272.9 143.07h8.048v5.578H272.9zm8.048-1.235H272.9v-5.28h8.048zm12.391 0h-8.218v-5.28h8.218zm-8.218 1.235h8.218v5.578h-8.218zm10.347 11.878h-10.346v-5.067h8.218v1.788h.681c1.363 0 3.364-.852 3.406-1.192v-13.235a3.17 3.17 0 0 0 1.788-.852l-4.258-3.321-2.044 2.257h-7.792v-4.3h15.414c.639 0 1.065-.213 1.192-.681-1.831-1.576-4.854-3.747-4.854-3.747l-2.6 3.194h-9.155V126c1.107-.17 1.448-.639 1.533-1.235l-5.706-.6v5.621h-16.177l.3 1.235h15.883v4.3h-7.707l-4.343-1.831v19.161h.6c1.661 0 3.406-.937 3.406-1.32v-1.448h8.048v5.067h-17.464l.383 1.235h17.075v7.537h.852c1.533 0 3.321-.852 3.321-1.277v-6.259h16.607c.639 0 1.107-.213 1.192-.681-1.788-1.575-4.769-3.832-4.769-3.832zM312.927 145.153h7.537v11.2h-7.537zm7.537-1.236h-7.537v-10.6h7.537zM322 129.868l-1.959 2.214h-4.471c1.192-1.7 2.683-3.875 3.7-5.493.937 0 1.49-.3 1.7-.979l-5.876-1.4c-.3 2.342-.809 5.621-1.192 7.877h-.766l-3.917-1.788v31.931h.639c1.618 0 3.066-.937 3.066-1.363v-3.279h7.537v3.279h.6c1.32 0 3.194-.852 3.236-1.192v-25.667a3.656 3.656 0 0 0 1.787-.9zm20.865-.3-2.3 2.427h-7.835a41.348 41.348 0 0 0 2.257-5.237c.937 0 1.448-.383 1.618-.894l-5.663-1.661a61.038 61.038 0 0 1-6.258 17.6l.6.383a34.633 34.633 0 0 0 6.813-8.942h8.942c-.3 14.563-.809 23.5-2.385 25.038a2.026 2.026 0 0 1-1.661.554c-1.022 0-4-.213-6-.426l-.043.681a9.635 9.635 0 0 1 4.386 1.618 3.757 3.757 0 0 1 .894 2.938c2.47 0 4.3-.639 5.663-2.214 2.172-2.47 2.853-11.028 3.151-27.55a2.726 2.726 0 0 0 1.831-.766zm-14.608 11.412c1.874 2.3 3.917 5.876 4.258 8.814 3.875 3.236 7.622-5.025-3.875-9.07zM374.84 151.455l-1.448 6.43a11.132 11.132 0 0 1-4.9 1.022c-6.6 0-11.241-4.812-11.241-14.478 0-9.581 4.939-14.6 11.327-14.6a9.637 9.637 0 0 1 4.428 1.022l1.448 6.515h2.47v-7.116a18.285 18.285 0 0 0-8.942-2.3c-9.112 0-16.181 6.43-16.181 16.479 0 10.092 6.728 16.436 16.1 16.436a18.524 18.524 0 0 0 9.41-2.385l.043-7.026zm16.99-7.75c0-4.9 0-9.07.043-13.243h3.7c4.812 0 7.026 2.3 7.026 6.387 0 3.917-2.342 6.856-7.239 6.856zm15.5 14.52-2-7.281c-.937-3.747-2.47-5.578-6.132-6.217 5.748-.979 8.3-4.258 8.3-7.877 0-5.11-4.088-8.133-11.241-8.133h-13.625v1.533l4.216.468c.085 4.173.085 8.431.085 12.6v2.172c0 4.258 0 8.474-.085 12.6l-4.216.468v1.55h13.541v-1.533l-4.3-.468c-.043-4.13-.043-8.3-.043-12.689h2.385c3.79 0 5.152 1.107 6 4.769L402 157.3c.511 2.427 1.959 3.321 5.152 3.321a12.388 12.388 0 0 0 3.875-.511v-1.533zm12.348-13.8c0-7.75 2.81-14.6 8.985-14.6s8.985 6.856 8.985 14.6c0 7.707-2.81 14.52-8.985 14.52s-8.982-6.8-8.982-14.507zm8.985-16.479c-7.494 0-14.435 6.046-14.435 16.479 0 10.645 6.9 16.436 14.435 16.436s14.392-6.046 14.392-16.436c0-10.675-6.9-16.466-14.393-16.466zm61.657.766h-10.433v1.533l4.3.6-6.047 22.7-6.94-22.737 4.726-.554v-1.533h-12.773v1.533l4.471.554-7.024 22.653-5.961-22.7 4.215-.511v-1.533h-12.989v1.533l3.619.426 8.559 29.679h2.427l7.494-24.654 7.877 24.654h2.47l8.048-29.551 3.96-.554zm34.32 0H513.4v1.533l5.237.639.085 21.5-17.032-23.675h-7.963v1.533l3.279.426.6.766-.17 26.528-3.917.6v1.546h11.241v-1.533l-5.2-.639-.128-23.888 18.946 26.315h2.214l.128-29.509 3.917-.6z"/></svg>