<svg xmlns="http://www.w3.org/2000/svg" width="600" height="200" fill="#111"><path d="M.378 37.422 0 36.2h17.345v-9.824h-13.9l-.337-1.218h14.237V.38l5.586.546c-.126.63-.42 1.05-1.554 1.218v23.015h7.644l2.52-3.234s2.939 2.184 4.746 3.78c-.126.462-.588.671-1.176.671H21.377V36.2h10.16l2.646-3.4s3.065 2.31 4.872 3.947c-.126.463-.546.672-1.219.672zM.295 22.261c3.612-4.2 6.677-10.835 7.853-18.269l5.5 1.512c-.126.5-.63.924-1.554.882A38.282 38.282 0 0 1 9.7 12.35c8.9 3.317 5.922 9.7 2.562 7.181a16.229 16.229 0 0 0-3.232-5.92 25.8 25.8 0 0 1-8.23 9.07zm21.334-.714c3.066-4.242 5.292-10.542 5.922-17.6l5.669 1.218c-.126.546-.588.966-1.553.966a35.726 35.726 0 0 1-2.1 6.3c11 3.317 8.4 10.835 4.577 8.357-.8-2.435-2.982-5.25-5.04-7.349a21.516 21.516 0 0 1-6.929 8.483zM53.379 38.98c4.746-3.276 7.223-8.19 8.442-13.188-1.345.63-3.024 1.428-4.662 2.142a2.1 2.1 0 0 1-.966.8l-1.428-4.074a4.321 4.321 0 0 0 1.134-.419 28.12 28.12 0 0 0 4.284-5.964c-.841.337-1.806.715-2.772 1.05a2.047 2.047 0 0 1-1.05 1.092l-1.049-2.6c-.841.63-1.806 1.428-2.983 2.268v14.1c0 2.9-.545 4.536-4.7 4.955a5.988 5.988 0 0 0-.714-2.9 3.84 3.84 0 0 0-2.688-1.3v-.632s2.982.21 3.654.21c.63 0 .8-.21.8-.714V22.765c-.841.589-1.764 1.219-2.73 1.89a1.544 1.544 0 0 1-.882 1.176L43.337 21.3c1.093-.294 2.982-.924 5.334-1.722V11.09H44.1l-.336-1.219h4.914V.254L53.841.8c-.084.588-.5 1.008-1.512 1.134v7.937h.171l1.848-2.73s2.016 1.932 3.192 3.276c-.126.462-.5.672-1.092.672h-4.119v7.14l2.771-1.008-.378-.841a3.355 3.355 0 0 0 1.008-.336c1.554-1.6 3.486-6.089 4.116-8.315L64.3 9.786a1.294 1.294 0 0 1-1.428.63 38.45 38.45 0 0 1-5.46 6.095h3.738a34.579 34.579 0 0 0 1.931-4.283l3.7 2.393A53.952 53.952 0 0 0 68.5 7.692l4.662 1.3a27.36 27.36 0 0 0-.5-.966l.462-.21c7.014 2.856 3.444 7.853 1.008 5.333a9.5 9.5 0 0 0-.882-3.99 1.512 1.512 0 0 1-1.47.756 34.041 34.041 0 0 1-1.89 4.158l.882.336h6.552l1.711-2.27s1.89 1.6 3.024 2.814c-.085.462-.5.671-1.05.671H76.6v5.25h.756l1.512-2.309s1.68 1.679 2.688 2.856a.955.955 0 0 1-1.05.672H76.6v5.376h.756l1.512-2.31s1.68 1.68 2.688 2.856a.955.955 0 0 1-1.05.672H76.6v5.754h1.26l1.722-2.52s1.975 1.764 3.109 3.066c-.085.462-.5.671-1.093.671H70.263v2.226a3.324 3.324 0 0 1-2.73 1.05h-.546V21.925a2.415 2.415 0 0 1-1.092.294c-1.176 6.51-4.116 13.355-12.1 17.219zm16.883-4.536h3.317v-5.757h-3.316zm0-6.971h3.317v-5.38h-3.316zm-12.6-2.814c1.218-.084 2.813-.252 4.494-.419a32.125 32.125 0 0 0 .5-3.822l4.325.756v-2.6a20.446 20.446 0 0 1-1.805 1.974l-.63-.378a34.7 34.7 0 0 0 2.054-4.914 1.842 1.842 0 0 1-.966.042 56.755 56.755 0 0 1-7.974 9.357zm12.6-3.78h3.317v-5.25h-3.316zM56.2 7.266l-.337-1.218h20.7l2.309-2.9s2.562 2.016 4.2 3.444c-.125.462-.545.671-1.175.671zm11.551-1.848A10.045 10.045 0 0 0 64.769.252L65.147 0c8 .718 6.9 5.916 4.125 5.916a2.783 2.783 0 0 1-1.529-.5zM109.445 36.587c-.629-.589-1.722-1.008-3.821-1.345v-.588s4.7.294 5.628.294c.714 0 .882-.21.882-.756v-4.918H88.111l-.336-1.218h24.362V24.99l5.207.5v-.919H96.469v.966c0 .378-1.6 1.218-3.108 1.218h-.588v-18.1l3.99 1.638h5.081V7.184H88.406l-.336-1.218h13.145A12.433 12.433 0 0 0 96.973.758l.337-.336c7.433.168 8.063 4.325 6.215 5.544h7.223c.714-1.766 1.552-4.116 2.058-5.838l5.963 1.554c-.21.546-.714.882-1.638.84-1.344 1.008-3.234 2.352-5 3.444h7.392l2.268-2.9s2.52 1.974 4.073 3.443c-.084.463-.546.672-1.134.672h-12.47v3.108h4.662l1.89-1.974 3.905 2.982a3.105 3.105 0 0 1-1.638.84v12.518c-.041.336-1.889 1.176-3.108 1.176h-.63v-.337c-.126.589-.5.882-1.427 1.05v1.512h3.99l2.309-2.9s2.6 1.974 4.158 3.444c-.126.462-.546.671-1.134.671h-9.323v5.082c0 2.771-.63 4.409-5.46 4.829a3.815 3.815 0 0 0-1.008-2.6zM96.469 23.353h20.868v-6.216a29.044 29.044 0 0 1-3.065.126H112c-2.6 0-2.982-.756-2.982-2.73v-3.022h-4.028c-.42 2.6-2.016 5.376-8.063 7.1l-.378-.589c3.738-1.89 4.872-4.157 5.165-6.51h-5.25zm15.791-9.242c0 .462.126.629.8.629h1.6c.49.011.981 0 1.47-.041a6.769 6.769 0 0 0 1.217-.126v-3.062h-5.081zm-7.14-4.284v.462h3.906v-3.1h-3.906zm-4.41 26.755a14.042 14.042 0 0 0-5.21-6.006l.336-.337c9.837.3 9.261 6.678 6.161 6.678a2.878 2.878 0 0 1-1.29-.335m-1.378-15.835-.293-1.218h11.8l1.428-1.679a31.855 31.855 0 0 1 2.6 2.226c-.084.462-.419.671-.966.671zM148.5 39.48V25.663h-13.057l-.337-1.218h13.4v-5.207l5.585.545c-.084.546-.419.924-1.47 1.05v3.612h7.686l2.057-2.6s2.352 1.848 3.78 3.149c-.126.463-.5.672-1.092.672H152.62V38.3c0 .378-1.8 1.176-3.317 1.176zm-15.246-2.313a33.506 33.506 0 0 0 9.2-10.247l4.578 3.065a1.486 1.486 0 0 1-1.806.378 30.09 30.09 0 0 1-11.593 7.395zm29.65.126c-1.6-2.939-5.334-6.8-8.105-9.2l.419-.294c12.2 3.161 12.113 9.848 9.016 9.848a2.955 2.955 0 0 1-1.329-.351zm-30.7-17.8a6.124 6.124 0 0 0 3.276-3.821l.588.042a10.97 10.97 0 0 1 .42 1.805h27.088l1.428-1.427a3.746 3.746 0 0 1-.8-.294 18.451 18.451 0 0 0-4.746-5.5c-1.47 2.478-4.409 4.746-9.869 6.215l-.378-.545c6.888-2.9 8.231-7.349 8.231-11.34V.38l4.872.5c-.084.5-.419.924-1.385 1.05v2.781a12.311 12.311 0 0 1-.211 2.142 40.582 40.582 0 0 0 4.582-4.032l2.9 3.738a1.715 1.715 0 0 1-1.848-.21 47.872 47.872 0 0 1-5.963 2.057c-.126.337-.252.672-.378.966 7.389 1.428 7.939 5.628 6.176 6.552l3.191 3.066a2.326 2.326 0 0 1-1.6.462 45.867 45.867 0 0 1-3.861 3.059l-.546-.252c.168-.8.378-2.309.546-3.527h-27.3c.1 3.115-1.614 4.34-3.1 4.34-1.629 0-2.98-1.49-1.308-3.583zm.8-3.906c6.341-2.982 7.518-7.518 7.518-11.3V.422l4.788.462c-.042.5-.378.924-1.345 1.05v2.435a13.619 13.619 0 0 1-.378 2.814 40.135 40.135 0 0 0 4.074-4.325l3.108 3.653a1.37 1.37 0 0 1-1.638-.084 46 46 0 0 1-6.006 2.268 4.3 4.3 0 0 1-.294.63c9.072 1.26 7.266 7.811 3.822 6.006a13.044 13.044 0 0 0-4.242-5.208c-1.428 2.353-4.116 4.536-8.987 5.922zm2.772-5.964a14.066 14.066 0 0 0-2.261-5.923l.462-.252c6.4 2.575 5.281 6.764 3.179 6.763a2.085 2.085 0 0 1-1.377-.589zM153 9.366a15.263 15.263 0 0 0-2.687-5.711l.419-.293c6.677 2.447 5.7 6.552 3.612 6.552A2.125 2.125 0 0 1 153 9.367zM30.326 96.666c-.546-.589-1.471-1.05-3.361-1.3v-.588s3.78.252 4.746.252c.715 0 .882-.294.882-.84V81.925H7.056v16.043c0 .337-1.723 1.26-3.318 1.26h-.63V78.985l4.284 1.726h24.779l1.89-2.141 4.283 3.23a3.257 3.257 0 0 1-1.764.84v11.971c0 2.688-.63 4.284-5.376 4.7a4.131 4.131 0 0 0-.881-2.645zm-18.4-1.428V83.605l3.864 1.6h7.392l1.805-1.848 3.864 2.814a2.7 2.7 0 0 1-1.553.84v6.552c-.042.293-1.89 1.092-3.108 1.092h-.63v-2.063h-7.936V94.1c0 .337-1.679 1.134-3.15 1.134zm3.7-3.864h7.938v-4.955h-7.94zM9.408 79.447V68.234l4.158 1.68h12.1l1.931-2.1 4.24 3.149a3.276 3.276 0 0 1-1.763.882V78.1a6.564 6.564 0 0 1-3.318.967h-.672v-1.804h-12.77v.966c0 .337-1.764 1.218-3.361 1.218zm3.906-3.4h12.767v-4.915H13.314zM.837 66.638.5 65.42h18.148a10.875 10.875 0 0 0-3.911-5.12l.336-.3c7.35.126 8.106 3.99 6.468 5.418h9.911L34.1 62.27s2.94 2.142 4.746 3.7c-.126.463-.545.672-1.175.672zM44.773 98.64a43.945 43.945 0 0 0 13.859-6.51l4.41 3.234c-.378.42-1.134.5-2.268.168a54.909 54.909 0 0 1-15.791 3.738zm31.372 0a31.337 31.337 0 0 0-10.835-4.914l.167-.588c18.41.533 16.158 6.119 12.612 6.119a3.368 3.368 0 0 1-1.947-.617zm-24.861-4.956v-19.4l4.242 1.722h15.745l1.386-1.47h-.672v-6.218h-3.822c-.42 2.393-1.974 5.25-7.056 6.971l-.378-.546c3.57-2.561 3.99-5.628 3.99-8.274v-4.493l3.906 1.176A72.6 72.6 0 0 0 76.73 60.3l3.444 3.486c-.463.378-1.26.336-2.268-.126-2.436.336-6.132.714-9.576.882V67.1h8.064l2.1-2.6s2.394 1.806 3.822 3.15c-.085.462-.5.672-1.093.672h-5.5v5.333a3.348 3.348 0 0 1-1.89.8l3.4 2.557a2.826 2.826 0 0 1-1.553.756v14.068c-.042.294-2.016 1.05-3.318 1.05h-.671v-1.721H55.269v1.26c0 .336-1.722 1.26-3.36 1.26zm3.99-3.739h16.417V86.46H55.269zm0-4.7h16.417V81.8H55.269zm0-4.62h16.417v-3.4H55.269zM43.972 76c3.318-2.772 3.654-6.174 3.654-9.071V62.06l4.2 1.3a67.164 67.164 0 0 0 7.728-3.065l3.446 3.4c-.462.378-1.26.337-2.268-.084a86.856 86.856 0 0 1-9.492 1.011V67.1h7.475l1.975-2.435s2.267 1.722 3.612 2.982c-.085.462-.5.672-1.093.672h-4.538v5.417c-.042.21-1.176.882-3.024.882h-.63v-6.3h-3.863c-.252 2.73-1.554 6.173-6.8 8.273zM119.778 96.33a32.464 32.464 0 0 1-6.006-12.179 26.361 26.361 0 0 1-6.132 3.108l-.42-.546a28.011 28.011 0 0 0 6.006-4.872 84.889 84.889 0 0 1-1.764-14.741H94.075V75c0 6.845-.293 16.8-6.383 23.519l-.546-.378c3.15-7.014 3.36-15.707 3.36-23.141V64.2l4.2 1.68h16.673c-.042-1.89-.084-3.78-.084-5.754l5.459.588-.084-.084.419-.294c7.14 1.386 4.158 6.006 1.638 3.99A7.485 7.485 0 0 0 116.8 60.8c-.085.5-.463.923-1.512 1.092a63.19 63.19 0 0 0 0 3.99h5.585l1.974-2.687s2.227 1.889 3.57 3.234a1 1 0 0 1-1.093.671h-10.04a75.22 75.22 0 0 0 .966 10.794 30.754 30.754 0 0 0 3.738-8.231l5.082 2.016c-.211.5-.715.84-1.638.714a28.041 28.041 0 0 1-6.426 9.282 25.127 25.127 0 0 0 5.331 10.917c.589.715.841.715 1.219-.126a44.986 44.986 0 0 0 2.057-4.829l.5.084-.966 6.93c1.218 2.309 1.427 3.528.756 4.032a2.161 2.161 0 0 1-1.413.483c-1.608 0-3.568-1.407-4.712-2.836m-18.941 1.848c-3.023 0-3.527-.715-3.527-2.814v-9.153l4.325.42c-.042.546-.462.924-1.218 1.05v6.888c0 .5.126.629 1.175.629h2.688c1.26 0 2.183 0 2.561-.041.378 0 .5-.085.715-.462a29.313 29.313 0 0 0 1.26-4.5h.5l.125 4.662c.924.336 1.134.756 1.134 1.344 0 1.3-1.3 1.975-6.51 1.975zm-8.987-1.81a2.045 2.045 0 0 1 .841-2.6 8.641 8.641 0 0 0 1.637-6.089h.756c1.3 3.99.8 7.14-.252 8.525a2.426 2.426 0 0 1-1.738.755 1.448 1.448 0 0 1-1.245-.587zm20.075-1.05a17.787 17.787 0 0 0-2.6-7.9l.545-.252c6.657 3.888 5.568 8.771 3.415 8.771a2.012 2.012 0 0 1-1.361-.62zm-8.232-3.775a13.254 13.254 0 0 0-2.184-6.552l.5-.294c6.222 3.181 5.075 7.5 3.046 7.5a1.96 1.96 0 0 1-1.362-.654M96.174 85.2V73.4l3.7 1.512h5.711l1.764-1.848 3.78 2.856a2.681 2.681 0 0 1-1.554.756v6.51c-.041.293-1.848.966-2.982.966h-.63v-1.6h-6.258v1.556c0 .294-1.6 1.092-3.023 1.092zm3.526-3.861h6.258v-5.21H99.7zM95.461 72.1l-.336-1.218h10.457l2.1-2.561s2.267 1.763 3.738 3.108c-.126.462-.546.671-1.134.671zM158.709 96.33a9.493 9.493 0 0 0-4.325-1.6l.042-.671c1.974.21 4.913.419 5.921.419a2 2 0 0 0 1.638-.545c1.554-1.512 2.058-10.332 2.352-24.7h-8.819a34.166 34.166 0 0 1-6.719 8.82l-.589-.378a60.169 60.169 0 0 0 6.174-17.346l5.585 1.638c-.167.5-.671.882-1.6.882a40.784 40.784 0 0 1-2.226 5.166h7.727l2.268-2.394 3.947 3.486a2.686 2.686 0 0 1-1.805.756c-.294 16.3-.967 24.736-3.108 27.173-1.345 1.553-3.15 2.183-5.586 2.183a3.706 3.706 0 0 0-.877-2.889m-25.743 1.512v-31.5l3.864 1.764h.756c.378-2.226.882-5.459 1.176-7.77l5.8 1.386c-.211.672-.756.967-1.68.967-1.008 1.6-2.478 3.738-3.654 5.417h4.41l1.932-2.183 4.031 3.191a3.6 3.6 0 0 1-1.764.882V95.32c-.041.337-1.889 1.176-3.191 1.176h-.588v-3.234h-7.434V96.5c0 .42-1.427 1.344-3.024 1.344zm3.654-5.8h7.434V81h-7.434zm0-12.263h7.434V69.325h-7.434zm19.317 5.8c-.337-2.9-2.353-6.425-4.2-8.693l.378-.252c9.551 3.36 8.436 9.671 5.563 9.67a2.753 2.753 0 0 1-1.741-.728zM176.265 99.354V79.07l3.99 1.679h12.515l1.931-2.1 4.158 3.108a3.279 3.279 0 0 1-1.8.882V97.59c-.042.294-1.975 1.05-3.192 1.05h-.63v-2.562H180v2.058c0 .378-1.6 1.218-3.191 1.218zm11.969-4.494h5v-5.921h-5zm-8.231 0h4.914v-5.921H180zm8.231-7.14h5v-5.8h-5zm-8.231 0h4.914v-5.8H180zm25.872 8.861a5.826 5.826 0 0 0-3.443-1.3v-.63s4.031.293 4.872.293c.714 0 .923-.251.923-.84V61.052l5.208.545c-.085.589-.5 1.008-1.512 1.134V94.4c0 2.856-.546 4.451-5.166 4.914a4.886 4.886 0 0 0-.884-2.729zm-5.336-6.258V63.656l5.039.5c-.126.545-.462.966-1.47 1.092v23.9c0 .42-1.553 1.175-2.9 1.175zm-22.553-11.756V66.722l3.99 1.638h8.946l1.931-2.057 4.158 3.065a3.3 3.3 0 0 1-1.764.882v6.636a6.324 6.324 0 0 1-3.234.966h-.676v-1.513h-9.575v1.05c0 .294-1.68 1.176-3.234 1.176zm3.78-3.444h9.571v-5.587h-9.575zm-6.722-10.375-.337-1.218h17.933l2.183-2.856s2.6 2.016 4.158 3.4c-.126.463-.545.672-1.134.672zM247.537 96.834a3.773 3.773 0 0 0-1.093-.714 1.845 1.845 0 0 1-2.141-.336 8.656 8.656 0 0 0-2.31-4.956l.42-.293c4.451 1.008 5.417 3.317 4.829 4.7.546.042 1.05.042 1.344.042a1.472 1.472 0 0 0 1.134-.294c.546-.419 1.008-2.1 1.345-5.333H229.1v.84c0 .294-1.26 1.176-3.234 1.176h-.294c.463 3.612-1.218 5.921-2.982 6.719-1.3.546-2.939.294-3.36-.966a2.286 2.286 0 0 1 1.512-2.688c1.68-.545 3.7-2.142 3.948-4.2h.5V74.156l4.452 1.722h17.932l2.142-2.394s2.436 1.638 3.99 2.94a1 1 0 0 1-1.092.671h-12.639v2.982h6.006L248 77.768s2.226 1.6 3.654 2.856c-.085.42-.5.63-1.092.63h-10.587v2.982h6.006L248 81.927s2.268 1.6 3.738 2.856c-.126.462-.546.671-1.134.671h-10.629v2.983h10.751l2.016-1.89 3.7 2.982a2.437 2.437 0 0 1-1.553.671c-.378 4.746-1.176 7.14-2.814 8.19a7.723 7.723 0 0 1-3.947.924 3.77 3.77 0 0 0-.591-2.48m-18.437-8.4h7.056v-2.982H229.1zm0-4.2h7.056v-2.981H229.1zm0-4.158h7.056V77.1H229.1zm.166 17.052a15.263 15.263 0 0 0-.126-6.048l.546-.126c5.049 3.378 3.392 7.164 1.3 7.164a2.173 2.173 0 0 1-1.72-.99zm7.854-.3a12.471 12.471 0 0 0-2.016-5.963l.462-.252c6.6 2.49 5.3 6.886 3.056 6.886a2.208 2.208 0 0 1-1.5-.667zm-18.732-20.405a16.034 16.034 0 0 0 7.312-10.751h-5.963l-.378-1.219h6.552a24.578 24.578 0 0 0 .336-4.283l5.5.714c-.126.63-.588 1.008-1.554 1.092q-.17 1.249-.462 2.478h4.116l1.848-1.763 3.487 2.813a2.546 2.546 0 0 1-1.512.63c-.252 4.158-.841 6.467-2.31 7.434a7.022 7.022 0 0 1-3.864.966 3.1 3.1 0 0 0-.63-2.31 6.508 6.508 0 0 0-2.939-1.092V70.5c1.218.084 3.4.252 4.116.252a1.876 1.876 0 0 0 1.134-.252c.462-.462.8-2.016 1.008-4.829h-4.743c-1.345 4.535-4.243 8.693-10.71 11.3zm22.427-1.68V61.892l3.948 1.638h6.137l1.848-1.932 3.906 2.9a2.8 2.8 0 0 1-1.512.8v7.811a6.061 6.061 0 0 1-3.192 1.008h-.671V71.8H244.6v1.722c0 .336-1.638 1.218-3.234 1.218zm3.78-4.158h6.678v-5.837H244.6zM277.27 98.766c4.116-1.89 6.845-4.158 8.567-7.056a21.936 21.936 0 0 1-4.2-8.4l.588-.378a15.8 15.8 0 0 0 4.7 6.51 22.128 22.128 0 0 0 1.218-7.812v-1.847h-4.536v1.679c0 .252-1.092.924-2.856.924h-.63V66.26l3.947 1.6h4.074v-7.6l5.207.5c-.084.588-.419 1.008-1.512 1.176v5.921h4.032l1.722-2.057 3.612 2.772a2.359 2.359 0 0 1-1.6.755v11.758a4.3 4.3 0 0 1-2.982.924h-.63v-2.226h-4.154v1.848a19.664 19.664 0 0 1-2.226 9.66 35.525 35.525 0 0 0 12.137 3.738v.5a4.534 4.534 0 0 0-3.311 3.573c-4.325-1.26-7.9-2.9-10.667-5.417-2.226 2.393-5.544 4.2-10.08 5.628zm14.573-20.2H296v-9.493h-4.164zm-8.231 0h4.536v-9.493h-4.536zM270.678 96.96a5.65 5.65 0 0 0-2.6-1.049v-.672c1.134.084 2.94.252 3.7.252a1.362 1.362 0 0 0 1.175-.42c.672-.629 1.134-2.813 1.428-7.139a1.254 1.254 0 0 1-1.725.411 1.278 1.278 0 0 1-.207-.159 6.775 6.775 0 0 0-2.015-3.906l.462-.294c2.226.588 3.276 1.6 3.612 2.52.042-1.3.126-2.687.168-4.284h-7.644v1.18c0 .252-1.05 1.092-2.688 1.092h-.544V61.934l3.738 1.553h6.593l1.932-2.352s2.141 1.638 3.527 2.9a1 1 0 0 1-1.092.671h-5.376v4.536h.966l1.638-2.142s1.848 1.512 2.982 2.688c-.084.462-.462.671-1.049.671h-4.536v4.578h.84l1.68-2.142s1.848 1.553 2.982 2.687c-.084.463-.5.672-1.05.672h-4.451V81h1.176l1.8-1.89 3.444 2.856a2.393 2.393 0 0 1-1.638.715c-.294 9.7-1.05 13.733-2.688 15.2a5.555 5.555 0 0 1-3.99 1.344 3.261 3.261 0 0 0-.557-2.266zM267.021 81h3.024v-4.745h-3.024zm0-5.963h3.024v-4.578h-3.024zm0-5.8h3.024v-4.531h-3.024zm-4.913 23.435c1.176-1.26 1.806-3.7 1.848-6.8h.672c1.841 7.067-.224 9.46-1.715 9.46-1.027 0-1.781-1.133-.806-2.656zm4.029.213a19.923 19.923 0 0 0-.168-7.266l.63-.126c3.5 4.215 2.181 8.01.6 8.01a1.378 1.378 0 0 1-1.062-.618m3.53-1.763a14.039 14.039 0 0 0-1.471-6.132l.589-.21c4.406 3.3 3.481 6.85 1.914 6.85a1.472 1.472 0 0 1-1.032-.509zM305.323 99.018c3.738-6.3 4.032-14.237 4.032-21.461V65.378l4.662 1.806h13.229a3.03 3.03 0 0 1-.924-.42 16.855 16.855 0 0 0-4.031-6.341l.336-.294c8.567 1.176 8.441 6.258 5.963 7.056h9.66l2.352-3.109s2.688 2.1 4.326 3.654c-.126.463-.546.672-1.134.672h-30.45v9.156c0 6.845-.419 15.79-7.475 21.839zm6.049-1.264-.336-1.218h15.077v-7.3h-11.088l-.337-1.218h11.424V68.78l5.333.5c-.041.588-.419.966-1.386 1.134v17.6h5.334l2.268-2.94s2.561 2.058 4.116 3.487c-.085.462-.546.671-1.134.671h-10.584v7.308h8.441l2.352-3.15s2.73 2.142 4.326 3.7c-.127.463-.546.672-1.134.672zm2.14-11.673c2.226-3.9 3.738-9.575 4.242-15.455l5.124 1.05c-.126.462-.588.882-1.512.923a38.136 38.136 0 0 1-1.176 4.074c7.728 3.779 4.452 9.365 1.638 6.8a13.258 13.258 0 0 0-2.057-5.669 23.448 23.448 0 0 1-5.628 8.651zm17.135-1.171c2.057-3.486 3.612-8.778 4.2-14.153l5.292 1.176c-.168.545-.63.923-1.554.923a29.359 29.359 0 0 1-1.512 4.242c9.03 3.654 6.216 10.121 2.94 7.644a16.687 16.687 0 0 0-3.4-6.636 22.409 22.409 0 0 1-5.376 7.223z"/></svg>