<svg xmlns="http://www.w3.org/2000/svg" width="600" height="200" fill="#111"><path d="M9.824 38.764C29.479 29.944 30.7 19.109 31.033 2.856L37 3.444c-.085.63-.589 1.134-1.6 1.218-.372 8.945-1 16.5-5.372 22.595C42.917 32.8 40.355 41.242 35.9 38.47c-1.219-3.15-4.117-6.971-6.8-9.953-3.654 4.409-9.449 8.063-18.9 10.961zm-9.615-7.35c1.386-.293 3.486-.84 5.963-1.553L5.753 2.73l5.543.42c-.041.588-.378 1.049-1.511 1.218l.377 24.316c3.361-1.049 7.14-2.226 10.794-3.443l.168.545a178.929 178.929 0 0 1-17.6 9.241 1.815 1.815 0 0 1-1 1.133zm20.415-13.985c-.882-3.149-3.78-7.055-6.089-9.617l.419-.252c11.12 3.671 10.461 10.486 7.375 10.486a3.006 3.006 0 0 1-1.7-.617M56.738 38.89c4.284-1.723 9.2-5 11.549-7.9l4.41 2.772c-.21.336-.714.419-1.427.21-3.024 2.394-9.113 4.7-14.237 5.5zm23.386.252c-1.26-2.52-4.452-5.628-6.888-7.308l.336-.378c11.046 1.353 10.866 7.982 7.759 7.982a2.859 2.859 0 0 1-1.2-.3zm-35.985-5.586c1.931-.293 5.459-.882 9.659-1.679.756-2.73 1.6-6.258 2.016-8.82l5.124 1.343c-.126.462-.63.881-1.553.84a56.708 56.708 0 0 1-4.2 6.384c2.394-.463 4.956-.967 7.56-1.512l.084.588c-3.4 1.638-8.274 3.738-15.329 6.467a1.728 1.728 0 0 1-1.05 1.05zM64 32V8.19l4.12 1.721h1.512c.167-1.427.378-3.4.5-5.081h-7.22l.126.126c-.126.462-.545.672-1.133.672H44.643l-.337-1.219h12.349l2.269-2.939s2.016 1.6 3.528 2.939l-.21-.8h14.7L79.336.543s2.688 2.145 4.364 3.614c-.126.463-.545.672-1.175.672h-7.854A44.81 44.81 0 0 1 71.1 9.91h5.544l1.889-2.015 3.867 2.982a2.656 2.656 0 0 1-1.471.756v18.52c-.041.294-1.931 1.176-3.275 1.176h-.629v-1.763h-9.116v1.092c0 .42-1.6 1.345-3.275 1.345zm3.9-3.654h9.115v-4.953h-9.106zm0-6.174h9.115v-4.953h-9.106zm0-6.173h9.115V11.13h-9.106zM48.717 30.532a15.932 15.932 0 0 0-1.386-6.971l.5-.21c6.364 3.437 4.869 8.005 2.553 8a2.323 2.323 0 0 1-1.667-.819m-2.393-7.769V9.24l3.612 1.512h6.552l1.722-1.89 3.822 2.9a3.49 3.49 0 0 1-1.6.8v8.815c-.041.293-1.805 1.134-2.982 1.134h-.586v-1.68h-7.14v.882c0 .336-1.47 1.05-2.9 1.05zm3.4-3.15h7.14V11.97h-7.14zM109.23 36.785c-.63-.63-1.722-1.092-3.864-1.427v-.581s4.661.293 5.585.293c.756 0 .966-.167.966-.756v-7.268H89.749l-.378-1.218h22.553v-3.951l5.376.5c-.126.63-.5.966-1.427 1.092v2.352h4.577l2.184-2.772s2.478 1.89 3.99 3.318c-.126.462-.546.671-1.134.671h-9.617v7.476c0 2.9-.63 4.577-5.67 5.039a4.432 4.432 0 0 0-.968-2.763zm-8.392-2.264c-.378-2.268-2.352-4.956-4.116-6.51l.42-.294c8.95 1.444 8.007 7.323 5.193 7.322a2.668 2.668 0 0 1-1.5-.516zm-7.314-13.308L93.187 20h12.263v-4.423H91.639l-.378-1.218h14.195v-4.027l5.081.5c-.041.5-.336.84-1.175.966v2.562h9.2l2.016-2.562s2.352 1.806 3.822 3.108c-.126.463-.546.672-1.134.672h-13.9v4.41h7.223l2.142-2.73s2.435 1.89 3.947 3.275c-.084.463-.5.672-1.092.672zm-5.456-8.361A37.11 37.11 0 0 0 94.662.168L100 1.932c-.168.463-.714.8-1.638.756-.336.63-.672 1.26-1.05 1.89h6.174l1.931-2.52s2.184 1.723 3.528 3.066a1 1 0 0 1-1.092.671H96.468a25.83 25.83 0 0 1-7.853 7.476zm28.432-1.638a7.751 7.751 0 0 0-2.688-4.284l.42-.293c7.029.674 6.016 5.069 3.658 5.069a2.4 2.4 0 0 1-1.39-.492m-16.421-.126a7.975 7.975 0 0 0-2.394-4.242l.42-.21c6.569.913 5.557 4.971 3.354 4.97a2.277 2.277 0 0 1-1.38-.518m6.341-1.344a29.1 29.1 0 0 0 4.663-9.576l5.207 2.058a1.5 1.5 0 0 1-1.637.714 22.646 22.646 0 0 1-1.093 1.6h7.223l2.141-2.692s2.394 1.848 3.906 3.234c-.126.462-.5.672-1.134.672h-13.143a20.176 20.176 0 0 1-5.628 4.409zM146.146 39.011c3.443-6.048 3.779-13.356 3.779-19.319v-5.707c-.714.5-1.427.923-2.142 1.344l-.336-.5c3.948-3.443 8.274-9.912 9.282-14.363l5.25 1.134c-.084.42-.5.63-1.428.714 2.058 3.822 6.426 6.552 10.373 8.274l-.126.546a3.849 3.849 0 0 0-2.561 3.065 22.964 22.964 0 0 1-8.269-11.422 26.006 26.006 0 0 1-5.88 7.895h5.292L161.1 8.4s1.89 1.637 3.108 2.813a.955.955 0 0 1-1.05.672h-9.071l-.252-.967a27.292 27.292 0 0 1-3.276 2.646l3.4 1.344h10.123l1.68-1.763 3.569 2.687a2.348 2.348 0 0 1-1.344.672v8.1c-.042.336-1.806 1.134-2.982 1.134h-.583v-1.211h-11.3a18.768 18.768 0 0 1-.252 2.141l3.53 1.432h8.735l1.722-1.974 3.528 2.687a2.335 2.335 0 0 1-1.554.715v8.147a4.384 4.384 0 0 1-2.982.882h-.588v-1.851H155.9v1.6c0 .252-1.134.924-2.857.924h-.588V28.643a20.551 20.551 0 0 1-5.8 10.835zm9.743-3.528h9.365v-6.169h-9.365zM153.158 23.3h11.266v-2.973H153.29c0 .924-.041 1.932-.126 2.982zm.126-4.2h11.14v-2.972H153.29zm-21.832 19.958c2.52-4.7 2.856-10.667 2.9-16.673l-1.176.252a1.614 1.614 0 0 1-1.134.923l-.966-3.947c.84 0 1.974-.042 3.276-.126V4.877l3.738 1.553h.252c.21-1.722.5-4.2.714-6.006l5.334 1.008c-.168.63-.672.967-1.554 1.008a99.985 99.985 0 0 1-2.982 3.99h3.108l1.554-1.89 3.7 2.814a2.823 2.823 0 0 1-1.6.756v10.16l2.183-.294.085.672c-.715.21-1.471.462-2.268.671v15.5c0 2.352-.5 3.738-4.326 4.116a3.4 3.4 0 0 0-.671-2.142 4.8 4.8 0 0 0-2.772-1.092v-.63s3.024.252 3.738.252c.63 0 .8-.252.8-.8v-14.28c-1.806.5-3.738.966-5.88 1.47-.085 6.132-.672 12.936-5.5 17.765zm6.048-19.823c1.8-.168 3.821-.378 5.88-.588v-11h-5.88zm2.31 10.8a18.069 18.069 0 0 0-1.427-7.854l.588-.293c5.543 4.522 3.762 8.935 1.991 8.935a1.367 1.367 0 0 1-1.153-.791zm-.039-13.4a15.643 15.643 0 0 0-1.764-7.14l.545-.294c5.721 3.837 4.149 8.149 2.372 8.149a1.425 1.425 0 0 1-1.156-.713zM194.024 39.016c7.181-6.3 10.037-13.566 11.171-20.915h-1.971l-1.386 1.638-3.238-2.268v3.906a4.274 4.274 0 0 1-2.6.966h-.5v-2.1h-3.7v9.534c1.3-.589 2.688-1.3 4.116-2.058a34.47 34.47 0 0 0-1.974-4.116l.42-.252c8.819 4.325 5.459 10.709 2.435 7.937a10.032 10.032 0 0 0-.5-2.435c-1.47 1.427-3.443 3.486-5.711 5.5a2.808 2.808 0 0 1-1.3 1.512l-1.974-4.284c1.05-.588 1.219-.882 1.219-1.848V1.638l3.821 1.89h2.768l1.6-1.68 3.234 2.561a2.5 2.5 0 0 1-1.344.672v12.264a9.506 9.506 0 0 1 1.427-.8c.463-3.317.924-8.735 1.05-11.717h-1.008l-.336-1.175h8.693l2.184-2.94s2.478 2.016 3.99 3.443c-.126.463-.546.672-1.134.672h-3.906a96.968 96.968 0 0 1-.84 12.1h.923l1.849-2.645s2.1 1.848 3.317 3.149c-.126.463-.5.672-1.092.672h-5.207a38.3 38.3 0 0 1-1.008 4.451l3.023.294c-.084.546-.5.924-1.259 1.05v10.917c0 .42.084.546.5.546h.755a4.338 4.338 0 0 0 .756 0c.211 0 .337-.042.5-.42a51.5 51.5 0 0 0 1.219-5.081h.5l.126 5.25a1.348 1.348 0 0 1 1.008 1.427c0 1.26-1.219 2.016-4.326 2.016h-1.6c-2.394 0-2.73-.84-2.73-2.856v-9.03a30.875 30.875 0 0 1-11.34 13.019zM191.8 19.025h3.7v-6.677h-3.7zm11.214-2.1h2.352a98.643 98.643 0 0 0 .671-12.1h-1.977c-.2 3.2-.624 8.531-1.044 12.1zm-11.214-5.8h3.7V4.746h-3.7zm-11.72 28.348V22.091a35.067 35.067 0 0 1-4.536 7.518l-.588-.546c2.52-4.872 3.947-11.129 4.7-17.219h-3.864l-.336-1.218h4.62V.294l4.955.546c-.126.63-.462 1.008-1.553 1.176v8.609h.041l1.806-2.52s2.016 1.805 3.192 3.065c-.126.463-.5.672-1.093.672h-3.947v2.982c6.929 3.906 4.116 8.9 1.764 6.636a14.4 14.4 0 0 0-1.764-5.418v22.092c0 .419-1.47 1.344-2.73 1.344zM234.3 38.218c-4.409 0-5.376-.672-5.376-3.443v-9.954l5.292.462c-.084.546-.462.924-1.3 1.05v7.727c0 .63.211.8 2.016.8h5.368c2.1 0 3.948 0 4.662-.042a1.128 1.128 0 0 0 1.092-.588 27.034 27.034 0 0 0 1.764-4.662h.462l.126 4.83c1.3.462 1.638.882 1.638 1.6 0 1.764-1.848 2.226-10.121 2.226zm-14.021-2.772c-.462-1.134.252-2.142 1.3-2.73a8.114 8.114 0 0 0 3.528-6.593h.671c1.6 5.081-.167 8.526-2.057 9.785a3.157 3.157 0 0 1-1.7.524 1.818 1.818 0 0 1-1.741-.986zm33.262-.632c-.419-2.982-2.645-6.467-4.872-8.567l.42-.294c9.848 2.875 8.961 9.473 6.052 9.473a2.69 2.69 0 0 1-1.6-.61zM239.6 30.952c-.126-2.435-1.806-5.376-3.444-7.14l.42-.293c8.207 2.416 7.128 8.047 4.541 8.047a2.427 2.427 0 0 1-1.517-.614m2.647-6.59a27.838 27.838 0 0 0 2.982-6.8h-18.947l-.378-1.218h19.277l2.226-1.932 3.906 2.814c-.293.378-.714.462-1.638.546a20.642 20.642 0 0 1-7.014 7.139zm-23.265-9.033C226.411 11.76 233.089 5.46 235.693 0l6.048 1.722c-.168.546-.546.756-1.89.882 4.073 3.821 11 6.677 18.437 7.9l-.041.63a4.963 4.963 0 0 0-2.9 3.947C248.207 12.6 242.5 8.445 239.22 3.07c-3.612 4.746-11.213 10.247-20.075 12.81zm12.512-2.687-.337-1.219h9.324l1.89-2.561s2.183 1.8 3.443 3.108c-.126.462-.462.672-1.049.672zM5.036 96.37c-.671-.714-1.763-1.175-3.821-1.511v-.63s4.577.293 5.544.293c.756 0 .966-.252.966-.84V83.141c-1.554.8-3.191 1.6-4.955 2.478a1.877 1.877 0 0 1-.97 1.134L0 81.965c1.553-.336 4.324-1.088 7.724-2.1v-8.4H1.091l-.335-1.218h6.968v-9.785l5.418.545c-.085.589-.5 1.008-1.512 1.176v8.064h1.6l1.97-2.856a48.327 48.327 0 0 1 3.654 3.4c-.084.462-.5.672-1.092.672h-6.129v7.223c2.309-.672 4.787-1.47 7.223-2.226l.168.545c-1.975 1.093-4.41 2.478-7.392 4.074V94.1c0 3.023-.63 4.829-5.586 5.333a5.112 5.112 0 0 0-1.007-3.063zm19.28-.293c-.923-.672-2.183-1.134-4.913-1.512v-.63s6.132.42 7.349.42c.84 0 1.092-.294 1.092-.924V66.762h-12.18l-.34-1.218h17.938l2.438-3.191s2.688 2.183 4.368 3.738c-.126.462-.545.671-1.175.671H31.96V93.6c0 2.939-.8 5.081-6.341 5.5a3.988 3.988 0 0 0-1.3-3.022M44.223 95.11c1.68-1.049 4.158-3.149 5.628-4.031a30.039 30.039 0 0 0 3.906-9.491h-3.4l-1.386 1.218-3.236-2.479a6.617 6.617 0 0 1 1.638-.715 76.738 76.738 0 0 0 4.451-7.054h-6.677l-.378-1.218h7.391l1.849-1.89 3.738 3.36a3.451 3.451 0 0 1-2.436.672c-1.175 1.889-3.024 4.787-4.451 6.887h2.687l2.1-2.015 3.612 2.982c-.294.378-.715.5-1.6.545a21.363 21.363 0 0 1-6 8.9 2.461 2.461 0 0 1 .671.42c3.486 3.15 8.442 3.738 17.177 3.738 4.913 0 8.987-.042 14.027-.294v.546a3.621 3.621 0 0 0-2.814 3.276H68.2c-8.819 0-12.683-1.471-16.379-5.922-.588-.672-1.008-.588-1.344.042-.756 1.3-2.1 3.653-3.066 5.585a.722.722 0 0 1-.252.882zm15.921-1.89V78.395l4.07 1.682h10.625l1.848-2.016 3.99 3.024a3.273 3.273 0 0 1-1.679.84v9.7c-.042.337-1.89 1.134-3.15 1.134h-.63v-2.688H64v1.974c0 .336-1.722 1.176-3.276 1.176zm3.864-4.368h11.209v-7.56H64zm-6.384-12.683-.336-1.218h10.706V68.61h-4.956a20.239 20.239 0 0 1-4.494 5.627l-.63-.336a42.54 42.54 0 0 0 3.528-12.179l5.25 1.47a1.466 1.466 0 0 1-1.553.882 29.472 29.472 0 0 1-1.471 3.317h4.326V60.42l5.333.5c-.084.588-.462 1.008-1.512 1.176v5.291h2.52l2.226-2.856s2.52 1.932 4.074 3.4c-.126.462-.546.672-1.134.672h-7.686v6.341h4.368L78.451 72s2.646 2.058 4.2 3.486a1 1 0 0 1-1.093.672zm-7.143-8.483a14.638 14.638 0 0 0-4.242-6.426l.378-.293c9.24 1.2 8.334 7.189 5.361 7.189a2.863 2.863 0 0 1-1.5-.47M105.413 99.477v-12.43A51.341 51.341 0 0 1 88.7 97.8l-.336-.672a43.454 43.454 0 0 0 17.05-16.589v-9.577h-16.59l-.336-1.219h16.924v-4.115c-4.661.294-9.533.546-14.026.546l-.085-.756a177.6 177.6 0 0 0 26.623-4.956l3.822 3.9a2.514 2.514 0 0 1-2.478-.167c-2.857.378-6.258.756-9.912 1.092v4.451H119.6l2.478-3.023s2.814 2.057 4.494 3.569c-.084.462-.546.672-1.134.672h-16.08v9.874c3.486 6.258 10.416 10.961 17.428 12.851l-.084.462a4.453 4.453 0 0 0-3.234 3.486 27.135 27.135 0 0 1-14.11-14.652v15.329c0 .294-1.26 1.176-3.234 1.176zm-16.546-15.37c1.805-.252 5.333-.841 9.365-1.554v-5.081h-7.77l-.378-1.219h8.148V71.97l4.662.419c-.085.463-.378.8-1.219.967v8.567l1.806-.336.126.63c-2.52 1.175-6.215 2.771-11.507 4.829a1.443 1.443 0 0 1-.924.924zm27.676 1.049c-3.108 0-3.612-.756-3.612-2.982V72.011l4.62.463a1.2 1.2 0 0 1-1.218 1.008V76.5h3.36l1.89-2.309s2.226 1.6 3.612 2.856c-.126.462-.545.63-1.134.63h-7.727V81.5c0 .546.084.715 1.134.715h2.688c1.049 0 2.1 0 2.519-.042a5.375 5.375 0 0 0 .841-.042 7.294 7.294 0 0 0 .923-.21h.42l.168.084c1.007.378 1.344.63 1.344 1.3 0 1.427-1.344 1.848-6.593 1.848zM132 97.588l-.378-1.219h17.345v-9.826h-13.9l-.336-1.218h14.239V60.546l5.585.546c-.126.63-.419 1.049-1.553 1.218v23.015h7.644l2.519-3.234s2.94 2.183 4.746 3.779c-.126.463-.588.672-1.175.672H153v9.827h10.16l2.646-3.4s3.066 2.309 4.872 3.947c-.126.462-.545.672-1.218.672zm-.088-15.162c3.613-4.2 6.678-10.835 7.854-18.269l5.5 1.512c-.126.5-.63.924-1.554.882a38.41 38.41 0 0 1-2.394 5.963c8.9 3.318 5.922 9.7 2.562 7.182a16.225 16.225 0 0 0-3.232-5.919 25.8 25.8 0 0 1-8.232 9.072zm21.335-.714c3.065-4.242 5.291-10.542 5.921-17.6l5.67 1.219c-.126.545-.588.966-1.554.966a35.563 35.563 0 0 1-2.1 6.3c11 3.317 8.4 10.835 4.578 8.357-.8-2.436-2.983-5.25-5.04-7.349a21.511 21.511 0 0 1-6.93 8.483zM199.024 96.79a5.587 5.587 0 0 0-3.444-1.3v-.59s3.947.252 4.829.252c.63 0 .841-.252.841-.8V76.464h-8.15l-.378-1.219h16.463l2.226-2.141 3.78 3.612a2.349 2.349 0 0 1-1.679.5 43.5 43.5 0 0 1-6.59 6.051l-.462-.293a67.5 67.5 0 0 0 2.814-6.51h-4.2v18.013c0 2.73-.63 4.577-5.166 4.955a4.07 4.07 0 0 0-.886-2.642m-21.588 2.6V83.477l3.822 1.637h1.644v-5.669h-7.182l-.336-1.218h7.518v-5.25h-4.41l-.042-.211a29.964 29.964 0 0 1-3.612 2.6l-.462-.378a41.277 41.277 0 0 0 8.022-14.531l5.669 1.638c-.126.5-.588.8-1.722.84 10.625 2.9 8.022 8.483 5.124 7.979.546.462 1.134.924 1.638 1.386a1.006 1.006 0 0 1-1.092.672h-5.418v5.25h2.394L191 75.576s2.309 1.848 3.7 3.191c-.126.463-.5.672-1.092.672H186.6v5.669h1.6l1.8-1.974 3.906 2.94a3.111 3.111 0 0 1-1.638.8v10.962c-.042.293-1.89 1.008-3.066 1.008h-.588v-2.767h-7.56v2.142c0 .378-1.553 1.175-3.108 1.175zm3.612-4.535h7.56v-8.564h-7.56zm-1.512-23.1h8.106l1.889-2.435.63.5a15.332 15.332 0 0 0-4.073-6.426 37.283 37.283 0 0 1-6.549 8.361zm23.988 3.066c-1.008-2.394-3.78-5.292-6.006-6.888l.378-.378a14.784 14.784 0 0 1 6.384 2.183 43.852 43.852 0 0 0 3.7-5.543h-13.865l-.378-1.134h14.321l2.226-2.184 3.742 3.571a2.658 2.658 0 0 1-1.68.5 35.95 35.95 0 0 1-7.27 5.425c2.351 2.211 1.536 4.773-.339 4.773a2.69 2.69 0 0 1-1.211-.324zM218.723 95.026c1.47-1.008 3.612-2.856 4.955-3.738a29.533 29.533 0 0 0 3.57-10.038h-3.024l-1.3 1.176-3.023-2.31a6.642 6.642 0 0 1 1.553-.714c1.218-1.974 2.856-5 3.864-7.14h-5.459l-.378-1.218h5.837l1.638-1.68 3.4 3.066a3.208 3.208 0 0 1-1.89.63c-.966 1.89-2.6 4.872-3.864 6.971H227l2.016-1.931 3.36 2.856V70.377l3.7 1.638h2.478a3.374 3.374 0 0 1-.882-.545 8 8 0 0 0-1.512-4.494l.42-.211c5.88 1.219 5.376 4.536 3.528 5.25h5.418a35.208 35.208 0 0 0 1.175-5.291l5.459 1.175c-.126.5-.629.882-1.511.882a23.282 23.282 0 0 1-3.78 3.234h3.654L252.241 70l3.99 3.024a3.136 3.136 0 0 1-1.806.841V90.2c0 2.226-.5 3.4-4.451 3.738a3.211 3.211 0 0 0-.588-1.848 5.069 5.069 0 0 0-2.688-.882v-.628s2.772.21 3.486.21c.589 0 .756-.252.756-.756v-16.8h-15.124v19.231c0 .378-1.427 1.175-2.9 1.175h-.545v-12.6c-.252.294-.672.42-1.554.462a22.041 22.041 0 0 1-5.459 9.324 2.247 2.247 0 0 1 .882.462c3.443 3.024 8.441 3.528 17.554 3.528 5.124 0 9.2 0 14.363-.294v.546a3.662 3.662 0 0 0-2.856 3.276h-12.807c-9.282 0-13.145-1.3-16.716-5.67-.629-.714-1.007-.63-1.344.042a72.636 72.636 0 0 0-2.52 5.291.719.719 0 0 1-.21.882zm19.4-3.949V80.5l3.024 1.3h.84v-3.7h-5.04l-.336-1.219h5.376V73.86l4.036.417c-.085.462-.378.8-1.134.924v1.679h1.386l1.553-2.057s1.806 1.47 2.9 2.6a.955.955 0 0 1-1.05.672h-4.787v3.7h.8l1.386-1.512 2.814 2.478a2.692 2.692 0 0 1-1.512.715v5.754a3.6 3.6 0 0 1-2.268.8h-.546v-1.388h-4.62v1.512c0 .252-1.26.924-2.394.924zm2.813-3.654h4.62v-4.41h-4.62zM224.1 67.769a13.377 13.377 0 0 0-3.15-6.467l.378-.294c8.137 1.99 6.985 7.347 4.326 7.347a2.585 2.585 0 0 1-1.557-.585zm6.338-1.3-.293-1.219h11.845a2.487 2.487 0 0 1-.42-.293 8.535 8.535 0 0 0-2.016-4.452l.378-.252c5.922.924 6.048 3.948 4.494 5h6.048l2.309-2.771s2.6 1.889 4.242 3.317c-.126.462-.545.672-1.133.672zM268.49 99.477V60.462l5.417.588c-.126.588-.419 1.008-1.553 1.176v36.033c0 .42-1.638 1.219-3.066 1.219zm6.933-1.427-.336-1.218h11.3v-12.6h-7.938l-.336-1.219h8.274V72.81h-5.423a27.473 27.473 0 0 1-5.081 8.148l-.63-.294a58.522 58.522 0 0 0 4.371-17.387l5.291 1.386a1.455 1.455 0 0 1-1.553.924 43.667 43.667 0 0 1-1.89 6.006h4.914V60.8l5.333.546c-.084.588-.378.966-1.344 1.092v9.156h4.494l2.309-3.024s2.6 2.057 4.158 3.569c-.126.463-.546.672-1.134.672h-9.827v10.204h3.649l2.227-3.024s2.561 2.058 4.031 3.57c-.126.462-.5.672-1.092.672h-8.819v12.6h5.417l2.394-3.15s2.646 2.183 4.284 3.7c-.084.463-.546.672-1.134.672zm-12.729-18.858c-.63-.882-.21-1.974.672-2.772a12.9 12.9 0 0 0 2.183-7.518h.715c1.427 4.62.84 8.148-.337 9.869a2.53 2.53 0 0 1-1.964 1.035 1.5 1.5 0 0 1-1.269-.613zm11.847-5.207a13.591 13.591 0 0 0-1.8-6.174l.5-.21c5.912 2.9 4.68 7 2.654 7a1.964 1.964 0 0 1-1.352-.615z"/></svg>