<svg xmlns="http://www.w3.org/2000/svg" width="600" height="200" fill="#111"><path d="M6.51 39.016V2.772l4.452 1.848H28.1l2.142-2.311 4.283 3.4a3.435 3.435 0 0 1-1.722.882v30.787c-.084.337-2.058 1.345-3.612 1.345h-.672v-3.655H10.626v2.394c0 .545-1.6 1.553-3.4 1.553zm4.116-5.165h17.891V20.2H10.626zm0-14.867h17.891V5.838H10.626zM60.981 39.184v-9.491h-8.228l-.336-1.218h8.568V16.338a41.515 41.515 0 0 1-17.139 16.883l-.463-.463c7.014-5.417 12.306-13.817 14.952-21.8H45.358l-.378-1.219h16V.209l5.8.591c-.084.63-.462 1.092-1.722 1.3v7.64h9.2L76.9 6.3s2.94 2.352 4.662 3.99c-.126.462-.546.672-1.176.672h-14.5a37.2 37.2 0 0 0 16.841 17.05l-.085.463A4.929 4.929 0 0 0 78.871 32c-6.215-4.325-11-11.591-13.817-21v17.475h2.352l2.31-3.235s2.646 2.227 4.2 3.78c-.126.463-.546.672-1.134.672h-7.729v8.231c0 .462-1.638 1.26-3.276 1.26zM117.594 36.664c-.546-.588-1.471-1.05-3.36-1.3v-.588s3.779.252 4.746.252c.714 0 .881-.293.881-.84V21.923H94.327v16.043c0 .336-1.722 1.26-3.318 1.26h-.63V18.984l4.284 1.725h24.779l1.89-2.142 4.283 3.234a3.247 3.247 0 0 1-1.763.84v11.968c0 2.687-.63 4.283-5.376 4.7a4.132 4.132 0 0 0-.882-2.645M99.2 35.235V23.6l3.864 1.6h7.39l1.805-1.848 3.864 2.813a2.7 2.7 0 0 1-1.553.84v6.555c-.042.294-1.89 1.092-3.108 1.092h-.63v-2.061h-7.938V34.1c0 .336-1.679 1.133-3.15 1.133zm3.7-3.864h7.938v-4.954H102.9zm-6.22-11.926V8.232l4.158 1.679h12.1l1.931-2.1 4.243 3.15a3.3 3.3 0 0 1-1.764.882V18.1a6.573 6.573 0 0 1-3.318.966h-.676v-1.805h-12.769v.967c0 .336-1.764 1.218-3.36 1.218zm3.906-3.4h12.768v-4.916h-12.769zM88.112 6.636l-.337-1.218h18.143a10.87 10.87 0 0 0-3.906-5.124l.341-.294c7.349.126 8.105 3.99 6.467 5.418h9.912l2.645-3.15s2.94 2.142 4.746 3.7c-.126.462-.545.671-1.175.671zM159.466 32.38a30.6 30.6 0 0 1-11.676 6.846l-.336-.589a29.069 29.069 0 0 0 10.541-8.567 42.132 42.132 0 0 1-4.283-13.861h-.63c-.672 8.735-2.646 16.757-8.9 23.1l-.672-.588c6.384-9.828 6.216-22.175 6.258-34.144h-3.115l-.378-1.218H160.6l1.679-1.89 3.78 3.023a2.168 2.168 0 0 1-1.47.546l-1.428 9.953h.546l2.226-2.141 3.738 3.36c-.294.419-.756.545-1.722.671a33.488 33.488 0 0 1-6.174 13.062 28.324 28.324 0 0 0 8.735 5.88l-.126.462a4.424 4.424 0 0 0-3.7 3.024 25.807 25.807 0 0 1-7.215-6.929m.21-4.829a34.861 34.861 0 0 0 4.283-11.342h-9.406a27.662 27.662 0 0 0 5.122 11.342zm-6.51-12.558h6.258l1.429-10.415H153.5c-.04 3.531-.082 7.014-.334 10.415zm-22.182 22.175a2.323 2.323 0 0 1 .841-2.9 9.873 9.873 0 0 0 2.057-6.636h.672c1.47 4.368 1.008 7.686-.126 9.324a2.457 2.457 0 0 1-1.942.948 1.749 1.749 0 0 1-1.5-.736zM138 34.942a21.961 21.961 0 0 0-.419-7.853l.588-.168c4.981 4.337 3.4 8.866 1.325 8.866a1.953 1.953 0 0 1-1.494-.845m5.713-2.433a12.465 12.465 0 0 0-1.975-6.089l.5-.252c6.1 2.615 4.909 6.937 2.815 6.937a2 2 0 0 1-1.34-.6M131.327 22.3a5.553 5.553 0 0 0 1.344-.462 36.064 36.064 0 0 0 6.636-7.727c-1.512.545-3.36 1.175-5.207 1.763a2.223 2.223 0 0 1-.967.841l-1.848-4.452a3.963 3.963 0 0 0 1.176-.419c2.226-2.31 5-8.316 5.921-11.507l4.918 2.479a1.412 1.412 0 0 1-1.512.588 50.484 50.484 0 0 1-7.685 9.072c1.722 0 3.99 0 6.341-.042a47.78 47.78 0 0 0 2.352-4.368l4.451 3.024a1.5 1.5 0 0 1-1.6.419A58.177 58.177 0 0 1 134.682 22.3c2.226-.126 5.25-.336 8.315-.546a23.855 23.855 0 0 0-1.722-4.116l.5-.21c7.812 4.242 4.577 10.121 1.848 7.559a9.818 9.818 0 0 0-.336-2.141c-2.352.84-5.67 1.974-9.239 3.023a2.211 2.211 0 0 1-1.134.882zM191.93 39.309v-7.433h-16.841l-.378-1.218h17.219v-5h-7.938v1.431c0 .378-1.722 1.3-3.36 1.3h-.588v-18.9l4.284 1.806h7.6V7.056h-15.664l-.293-1.218h15.959V.294l5.628.588c-.084.589-.42 1.05-1.512 1.219v3.738h9.03l2.561-3.15s2.982 2.142 4.788 3.7c-.126.463-.546.672-1.176.672h-15.2V11.3h7.685l2.016-2.226 4.2 3.276a3.134 3.134 0 0 1-1.764.84v13.058c-.042.337-2.016 1.176-3.36 1.176h-.673v-1.763h-8.1v5h10.205l2.646-3.234s2.94 2.226 4.7 3.78c-.085.462-.546.671-1.176.671h-16.383v6.174c0 .42-1.764 1.26-3.276 1.26zm4.116-14.867h8.107v-5.5h-8.1zm-12.054 0h7.938v-5.5h-7.938zm12.054-6.719h8.107v-5.208h-8.1zm-12.054 0h7.938v-5.208h-7.938zM223.47 39.264V21.629a32.584 32.584 0 0 1-4.956 7.77l-.588-.462c2.646-4.829 4.116-11.129 4.955-17.261h-4.2l-.336-1.218h5.124V.126l5.081.546c-.126.63-.462 1.008-1.554 1.176v8.609h.378l1.89-2.73s2.184 1.931 3.444 3.275c-.126.463-.5.672-1.093.672h-4.62v2.982c7.938 3.654 4.83 9.156 2.142 6.719a15.507 15.507 0 0 0-2.142-5.711v22.26c0 .42-1.553 1.344-2.813 1.344zm18.772-.039V27.009h-10.247l-.336-1.218h19.571l2.227-2.73s2.478 1.89 4.073 3.276c-.126.462-.546.671-1.134.671h-10.29v11.34c0 .167-1.259.882-3.191.882zM230.353 37.5a26.827 26.827 0 0 0 6.006-9.407l4.741 2.397c-.21.42-.588.63-1.511.463a24.88 24.88 0 0 1-8.82 7.055zm23.145-.252c-.84-2.73-3.527-5.921-5.711-7.853l.378-.336c10.2 2.4 9.657 8.664 6.784 8.664a2.731 2.731 0 0 1-1.451-.475m-19.067-15.073-.336-1.218h14.825l2.226-2.646.42.336v-1.26h-14.951v1.471c0 .336-1.511 1.049-2.856 1.049h-.5V7.1l3.608 1.511h2.733V4.326h-7.73l-.293-1.218h19.487L253.29.294s2.52 1.932 4.073 3.36c-.084.462-.545.672-1.134.672h-7.685v4.283h2.6l1.764-1.932 3.906 2.939a3.276 3.276 0 0 1-1.764.882v7.392a5.416 5.416 0 0 1-2.9.882h-.378c.84.63 2.31 1.806 3.4 2.73-.126.463-.546.672-1.134.672zm14.111-6.006h3.024V9.828h-3.024zm-5.963 0h2.982V9.828h-2.982zm-5.964 0h2.985V9.828h-2.983zm5.964-7.56h2.982V4.326h-2.982zM279.453 39.309v-9.66h-16.926l-.336-1.218h17.262V24.4l5.25.5c-.085.42-.337.8-1.176.924v2.6H293.9l2.562-3.108s2.771 2.1 4.535 3.654c-.126.462-.545.671-1.175.671h-16.3v8.569c0 .378-1.848 1.092-3.317 1.092zM265.3 24.527c.5-3.486.294-5.8-.588-6.258a4.554 4.554 0 0 0-1.975-.545v-.882h2.016c.589 0 .756 0 1.26-.672.966-1.176.966-1.176 8.19-11.507l.671.294c-1.553 2.982-4.955 9.2-5.543 10.5a7.356 7.356 0 0 0-.8 2.856c.042 1.512 1.344 2.772 1.218 5.418a2.528 2.528 0 0 1-2.485 2.572 2.5 2.5 0 0 1-.287-.011c-.838 0-1.468-.631-1.678-1.765zm9.827.588V11.424a25.548 25.548 0 0 1-3.527 3.024l-.546-.378A40.382 40.382 0 0 0 277.353 0l5.292 1.849c-.168.462-.671.84-1.6.8a37.09 37.09 0 0 1-1.68 3.192l.168.084h8.067a3.185 3.185 0 0 1-.923-.462 10.135 10.135 0 0 0-2.692-5.082l.378-.252c7.056.967 6.552 5.124 4.41 5.8h5.08l2.31-2.813s2.561 1.931 4.158 3.36c-.085.462-.546.671-1.134.671h-9.534v3.906h3.612l2.1-2.646s2.394 1.806 3.822 3.192a1 1 0 0 1-1.092.671h-8.442v3.99h3.738l2.062-2.651s2.352 1.848 3.738 3.191c-.085.462-.5.672-1.05.672h-8.488v4.157h5.04l2.268-2.9s2.478 1.974 4.031 3.443c-.126.462-.545.672-1.134.672H278.99v1.049c0 .252-1.218 1.218-3.191 1.218zm3.864-3.486h6.888v-4.157h-6.888zm0-5.376h6.888v-3.99h-6.888zm0-5.207h6.888V7.14h-6.888zm-13.438.252a10.954 10.954 0 0 0-3.612-4.788l.378-.336c8.046.364 7.224 5.525 4.564 5.525a2.614 2.614 0 0 1-1.33-.4m3.736-5.333a11.975 11.975 0 0 0-3.906-5.125L265.72.5c8.334.441 7.617 5.825 4.863 5.825a2.69 2.69 0 0 1-1.294-.365zM333.336 36.325a9.5 9.5 0 0 0-4.326-1.6l.042-.672c1.974.21 4.914.42 5.921.42a2 2 0 0 0 1.638-.546c1.554-1.512 2.058-10.331 2.353-24.7h-8.82a34.132 34.132 0 0 1-6.719 8.82l-.588-.378A60.19 60.19 0 0 0 329.01.324l5.59 1.638c-.167.5-.671.882-1.6.882a40.711 40.711 0 0 1-2.226 5.165h7.726l2.268-2.394 3.944 3.485a2.69 2.69 0 0 1-1.806.756c-.294 16.3-.966 24.737-3.108 27.173-1.344 1.554-3.15 2.184-5.585 2.184a3.707 3.707 0 0 0-.877-2.886zm-25.749 1.515V6.34l3.866 1.769h.756c.378-2.227.882-5.46 1.175-7.77l5.8 1.386c-.211.671-.756.966-1.68.966-1.008 1.6-2.478 3.738-3.654 5.418h4.41l1.932-2.184 4.031 3.191a3.593 3.593 0 0 1-1.763.884v25.32c-.042.336-1.89 1.175-3.192 1.175h-.588v-3.233h-7.434V36.5c0 .42-1.427 1.345-3.023 1.345zm3.653-5.8h7.434V21h-7.434zm0-12.263h7.434V9.324h-7.434zm19.324 5.8c-.337-2.9-2.352-6.426-4.2-8.694l.378-.252c9.552 3.36 8.436 9.671 5.563 9.671a2.752 2.752 0 0 1-1.741-.725M17.22 99.309v-7.433H.378L0 90.659h17.22v-5H9.282v1.427c0 .378-1.722 1.3-3.36 1.3h-.588v-18.9l4.283 1.806h7.6v-4.236H1.553l-.294-1.219h15.96v-5.543l5.628.588c-.085.588-.42 1.05-1.512 1.218v3.738h9.03l2.561-3.149s2.982 2.141 4.788 3.7c-.126.462-.546.672-1.176.672h-15.2V71.3h7.685l2.016-2.227 4.2 3.276a3.125 3.125 0 0 1-1.764.841v13.059c-.042.336-2.016 1.176-3.36 1.176h-.672v-1.764h-8.107v5h10.2l2.646-3.234s2.939 2.226 4.7 3.779c-.084.463-.545.672-1.175.672H21.336v6.174c0 .419-1.764 1.26-3.276 1.26zm4.116-14.868h8.1v-5.5h-8.1zm-12.054 0h7.938v-5.5H9.282zm12.054-6.719h8.1v-5.206h-8.1zm-12.054 0h7.938v-5.206H9.282zM72.4 96.538a7.635 7.635 0 0 0-4.242-1.512V94.4s5.04.378 6.258.378c.756 0 .966-.336.966-.966v-8.781A5.03 5.03 0 0 0 72.4 87.97c-4.577-3.065-7.266-7.349-8.861-13.019a22.343 22.343 0 0 1-11.928 13.23l-.462-.546a26.382 26.382 0 0 0 9.365-15.749h-9.7v26c0 .462-1.638 1.428-3.36 1.428h-.672V68.862l4.41 1.806h11.343c-.378-2.142-.671-4.494-.882-6.972h-6.846l-.378-1.175h6.215l1.509-2.227L66.1 63.15a5.262 5.262 0 0 1-3.275 1.05 43.934 43.934 0 0 0 1.386 6.468h10.8l1.89-2.226 4.284 3.275a2.632 2.632 0 0 1-1.722.841V94.27c0 2.939-.672 4.662-5.88 5.166a4.625 4.625 0 0 0-1.176-2.9m2.982-12.011V71.886H64.635c1.932 5.5 5.208 9.995 10.751 12.641M102.559 96.709c-.672-.588-1.68-1.008-3.864-1.3l-.042-.546s4.578.294 5.544.294c.671 0 .882-.252.882-.672v-4.163H89.371l-.336-1.213h29.189l1.974-2.435h-32l-.336-1.219h5.165v-8.824l4.242 1.722h19.067l1.722-1.805 3.7 2.771a2.66 2.66 0 0 1-1.3.63v5.5h.5l2.1-2.771s2.309 1.931 3.7 3.317c-.126.462-.545.672-1.134.672h-4.746c.841.63 2.52 1.931 3.7 2.982-.084.462-.546.671-1.134.671h-14.376v4.2c0 2.73-.756 4.451-5.628 4.829a4.131 4.131 0 0 0-.881-2.64m9.827-11.255h4.284v-5.88h-4.284zm-7.853 0h4.284v-5.88h-4.284zm-7.77 0h4.2v-5.88h-4.2zm6.972-8.99c-3.654 0-4.326-.756-4.326-3.99V67.35l4.577.546c-.084.546-.462.882-1.259 1.008v3.654c0 .882.041.966 1.344.966h7.182a2.13 2.13 0 0 0 1.428-.294 12.291 12.291 0 0 0 .966-2.394h.5l.085 2.227c1.175.5 1.344.63 1.344 1.218 0 1.386-1.134 2.183-4.494 2.183zm-12.474-2.1a2.112 2.112 0 0 1 1.386-2.478 5.714 5.714 0 0 0 3.528-4.325l.672.041c.966 3.948-.715 6.593-2.436 7.475A3.218 3.218 0 0 1 93 75.42a1.711 1.711 0 0 1-1.736-1.057zm27.551.5c-.672-2.435-3.024-5.207-5.124-6.8l.378-.337c9.578 1.468 8.959 7.553 6.1 7.553a2.668 2.668 0 0 1-1.354-.413zM107.3 71.545a10.4 10.4 0 0 0-3.78-4.662l.378-.336c7.755.222 7.133 5.312 4.558 5.312a2.475 2.475 0 0 1-1.156-.309zm-19.525-1.636a2.149 2.149 0 0 1 1.344-2.6 4.976 4.976 0 0 0 2.394-4.7l.672-.041a14.578 14.578 0 0 1 .588 1.974h13.859a3.8 3.8 0 0 1-.923-.463 5.584 5.584 0 0 0-2.31-3.738l.337-.293c7.013-.211 6.593 3.779 4.325 4.494h12.6l2.1-2.142 3.738 3.612c-.293.336-.756.42-1.553.462a21.267 21.267 0 0 1-4.368 3.486l-.463-.252c.294-1.049.589-2.645.841-3.947H92.941c.168 2.52-.756 4.2-1.932 4.914a2.808 2.808 0 0 1-1.413.388 1.828 1.828 0 0 1-1.821-1.154M153.418 96.58c-.588-.671-1.554-1.092-3.528-1.344v-.627s4.074.294 4.914.294c.756 0 .924-.252.924-.8v-6.094h-5.586l-.378-1.218h5.964v-5.12h-6.846l-.252-.967a3.111 3.111 0 0 1-1.638.8v13.565c0 2.436-.5 3.78-4.494 4.158a3.638 3.638 0 0 0-.671-2.268 4.588 4.588 0 0 0-2.6-1.092v-.63s2.856.21 3.527.21c.63 0 .756-.21.756-.755V89.9h-7.31c-.378 3.276-1.554 6.845-5 9.323l-.463-.419c2.142-3.78 2.142-8.61 2.142-12.852v-7.935l4.158 1.638h6.048l1.679-1.932 3.864 2.982-.084-.252h7.182v-4.872h-5.208l-.378-1.218h12.43l1.722-1.805 3.569 2.73a2.65 2.65 0 0 1-1.47.714v4.451l1.429-2.144s1.638 1.553 2.6 2.687a.955.955 0 0 1-1.05.672h-2.982v7.521a4.933 4.933 0 0 1-2.856 1.007h-.582v-2.187h-3.738v6.215c0 2.688-.63 4.62-5 5.04a4.266 4.266 0 0 0-.8-2.684m-17.003-10.626c0 .841 0 1.764-.084 2.731h7.181v-3.276h-7.1zm22.805.841h3.739v-5.124h-3.738zm-22.805-2.6h7.1v-3.322h-7.1zm22.805-3.739h3.739v-4.875h-3.738zm-28.307-4.2-.336-1.218h7.182v-3.866h-4.913l-.337-1.219h5.25V66.3h-5.963l-.336-1.219h6.3v-4.829l5.208.5c-.085.588-.463.966-1.471 1.134v3.191h2.062l1.89-2.478s2.226 1.722 3.612 3.024a1.006 1.006 0 0 1-1.092.672h-6.468v3.653h1.805l1.722-2.226s1.974 1.554 3.192 2.772c-.126.462-.5.672-1.093.672h-5.628v3.864h2.857l1.931-2.478s2.226 1.722 3.612 3.023c-.126.463-.545.672-1.134.672zm30.028-2.945a67.155 67.155 0 0 0 3.15-8.442l4.787 1.848c-.167.5-.714.841-1.6.756a34.128 34.128 0 0 1-5.754 6.174zm-9.324-.715a13.183 13.183 0 0 0-1.931-6.006l.5-.252c6.026 2.736 4.855 6.872 2.8 6.872a2.022 2.022 0 0 1-1.369-.609zm5.334-.167a10.5 10.5 0 0 0-1.932-6.342l.5-.21c6.085 2.782 4.858 7.175 2.778 7.175a1.957 1.957 0 0 1-1.345-.618zm-7.56-7.518-.167-.715a81.12 81.12 0 0 0 15.535-4.026l3.906 3.612c-.42.378-1.26.419-2.352 0a106.648 106.648 0 0 1-15.654 1.143c-.427 0-.851 0-1.267-.009zM176.979 97.3l-.378-1.219h15.329v-13.1h-10.29l-.336-1.218h20.033l2.309-2.939s2.52 2.015 4.032 3.486c-.084.462-.546.671-1.134.671h-10.5v13.1h9.365l2.436-3.191s2.73 2.142 4.325 3.738c-.126.462-.546.672-1.176.672zm-.547-17.389c7.014-2.982 10.373-7.1 11.843-11.928l5.25 2.6c-.167.5-.63.8-1.89.8-2.813 4.494-7.055 7.811-14.908 9.03zm25.157-1.722c-4.284 0-4.7-.463-4.7-4.494V67.77h-15.627c.337 3.108-.756 5.207-2.183 6.089-1.3.84-3.024.63-3.57-.714a2.375 2.375 0 0 1 1.428-2.9 6.6 6.6 0 0 0 2.687-6.215l.63-.042a18.273 18.273 0 0 1 .841 2.562h13.018a3.38 3.38 0 0 1-1.385-.715 10.672 10.672 0 0 0-2.353-5.754l.378-.21c7.938 1.3 6.972 6.132 4.326 6.678h12.137l2.309-2.353 4.116 3.906c-.293.378-.756.463-1.638.5a28.087 28.087 0 0 1-5.459 4.62l-.42-.293c.42-1.428.967-3.487 1.3-5.166h-6.636v5.88c0 1.134.042 1.134 1.3 1.134h6.593a3.276 3.276 0 0 0 1.175-.168h.378l.211.042c1.386.5 1.6.756 1.6 1.344 0 1.512-.924 2.184-4.829 2.184zM220.572 99.309v-37.8l4.116 1.806h6.8l1.764-1.932 3.906 2.9a2.826 2.826 0 0 1-1.6.756V76.17a5.637 5.637 0 0 1-3.1 1.049h-.589v-2.184h-7.349V97.8c0 .545-1.427 1.512-3.276 1.512zm3.947-25.451h7.349V69.7h-7.349zm0-5.291h7.349v-4.031h-7.349zm24.275 27.842a6.179 6.179 0 0 0-3.4-1.386v-.63s3.864.294 4.662.294c.756 0 .924-.294.924-.882v-18.77h-7.644v.84c0 .378-1.638 1.26-3.234 1.26h-.549V61.68l3.99 1.638h7.014l1.89-2.227 4.242 3.234a3.294 3.294 0 0 1-1.722.882V94.27c0 2.9-.589 4.577-5.334 5a5.622 5.622 0 0 0-.839-2.861m-5.459-22.55h7.644V69.7h-7.644zm0-5.291h7.644v-4.032h-7.644zm-13.607 27.05V78.269l3.825 1.64h7.937l1.849-1.974 3.864 2.9a2.584 2.584 0 0 1-1.554.8v12.347c-.041.337-1.89 1.176-3.15 1.176h-.588v-2.394h-8.526v1.68c0 .378-1.553 1.175-3.108 1.175zm3.653-4.032h8.526v-4.791h-8.526zm0-5.963h8.526v-4.54h-8.526z"/></svg>