<svg xmlns="http://www.w3.org/2000/svg" width="558.494" height="159.862"><path data-name="Union 7" d="M242.742 159.362a9.8 9.8 0 0 1-2.991-.333 4.684 4.684 0 0 1-3.2-3.355 12.573 12.573 0 0 1-.222-2.432V134.2a12.609 12.609 0 0 1 .222-2.434 4.685 4.685 0 0 1 3.2-3.353 9.809 9.809 0 0 1 2.99-.333h68.72a9.817 9.817 0 0 1 2.991.333 4.689 4.689 0 0 1 3.2 3.353 12.641 12.641 0 0 1 .221 2.434v19.039a12.6 12.6 0 0 1-.221 2.432 4.685 4.685 0 0 1-3.2 3.355 9.79 9.79 0 0 1-2.991.333zm6.09-22.946v14.4c0 2.03.227 2.15 2 2.15h52.531c1.78 0 2.007-.12 2.007-2.15v-14.4c0-2.03-.227-2.15-2.007-2.15l-52.526-.003c-1.778.003-2.005.123-2.005 2.153zM3.92 159.028a4.681 4.681 0 0 1-3.2-3.355 12.528 12.528 0 0 1-.22-2.431V134.2a12.556 12.556 0 0 1 .222-2.433 4.683 4.683 0 0 1 3.2-3.354 9.8 9.8 0 0 1 2.99-.333h69.59v6.182h-61.5c-1.779 0-2.005.12-2.005 2.15v14.4c0 2.029.226 2.149 2.005 2.149H76.5v6.4H6.911a9.772 9.772 0 0 1-2.991-.333zm541.309.3-52.822-23.458v23.459h-11.391v-31.213h12.763L546.6 151.6l.006-23.488h11.393v31.213zm-362.141 0-7.421-10.286-49.914-.003v10.286H113.47v-31.208h73.258c4.58 0 6.5 1.7 6.612 5.851.068 2.428.052 5.491 0 7.139-.134 4.368-1.3 5.892-5.2 6.791l-.393.089.758 1.083a1721.72 1721.72 0 0 0 6.349 8.17l1.63 2.088zm-57.335-16.688h51.221c4.465 0 4.465 0 4.481-2.8V137.668c0-.581-.007-1.193-.007-1.884 0-1.229 0-1.485-2.486-1.485h-53.209zm290.377 16.67-16.434-22.9-16.435 22.9-10.374-8.341-21.7-31.176h12.121l15.4 22.035 15.737-22.035h10.505l15.737 22.035 15.394-22.035h11.688l-21.7 31.176zM277.1 95.4h-26.03c-1.537 0-1.893-.284-2.142-1.541-.375-1.9-.62-3.689-1.091-6.672-.15-.953.458-1.475 1.456-1.479h55.619c1 0 1.605.526 1.456 1.479-.471 2.983-.715 4.768-1.091 6.672-.248 1.257-.6 1.541-2.142 1.541zm23.97-15.486a.694.694 0 0 1-.7-.779c.974-8.446 4.558-42.264 5-47.393.186-2.175-.055-3.17-1.079-4.345-.194-.222-1.96-2.189-3.42-3.786-.762-.833-.781-1.386-.039-2.085 1.7-1.6 3.585-3.238 4.924-4.36 1.133-.949 1.522-.965 2.846.172a75.258 75.258 0 0 1 5.787 5.548c1.106 1.166 1.012 1.8.663 4.15-.383 2.61-8.133 51.867-8.189 52.213a.736.736 0 0 1-.81.668zm-16.744 0a.721.721 0 0 1-.8-.7c.094-10.443.4-44.7.378-48-.019-2.647-.208-2.916-1.761-4.709-.5-.579-2.245-2.29-2.785-2.789a3.063 3.063 0 0 0-4.5 0c-.54.5-2.283 2.21-2.786 2.789-1.552 1.792-1.742 2.061-1.761 4.709-.023 3.3.285 37.554.378 48a.721.721 0 0 1-.8.7l-4.669.003a.76.76 0 0 1-.839-.676c-.04-.443-4.195-52.947-4.237-53.477-.213-2.69-.134-2.952.888-4.2a49.317 49.317 0 0 1 4.011-4.327c.959-.926 1.228-1.063 3.093-1.063h17.934c1.865 0 2.133.138 3.093 1.063a49.224 49.224 0 0 1 4.011 4.327c1.023 1.246 1.1 1.508.889 4.2l-4.236 53.477a.76.76 0 0 1-.839.676zm-36.987-.668c-.057-.346-7.807-49.6-8.19-52.213-.348-2.352-.442-2.985.664-4.15a75.136 75.136 0 0 1 5.787-5.548c1.324-1.137 1.713-1.121 2.846-.172a121.368 121.368 0 0 1 4.924 4.36c.742.7.723 1.252-.038 2.085a492.947 492.947 0 0 0-3.288 3.634l-.133.152c-1.023 1.175-1.266 2.17-1.078 4.345.441 5.129 4.027 38.947 5 47.393a.694.694 0 0 1-.694.779h-4.988a2.757 2.757 0 0 1-.812-.662zM277.1 9.524h-10.041a2.071 2.071 0 0 1-2.186-1.574c-.221-.675-1.673-5.2-1.8-5.651A1.335 1.335 0 0 1 264.488.5h25.231a1.335 1.335 0 0 1 1.413 1.8c-.127.454-1.578 4.975-1.8 5.651a2.071 2.071 0 0 1-2.186 1.574z" stroke="rgba(255,255,255,1)" fill="transparent" stroke-miterlimit="10"/></svg>