<svg xmlns="http://www.w3.org/2000/svg" width="437.471" height="23.848"><defs><clipPath id="a"><path data-name="Rectangle 69" fill="none" stroke="#707070" d="M0 0h437.471v23.848H0z"/></clipPath></defs><g data-name="Group 166"><g data-name="Group 165" clip-path="url(#a)" fill="none" stroke="#fff" stroke-miterlimit="10"><path data-name="Path 592" d="M109.592 9.653c9.132 0 9.132 5.849 18.264 5.849s9.132-3.58 18.264-3.58 9.133 4.735 18.265 4.735 9.132-8.8 18.265-8.8 9.133 7.296 18.267 7.296 9.133-5.5 18.267-5.5"/><path data-name="Path 593" d="M327.879 9.653c9.132 0 9.132 5.849 18.264 5.849s9.132-3.58 18.264-3.58 9.132 4.735 18.265 4.735 9.132-8.8 18.264-8.8 9.134 7.292 18.267 7.292 9.133-5.5 18.267-5.5"/><path data-name="Path 594" d="M0 9.654c9.132 0 9.132 5.849 18.264 5.849S27.4 5.869 36.528 5.869s9.132 12.11 18.265 12.11 9.133-9.81 18.265-9.81 9.134 9.3 18.267 9.3 9.133-7.809 18.267-7.809"/><path data-name="Path 595" d="M219.187 9.654c9.132 0 9.132 5.849 18.264 5.849s9.129-9.634 18.261-9.634 9.132 12.11 18.265 12.11 9.133-9.81 18.265-9.81 9.134 9.3 18.267 9.3 9.133-7.809 18.267-7.809"/></g></g></svg>