<svg data-name="Group 485" xmlns="http://www.w3.org/2000/svg" width="260.915" height="34.651"><defs><clipPath id="a"><path data-name="Rectangle 20" fill="#c89c88" d="M0 0h260.915v34.651H0z"/></clipPath></defs><g data-name="Group 33" clip-path="url(#a)" fill="#c89c88"><path data-name="Path 64" d="M.086 9.69c-.126-.859-.16-1.09.241-1.516a27.356 27.356 0 0 1 2.1-2.026c.48-.415.621-.409 1.032-.063.485.41 1.171 1.009 1.785 1.592.269.255.262.457-.014.761a169.25 169.25 0 0 0-1.194 1.328l-.048.056a1.808 1.808 0 0 0-.388 1.586c.16 1.873 1.46 14.222 1.813 17.306a.253.253 0 0 1-.255.286H3.349a.268.268 0 0 1-.294-.244C3.035 28.629.225 10.643.086 9.69M24.1 11.408c-.16 1.873-1.46 14.222-1.813 17.306a.253.253 0 0 0 .253.286h1.809a.268.268 0 0 0 .294-.244c.02-.126 2.831-18.112 2.97-19.065.127-.859.16-1.09-.241-1.516a27.407 27.407 0 0 0-2.1-2.026c-.48-.415-.621-.409-1.032-.063a44.559 44.559 0 0 0-1.786 1.592c-.269.255-.262.457.014.761.53.583 1.17 1.3 1.24 1.382a1.808 1.808 0 0 1 .391 1.586M18.424 0h-9.15a.487.487 0 0 0-.512.657c.046.166.572 1.817.652 2.063a.752.752 0 0 0 .793.575h7.285a.752.752 0 0 0 .793-.575c.08-.247.606-1.9.652-2.063A.487.487 0 0 0 18.424 0m1.253 7.693a17.945 17.945 0 0 0-1.454-1.58c-.348-.338-.445-.388-1.122-.388H10.6c-.676 0-.774.05-1.122.388a17.949 17.949 0 0 0-1.455 1.58c-.371.455-.4.551-.322 1.533.015.193 1.522 19.365 1.536 19.527a.276.276 0 0 0 .3.247h1.69a.262.262 0 0 0 .292-.255c-.034-3.813-.146-16.321-.137-17.526a1.9 1.9 0 0 1 .641-1.719 22.58 22.58 0 0 1 1.01-1.018 1.106 1.106 0 0 1 1.632 0c.2.182.828.807 1.01 1.018a1.9 1.9 0 0 1 .639 1.719c.008 1.206-.1 13.713-.137 17.526a.262.262 0 0 0 .292.255h1.69a.276.276 0 0 0 .3-.247c.018-.162 1.525-19.334 1.541-19.528.077-.982.049-1.078-.322-1.533m4.257 23.42H3.765c-.362 0-.582.192-.528.54.171 1.089.259 1.741.4 2.436.09.459.219.563.777.563H23.29c.557 0 .686-.1.777-.563.136-.7.225-1.347.4-2.436.054-.348-.166-.539-.528-.54"/><g data-name="Group 419"><path data-name="Path 65" d="m254.923 26.399-19.156-8.566v8.566h-4.13v-11.4h4.63l19.153 8.577v-8.577h4.131v11.4z"/><path data-name="Path 66" d="m123.599 26.399-2.691-3.756h-18.1v3.756h-4.454v-11.4h26.566c1.661 0 2.356.619 2.4 2.136.025.886.019 2 0 2.607-.049 1.595-.471 2.151-1.884 2.48l-.142.032.275.4c.542.709 1.492 1.939 2.3 2.983l.591.763zm-2.217-6.094c1.619 0 1.619 0 1.625-1.021V17.802c0-.449 0-.542-.9-.542l-19.301.001v3.044z"/><path data-name="Path 67" d="m208.107 26.392-5.96-8.363-5.959 8.363h-3.766l-7.868-11.384h4.4l5.583 8.046 5.707-8.046h3.811l5.707 8.046 5.583-8.046h4.238l-7.87 11.384z"/><path data-name="Path 68" d="M59.71 26.41a3.523 3.523 0 0 1-1.084-.122 1.7 1.7 0 0 1-1.16-1.225 4.61 4.61 0 0 1-.081-.888v-6.947a4.618 4.618 0 0 1 .081-.888 1.7 1.7 0 0 1 1.16-1.225 3.527 3.527 0 0 1 1.084-.122h25.235v2.257h-22.3c-.645 0-.727.044-.727.785v5.257c0 .741.082.785.727.785h22.3v2.336z"/><path data-name="Path 69" d="M145.231 26.41a3.531 3.531 0 0 1-1.085-.122 1.705 1.705 0 0 1-1.159-1.225 4.607 4.607 0 0 1-.081-.888v-6.947a4.618 4.618 0 0 1 .081-.889 1.7 1.7 0 0 1 1.16-1.224 3.528 3.528 0 0 1 1.084-.122h24.92a3.535 3.535 0 0 1 1.085.122 1.706 1.706 0 0 1 1.16 1.224 4.625 4.625 0 0 1 .081.889v6.952a4.612 4.612 0 0 1-.081.888 1.706 1.706 0 0 1-1.16 1.225 3.529 3.529 0 0 1-1.084.122zm2.935-9.164c-.645 0-.727.044-.727.785v5.257c0 .741.082.785.727.785l19.052.005c.646 0 .728-.044.728-.785v-5.265c0-.741-.082-.785-.728-.785z"/></g></g></svg>