<?xml version="1.0" encoding="utf-8"?>
<!-- Generator: Adobe Illustrator 27.3.1, SVG Export Plug-In . SVG Version: 6.00 Build 0)  -->
<svg version="1.1" id="圖層_1" xmlns="http://www.w3.org/2000/svg" xmlns:xlink="http://www.w3.org/1999/xlink" x="0px" y="0px"
	 viewBox="0 0 150 33" enable-background="new 0 0 150 33" xml:space="preserve">
<linearGradient id="SVGID_1_" gradientUnits="userSpaceOnUse" x1="4.4505" y1="16.5" x2="145.5495" y2="16.5">
	<stop  offset="0" style="stop-color:#CC9174"/>
	<stop  offset="0.3048" style="stop-color:#CFB4A3"/>
	<stop  offset="0.6725" style="stop-color:#B8937D"/>
	<stop  offset="1" style="stop-color:#A96754"/>
</linearGradient>
<path fill="url(#SVGID_1_)" d="M26.8,4.43l-0.65,0.16H4.45v2.84h18.89c-2.37,2.2-5.02,4.08-7.88,5.6v14.1c0,0.56-0.25,0.71-0.9,0.74
	c-0.71,0.03-3.12,0.03-5.53-0.06c0.54,0.9,0.92,1.88,1.14,2.91c3.06,0.03,5.16-0.03,6.49-0.5c1.33-0.4,1.79-1.27,1.79-3.03V14.48
	c3.94-2.26,7.52-5.08,10.64-8.38L26.8,4.43z M49.74,20.44v-3.12h2.32v3.12L49.74,20.44z M45.38,17.32h2.35v3.12h-2.38
	c0.03-0.77,0.03-1.52,0.03-2.23L45.38,17.32z M49.43,7.3c-0.33,0.95-0.71,1.88-1.14,2.78h-3.15c0.46-0.87,0.9-1.82,1.3-2.78H49.43z
	 M49.74,12.25h2.32v2.94h-2.32V12.25z M45.38,12.25h2.35v2.94h-2.35V12.25z M65.94,6.22c-0.15,3.15-0.37,4.42-0.71,4.79
	c-0.2,0.24-0.53,0.35-0.84,0.28c-0.84,0.01-1.67-0.04-2.5-0.12c0.36,0.75,0.58,1.55,0.65,2.38c1.04,0.07,2.08,0.06,3.12-0.03
	c0.69-0.01,1.33-0.33,1.76-0.87c0.65-0.74,0.93-2.81,1.14-7.82c0.03-0.31,0.03-0.99,0.03-0.99H55.15v2.38h3.83
	c-0.3,2.7-2.04,5.03-4.54,6.09v-2.22h-3.68C51.46,8.76,52.07,7.4,52.62,6l-1.67-1.05l-0.4,0.12H47.3c0.25-0.74,0.46-1.48,0.68-2.23
	l-2.63-0.59C44.6,5.81,43,9.12,40.68,11.91c0.74,0.52,1.44,1.09,2.1,1.7l0.28-0.34v4.91c0,3.46-0.22,8.01-2.29,11.25
	c0.72,0.35,1.41,0.77,2.04,1.27c1.41-2.47,2.23-5.23,2.38-8.07h6.87v5.04c0,0.4-0.15,0.53-0.56,0.56c-0.37,0-1.67,0-3.15-0.03
	c0.41,0.76,0.72,1.57,0.9,2.41c1.39,0.13,2.78-0.02,4.11-0.43c0.83-0.43,1.08-1.24,1.08-2.47V12.59c0.54,0.53,1,1.13,1.36,1.79
	c3.8-1.7,5.23-4.54,5.84-8.16L65.94,6.22z M69.43,22.58h-5.63v-3.34h5.04v-2.47h-5.04V13.8h-2.72v2.97h-2.16
	c0.22-0.74,0.4-1.48,0.56-2.23l-2.38-0.49c-0.4,2.43-1.3,4.75-2.66,6.8c0.76,0.31,1.48,0.7,2.16,1.14c0.58-0.86,1.06-1.79,1.45-2.75
	h3.03v3.34h-6.12v2.5h6.12v5.44h2.72v-5.44h5.63L69.43,22.58z M85.57,18.49v-2.63h6.65v1.11c0.01,0.51-0.01,1.01-0.06,1.52
	L85.57,18.49z M85.57,11.01h6.65v2.63h-6.65V11.01z M102.08,11.01v2.63h-6.86v-2.63H102.08z M102.08,18.49h-6.93
	c0.05-0.49,0.07-0.99,0.06-1.48v-1.15h6.86V18.49z M104.92,20.84V8.66h-9.71V6.44h11.65v-2.6H80.13v2.6h12.09v2.22h-9.37v12.18h8.9
	c-0.38,1.35-1.14,2.57-2.2,3.49c-1.37-0.9-2.54-2.05-3.46-3.4l-2.5,0.99c0.94,1.54,2.16,2.89,3.59,3.99
	c-2.44,1.1-5.02,1.86-7.67,2.26c0.69,0.77,1.28,1.62,1.76,2.53c3.02-0.54,5.93-1.59,8.59-3.12c4.33,2.13,9.96,2.66,16.88,2.91
	c0.19-1.02,0.6-2,1.21-2.84c-6.55-0.06-11.75-0.4-15.7-1.95c1.31-1.33,2.2-3.02,2.57-4.85L104.92,20.84z M136.77,7.46
	c-1.63,1.77-3.56,3.24-5.69,4.36c-1.26-1.22-2.62-2.33-4.05-3.34c0.5-0.31,0.99-0.65,1.45-1.02L136.77,7.46z M139.33,4.77
	l-0.49,0.16h-7.39c0.68-0.61,1.32-1.27,1.91-1.98l-3.12-0.71c-2.88,3.26-6.52,5.76-10.6,7.26c0.76,0.58,1.41,1.28,1.95,2.07
	c1.14-0.53,2.23-1.11,3.25-1.67c1.33,0.95,2.56,2.03,3.68,3.21c-3.13,1.33-6.42,2.29-9.77,2.85c0.55,0.79,1.01,1.64,1.36,2.54
	c8.32-1.67,17.19-5.63,21.12-12.58L139.33,4.77z M141.25,18.49c-1.58,2.18-3.64,3.97-6.03,5.23c-1.29-1.27-2.68-2.45-4.14-3.52
	c0.84-0.56,1.67-1.11,2.41-1.7L141.25,18.49z M143.57,15.8l-0.49,0.12h-6.61c0.69-0.69,1.34-1.43,1.95-2.19l-3.15-0.71
	c-2.29,3.03-6.62,6.25-12.86,8.38c0.72,0.63,1.33,1.39,1.79,2.23c1.61-0.65,3.09-1.33,4.45-2.04c1.36,1.06,2.65,2.2,3.86,3.43
	c-4.48,1.66-9.18,2.66-13.94,2.97c0.53,0.86,0.91,1.8,1.14,2.78c11.25-1.21,21.55-4.64,25.85-13.82L143.57,15.8z"/>
<g>
</g>
<g>
</g>
<g>
</g>
<g>
</g>
<g>
</g>
<g>
</g>
<g>
</g>
<g>
</g>
<g>
</g>
<g>
</g>
<g>
</g>
<g>
</g>
<g>
</g>
<g>
</g>
<g>
</g>
</svg>
