<svg xmlns="http://www.w3.org/2000/svg" width="1161" height="111.081" viewBox="0 0 1161 111.081">
  <path id="Union_23" data-name="Union 23" d="M559.429,108.126c8.355-3.5,12.708-8.8,13.517-19.61.573-7.352.715-11.8.715-21.811V17.884c0-11.665-1.373-12.518-12.085-14.042V1.881H599.9v1.96c-10.045,1.565-11.141,2.512-11.141,14.042V67.1c0,17.037-1.3,26.916-10.545,34.678-5.936,4.936-13.023,7.112-18.071,8.22ZM726.168,84.367c-8.14-6.239-10.954-14.613-10.954-29.1V19.871c0-13.082-.859-14.371-11.549-16.03V1.881h38.1v1.96c-10.876,1.88-11.507,2.948-11.507,16.03V55.746c0,18.676,8.671,28.636,26.177,28.636,18.986,0,24.571-10.154,24.571-33.887V33.585c0-10.692-.236-15.547-.615-19.663-.523-6.675-2.041-9-14.341-10.08V1.881h31.695v1.96c-10.911,1.35-11.111,4.547-11.541,10.571-.236,3.747-.573,8.481-.573,19.219v16.6c0,13.538-1.338,24.1-9.365,32.114-6.257,6.131-15,8.851-25.8,8.851C741.411,91.2,732.54,89.27,726.168,84.367ZM605.734,46.437C605.734,23,623.489,0,653.2,0c24.895,0,46.086,18.481,46.086,44.585,0,28.117-20.949,46.612-46.766,46.612C625.644,91.2,605.734,71.332,605.734,46.437Zm17.619-3.371c0,25.539,12.186,44.867,31.853,44.867,15.222,0,26.462-13.613,26.462-39.622,0-28.4-12.615-45.094-31.28-45.094C635.453,3.217,623.353,16.662,623.353,43.066ZM357.693,91.2c-7.919-21.375-18.536-48.385-25.46-65.234-7.961,21.4-17.068,45.484-24.091,65.234h-3.357c-7.633-24.27-15.515-48.244-23.39-72.427-3.766-11.584-5-13.5-14.606-15.016V1.88h37.76V3.754c-10.532,1.7-10.961,3.834-8.577,11.356,5.219,16.627,11.334,35.324,16.9,52.011,7.174-19.394,17.942-49.62,23.19-64.16h2.935c8.4,21.571,17.233,42.979,25.6,63.978C370.76,48.492,376.466,30,380.353,16.8c2.57-8.93,1.862-11.167-11.391-13.041V1.88h31.71V3.754c-10.3,1.651-11.456,3.391-15.744,15.6C381,30.354,368.533,67.947,361,91.2ZM174.972,46.437C174.972,23,192.728,0,222.439,0c24.895,0,46.086,18.481,46.086,44.585,0,28.117-20.949,46.612-46.766,46.612C194.883,91.2,174.972,71.332,174.972,46.437Zm17.619-3.371c0,25.539,12.185,44.867,31.853,44.867,15.222,0,26.462-13.613,26.462-39.622,0-28.4-12.615-45.094-31.28-45.094C204.691,3.217,192.591,16.662,192.591,43.066ZM0,45.887C0,18.776,21.156,0,54.355,0,65.81,0,75.662,2.371,79.5,2.734c.436,6.614,1.289,14.525,2.055,20.032l-2.478.49C76.313,14.19,73.236,8.8,65.217,5.547,61.1,3.848,56.2,3.176,50.525,3.176c-22.832,0-33,18.374-33,40.206,0,26.2,13.388,44.55,36.084,44.55,14.268,0,21.549-7.9,27.75-20.577l2.291.759c-1.382,5.218-5.068,16.2-7.124,19.992-3.629.766-14.5,3.089-24.142,3.089C15.951,91.2,0,69.385,0,45.887ZM978.541,90.921,914.249,17.783V53.624c0,12.631.193,16.62.43,21.006.472,8.663,1.832,10.846,14.4,12.592v1.96H896.249v-1.96c10.69-1.759,12.237-3.492,12.709-12.377.236-4.365.616-9.509.616-21.221V16.836a9.957,9.957,0,0,0-2.191-6.6c-3.623-4.465-6.8-5.453-12.751-6.393V1.881h24.793l57.713,64.132V36.6c0-13.169-.329-16.1-.522-20.139-.48-9.12-3.272-11.188-15.53-12.619V1.881h32.7v1.96c-9.7,1.975-11.4,3.5-11.685,12.632-.143,3.929-.429,6.957-.429,20.126V90.921Zm-490.484,0L423.765,17.783V53.624c0,12.631.193,16.62.429,21.006.473,8.663,1.832,10.846,14.4,12.592v1.96H405.766v-1.96c10.689-1.759,12.236-3.492,12.709-12.377.236-4.365.615-9.509.615-21.221V16.836a9.957,9.957,0,0,0-2.191-6.6c-3.622-4.465-6.8-5.453-12.751-6.393V1.881h24.794l57.713,64.132V36.6c0-13.169-.33-16.1-.523-20.139-.48-9.12-3.272-11.188-15.53-12.619V1.881h32.7v1.96c-9.7,1.975-11.4,3.5-11.684,12.632-.143,3.929-.429,6.957-.429,20.126V90.921Zm398.875-.94c-15.379-.672-19.359-3.15-24.529-10.315-4.911-6.877-10.2-15.526-14.935-23.759-3.35-5.735-5.3-7.065-11.019-7.065h-3.5v24.3c0,10.953.96,12.168,11.857,14.082v1.961H806.23V87.221c10.8-1.96,11.806-2.861,11.806-14.082v-55.4c0-10.953-.91-12.289-11.806-13.9V1.88h37.014c11.04,0,18.4,1.3,24.021,5.057a18.541,18.541,0,0,1,8.641,16.084c0,12.671-9.923,19.28-18.235,22.618,2.348,3.955,9.586,15.559,13.7,21.6,5.241,7.769,7.755,11.3,10.955,14.747,3.394,3.627,5.549,4.788,11.183,6.252l-.429,1.786C892.208,90.028,888.4,90.028,886.932,89.981ZM834.574,5.863c-1.1.719-1.626,1.753-1.626,5V45.894h4.919c6.973,0,11.634-.443,15.271-3.391,4.611-3.586,6.38-8.569,6.38-16.453,0-15.25-8.405-21.221-17.97-21.221C837.738,4.828,835.534,5.191,834.574,5.863ZM171.9,89.981c-15.38-.672-19.359-3.15-24.529-10.315-4.911-6.877-10.2-15.526-14.934-23.759-3.35-5.735-5.3-7.065-11.019-7.065h-3.5v24.3c0,10.953.959,12.168,11.857,14.082v1.961H91.2V87.221c10.8-1.96,11.806-2.861,11.806-14.082v-55.4c0-10.953-.91-12.289-11.806-13.9V1.88h37.014c11.04,0,18.4,1.3,24.021,5.057a18.541,18.541,0,0,1,8.641,16.084c0,12.671-9.923,19.28-18.235,22.618,2.348,3.955,9.586,15.559,13.7,21.6,5.241,7.769,7.754,11.3,10.955,14.747,3.393,3.627,5.549,4.788,11.183,6.252l-.429,1.786C177.181,90.028,173.372,90.028,171.9,89.981ZM119.547,5.863c-1.1.719-1.626,1.753-1.626,5V45.894h4.919c6.973,0,11.634-.443,15.271-3.391,4.612-3.586,6.38-8.569,6.38-16.453,0-15.25-8.405-21.221-17.97-21.221C122.712,4.828,120.506,5.191,119.547,5.863ZM1096.9,89.182v-1.96c11.605-1.571,12.322-2.868,12.322-15.741V54.846a12.243,12.243,0,0,0-1.718-6.561c-2.929-5.721-11.141-20.456-17.964-31.791-6.006-10.067-7.152-11.4-15.557-12.652V1.881h36.663v1.96c-9.457,1.646-9.773,3.089-7.166,8.025,5.984,11.047,13.739,24.518,19.037,34.235,4.811-8.931,13.073-24.5,17.031-32.69,2.822-5.823,2.764-7.958-8.677-9.57V1.881H1160v1.96c-9.787,1.257-11.019,3.412-15.579,10.893-6.372,10.557-12.1,21.019-18.392,32.644a10.285,10.285,0,0,0-1.519,5.661l-.05,18.441c-.05,13.182,1,13.907,12.522,15.741v1.96Zm-96.349,0V87.221c12.415-1.611,13.367-2.377,13.367-14V18.125c0-11.9-.615-12.88-11.133-14.284V1.88h42.384c13.432,0,18.565-.087,20.261-.269.094,4.963.666,13.935,1.281,19.052l-2.191.356c-1.1-3.406-3.006-8.327-5.556-11.4-2.627-3.237-5.276-3.856-13.724-3.856h-12.443c-3.308,0-3.781.491-3.781,3.553v31.77h15.242c10.761,0,11.492-2.531,13.4-11.094h2.141V56.122h-2.141c-2.155-8.442-2.785-11.094-13.295-11.094h-15.343V74.764c0,9.261,2.75,10.49,11.327,10.577h10.453c7.9,0,9.9-1.121,13.482-5.264,2.428-2.781,4.518-6.877,6.651-11.679l2.047.4c-.715,4.607-3.293,16.876-4.253,20.381Z" transform="translate(0.5 0.5)" fill="#231815" stroke="rgba(0,0,0,0)" stroke-miterlimit="10" stroke-width="1"/>
</svg>
