<svg xmlns="http://www.w3.org/2000/svg" width="448.289" height="179.18"><path data-name="Union 66" d="M298.228 68.5c-5.9-15.938-13.8-36.078-18.956-48.641-5.927 15.952-12.708 33.914-17.937 48.641h-2.5c-5.682-18.1-11.552-35.972-17.416-54-2.8-8.637-3.725-10.065-10.874-11.2V1.9h28.113v1.4c-7.841 1.267-8.161 2.859-6.386 8.468 3.886 12.4 8.438 26.338 12.58 38.781 5.341-14.461 13.359-37 17.266-47.84h2.185c6.253 16.084 12.831 32.047 19.057 47.7a1113.45 1113.45 0 0 0 11.738-37.389c1.912-6.655 1.387-8.32-8.48-9.72V1.9h23.609v1.4c-7.671 1.231-8.529 2.529-11.722 11.632-2.922 8.2-12.207 36.233-17.815 53.569zM162.184 35.125C162.184 17.65 175.404.5 197.525.5c18.535 0 34.313 13.781 34.313 33.244 0 20.966-15.6 34.756-34.819 34.756-20.009 0-34.835-14.812-34.835-33.375zm13.118-2.514c0 19.043 9.073 33.454 23.716 33.454 11.333 0 19.7-10.15 19.7-29.543 0-21.176-9.393-33.624-23.289-33.624-11.119.002-20.127 10.026-20.127 29.714zM31.91 34.715C31.91 14.5 47.662.5 72.379.5c8.531 0 15.865 1.768 18.722 2.038.325 4.932.959 10.83 1.53 14.937l-1.845.366c-2.057-6.76-4.349-10.775-10.319-13.2a28.674 28.674 0 0 0-10.94-1.772c-17 0-24.567 13.7-24.567 29.979 0 19.538 9.968 33.218 26.866 33.218 10.624 0 16.044-5.888 20.661-15.343l1.705.566c-1.029 3.891-3.774 12.077-5.3 14.907-2.706.571-10.798 2.304-17.982 2.304-27.123 0-39-16.264-39-33.785zm363.379 33.58L347.421 13.76v26.724c0 9.419.143 12.393.32 15.662.352 6.46 1.364 8.088 10.72 9.39V67h-24.442v-1.464c7.959-1.313 9.111-2.6 9.462-9.229.176-3.255.458-7.091.458-15.823V13.053a7.431 7.431 0 0 0-1.629-4.922c-2.7-3.33-5.064-4.066-9.493-4.767V1.9h18.46l42.969 47.819V27.79c0-9.819-.246-12-.389-15.017-.357-6.8-2.436-8.342-11.562-9.409V1.9h24.344v1.464c-7.223 1.472-8.486 2.609-8.7 9.419-.107 2.93-.32 5.188-.32 15.007v40.5zm-235.389-.7c-11.45-.5-14.414-2.349-18.263-7.691-3.657-5.128-7.6-11.577-11.119-17.716-2.495-4.276-3.944-5.268-8.2-5.268l-2.608-.005v18.121c0 8.166.714 9.072 8.828 10.5V67H99.81v-1.465c8.038-1.462 8.79-2.133 8.79-10.5V13.73c0-8.167-.677-9.164-8.79-10.365V1.9h27.563c8.22 0 13.7.972 17.885 3.771a13.829 13.829 0 0 1 6.434 11.993c0 9.448-7.388 14.376-13.577 16.865 1.748 2.949 7.138 11.6 10.2 16.108 3.9 5.793 5.773 8.427 8.156 11 2.527 2.7 4.132 3.57 8.326 4.662l-.319 1.332c-.649-.003-3.486-.003-4.578-.038zM120.918 4.871c-.821.536-1.21 1.307-1.21 3.731V34.72h3.662c5.192 0 8.662-.33 11.37-2.529 3.434-2.674 4.75-6.389 4.75-12.268C139.489 8.552 133.231 4.1 126.11 4.1c-2.836 0-4.478.271-5.192.771z" fill="#231815" stroke="rgba(0,0,0,0)" stroke-miterlimit="10"/><path data-name="Union 67" d="M.639 177.202c6.221-2.61 9.461-6.565 10.065-14.624.426-5.483.532-8.8.532-16.264v-36.4c0-8.7-1.023-9.334-9-10.472v-1.464h28.537v1.464c-7.479 1.167-8.294 1.873-8.294 10.472v36.7c0 12.7-.971 20.069-7.853 25.857a31.543 31.543 0 0 1-13.454 6.128zm124.145-17.716c-6.06-4.653-8.155-10.9-8.155-21.7v-26.391c0-9.756-.641-10.716-8.6-11.953v-1.464h28.37v1.464c-8.1 1.4-8.568 2.2-8.568 11.953v26.75c0 13.925 6.456 21.35 19.489 21.35 14.137 0 18.294-7.571 18.294-25.267v-12.607c0-7.973-.176-11.592-.459-14.663-.387-4.98-1.516-6.71-10.676-7.516v-1.464h23.6v1.464c-8.122 1.007-8.272 3.39-8.592 7.882-.176 2.795-.426 6.324-.426 14.33v12.38c0 10.092-1 17.97-6.973 23.944-4.659 4.573-11.167 6.6-19.211 6.6-6.744 0-13.35-1.436-18.093-5.092zm-89.669-28.283c0-17.475 13.224-34.625 35.341-34.625 18.535 0 34.313 13.781 34.313 33.245 0 20.965-15.598 34.755-34.82 34.755-20.01 0-34.834-14.813-34.834-33.375zm13.118-2.514c0 19.043 9.074 33.453 23.715 33.453 11.334 0 19.7-10.15 19.7-29.542.003-21.174-9.389-33.622-23.287-33.622-11.122 0-20.128 10.023-20.128 29.712zm264.453 35.682-47.867-54.534v26.725c0 9.418.143 12.393.319 15.662.352 6.459 1.365 8.088 10.719 9.389v1.465h-24.441v-1.464c7.96-1.312 9.111-2.6 9.463-9.228.174-3.256.459-7.09.459-15.823v-27.431a7.436 7.436 0 0 0-1.632-4.922c-2.7-3.33-5.065-4.067-9.494-4.768v-1.464h18.459l42.968 47.822v-21.931c0-9.821-.246-12-.389-15.018-.359-6.8-2.436-8.341-11.562-9.409v-1.464h24.343v1.464c-7.223 1.473-8.485 2.609-8.7 9.418-.106 2.931-.319 5.188-.319 15.009v40.5zm-68.209-.7c-11.449-.5-14.413-2.349-18.261-7.691-3.657-5.127-7.6-11.576-11.121-17.716-2.495-4.276-3.944-5.266-8.2-5.266h-2.608l2.326 18.116c0 8.165.715 9.073 8.829 10.5v1.464h-31.05v-1.464c8.04-1.462 8.792-2.134 8.792-10.5v-41.307c0-8.165-.678-9.162-8.792-10.365v-1.464h27.559c8.22 0 13.7.97 17.885 3.769a13.831 13.831 0 0 1 6.434 11.993c0 9.449-7.39 14.376-13.579 16.866 1.749 2.948 7.138 11.6 10.2 16.107 3.9 5.794 5.774 8.428 8.157 11 2.525 2.7 4.131 3.571 8.325 4.663l-.319 1.333c-.648-.001-3.483-.001-4.576-.038zm-38.982-62.721c-.819.535-1.21 1.308-1.21 3.73v26.118h3.664c5.191 0 8.661-.329 11.369-2.529 3.433-2.673 4.75-6.389 4.75-12.267-.001-11.372-6.259-15.824-13.379-15.824-2.836 0-4.479.271-5.194.772zm123.575 62.128v-1.464c9.244-1.2 9.952-1.773 9.952-10.441v-41.079c0-8.875-.459-9.606-8.29-10.653v-1.463h31.558c10 0 13.822-.065 15.087-.2.07 3.7.5 10.39.952 14.206l-1.63.267c-.817-2.539-2.238-6.211-4.137-8.5-1.956-2.409-3.929-2.873-10.217-2.873h-9.266c-2.462 0-2.814.365-2.814 2.648v23.691h11.349c8.012 0 8.555-1.886 9.972-8.271h1.595v19.479h-1.595c-1.6-6.3-2.073-8.271-9.9-8.271h-11.421v22.17c0 6.907 2.047 7.823 8.433 7.886h7.781c5.88 0 7.373-.836 10.039-3.923a35.627 35.627 0 0 0 4.951-8.709l1.525.3c-.532 3.437-2.451 12.584-3.166 15.2zm71.735 0 50.758-1.464c8.642-1.172 9.174-2.138 9.174-11.738v-12.398a26.133 26.133 0 0 0-52.035-4.9c-2.182-4.265-8.3-15.252-13.377-23.7-4.472-7.5-5.324-8.5-11.582-9.433v-1.467h27.3v1.464c-7.04 1.227-7.275 2.3-5.335 5.984 4.454 8.236 10.228 18.282 14.174 25.527 3.579-6.66 9.73-18.275 12.677-24.375 2.1-4.341 2.06-5.933-6.458-7.135v-1.465h21.688v1.464c-7.286.938-8.2 2.543-11.6 8.123-4.743 7.872-9.007 15.672-13.694 24.341a7.674 7.674 0 0 0-1.13 4.22l-.036 13.752c-.037 9.829.747 10.37 9.322 11.738v1.462z" fill="#231815" stroke="rgba(0,0,0,0)" stroke-miterlimit="10"/></svg>