<svg xmlns="http://www.w3.org/2000/svg" width="309.152" height="28.751" viewBox="0 0 309.152 28.751">
  <path id="Path_6389" data-name="Path 6389" d="M10.758,7.729H4.3V4.3h6.461ZM4.3,13.912V10.3h6.461v3.617ZM7.729,18.92c.556.9,1.082,1.886,1.638,2.906L4.3,23.372V16.478h9.336V1.731H1.36V22.753A2.264,2.264,0,0,1,0,24.793,9.451,9.451,0,0,1,1.175,27.73c.742-.556,1.855-1.02,9.4-3.555.526,1.082.927,2.1,1.237,2.875l2.628-1.422a56.581,56.581,0,0,0-4.266-7.914ZM26.4,1.948H15.952V28.534h2.875V4.575h4.761V19.538c0,.4-.124.526-.556.556-.371.031-1.7.031-3.061-.031a8.922,8.922,0,0,1,.835,2.721c2.1,0,3.493-.031,4.452-.526.9-.433,1.144-1.268,1.144-2.69Zm23.99,6.183a18.913,18.913,0,0,1-1.762,2.937L43,11.315a41.183,41.183,0,0,0,4.05-4.823h7.976V3.864H48.845A14.511,14.511,0,0,0,46.928,0L44.207.649a14.583,14.583,0,0,1,1.547,3.215H38.113V6.492H43.77a36.472,36.472,0,0,1-3.117,3.864A4.048,4.048,0,0,1,38.8,11.623c.309.742.742,2.071.9,2.628.618-.247,1.546-.4,6.925-.742A26.981,26.981,0,0,1,38.4,19.476a15.811,15.811,0,0,1,1.789,2.347A31.349,31.349,0,0,0,53.019,8.965ZM52.4,13.912c-3,5.379-8.347,9.676-14.252,12.18a14.312,14.312,0,0,1,1.765,2.442,38.438,38.438,0,0,0,8.811-5.874,51.683,51.683,0,0,1,4.7,4.637l2.071-1.886a58.58,58.58,0,0,0-4.946-4.544A31.058,31.058,0,0,0,55.032,14.9ZM59.573,3.617H56.852V20.744h2.721ZM62.262.523V25.01c0,.556-.216.711-.711.742-.556.031-2.35.031-4.112-.031a11.8,11.8,0,0,1,.927,2.721c2.6.031,4.266-.062,5.317-.495,1.02-.433,1.422-1.237,1.422-2.937V.523ZM90.8,24.144v-11.5h11.16V9.769H90.8V.587H87.705V24.144H76.421V27.05H104.09V24.144ZM123.319,4.266a51.811,51.811,0,0,0-5.441-3.71l-1.793,1.917a47.818,47.818,0,0,1,5.379,3.957ZM121.4,12.242a47.065,47.065,0,0,0-5.255-3.219l-1.669,2.009a56.3,56.3,0,0,1,5.194,3.432Zm-3.277,15.674c1.453-2.813,3.061-6.4,4.3-9.46L120.1,16.723a83.113,83.113,0,0,1-4.606,9.491Zm10.233-9.093a29.271,29.271,0,0,1,6.709,1.762l.9-1.979a27.847,27.847,0,0,0-6.709-1.546Zm-.645-2.964h9V20.4c-3.47.743-6.9,1.42-9.313,1.887a26.623,26.623,0,0,0,.313-4.267Zm11.713-2.226H125.019v4.359c0,2.721-.247,6.461-2.35,9.213a12.872,12.872,0,0,1,2.288,1.546A14.428,14.428,0,0,0,127.4,22.29l.866,2.195c2.38-.5,5.441-1.237,8.44-1.917v3.246c0,.371-.124.5-.526.5-.4.031-1.855.031-3.246-.031a8.763,8.763,0,0,1,.8,2.288,13.818,13.818,0,0,0,4.483-.4c.927-.371,1.206-1.051,1.206-2.35ZM127.8,3.493h8.78V5.286h-5.689v4.2H127.8Zm8.78,6h-3.339V7.141h3.339Zm2.69,0V1.237H125.205V9.491h-3.061v5.441h2.628V11.748H139.7v3.184h2.751V9.491Zm46.156.556h-5.039V7.574h5.039Zm0,4.977h-5.039v-2.6h5.039Zm0,5.008h-5.039v-2.66h5.039Zm-7.821,4.019h2.782V22.475h14.654V20.033H188.18V17.374h5.256V15.023H188.18v-2.6H193.5V10.047H188.18V7.574h6.43V5.132h-5.163A27.5,27.5,0,0,0,187.376.8l-2.69.742a28.363,28.363,0,0,1,1.608,3.586h-5.381A35.633,35.633,0,0,0,182.738.958l-2.6-.773a23.373,23.373,0,0,1-6.152,9.645,22.783,22.783,0,0,1,1.608,2.566,17.075,17.075,0,0,0,2.009-2.164Zm-4.452-18.8c-.4-1.329-1.113-3.4-1.7-5.008l-2.5.773c.464,1.638,1.237,3.8,1.608,5.163Zm.68,8.965-.4.124H171.7c.742-2.164,1.638-4.668,2.288-6.863h-6.647v2.6h3.122c-.8,2.411-1.7,4.915-2.473,6.739h3.988a29.043,29.043,0,0,1-2.04,6,14.134,14.134,0,0,0-3.122,3.215l1.948,2.659c.835-1.886,1.917-3.9,2.6-3.9s1.793,1.082,3.03,1.793c2.257,1.3,4.915,1.638,8.965,1.638,3.617,0,9.274-.185,11.655-.34a11.952,11.952,0,0,1,.866-2.968,114.165,114.165,0,0,1-12.4.711c-3.648,0-6.461-.185-8.594-1.484-1.02-.618-1.669-1.144-2.257-1.453a37.013,37.013,0,0,0,2.535-7.976ZM211.3,1.948V4.854h7.358a34.13,34.13,0,0,0,.4,3.679l-1.577-.278c-1.793,8.378-5.534,14.468-12.18,17.9a22.045,22.045,0,0,1,2.659,2.319c5.719-3.432,9.584-8.842,11.871-16.292a26.228,26.228,0,0,0,11.84,16.23,14.534,14.534,0,0,1,2.319-2.442c-11.78-6.957-12.488-18.427-12.488-24.022Zm55.863,2.1v2.63H249.7V4.05Zm2.875,5.07V1.577H246.824v9c0,4.915-.278,11.748-3.339,16.509a11.617,11.617,0,0,1,2.566,1.484c3.184-5.039,3.648-12.706,3.648-17.992V9.123Zm-1.855,10.326a31.185,31.185,0,0,1-4.081,2.751,11.4,11.4,0,0,1-2.1-2.751Zm-10.7-5.163h5.5v2.751h-5.5Zm10.851,5.163H271.8v-2.41h-6.121V14.283h4.854V11.84h-4.854V9.151h-2.69v2.69h-5.5V9.151H254.86v2.69h-4.3v2.442h4.3v2.751h-5.07v2.411h3.061V23.68a2.919,2.919,0,0,1-1.577,2.566,8.5,8.5,0,0,1,1.144,2.38v-.031c.618-.4,1.608-.68,8.9-2.35a13.619,13.619,0,0,1,.185-2.411l-6,1.268V19.445h3.741a15.767,15.767,0,0,0,11.191,9.089,8.9,8.9,0,0,1,1.731-2.38,16.958,16.958,0,0,1-6.245-2.5,32.642,32.642,0,0,0,4.483-2.782ZM292.3,3.554V5.688h-5.843V3.555Zm-5.843,6.461V7.729H292.3v2.287Zm8.563,2.133V1.391h-11.4V28.534h2.844V12.149Zm5.2-2.07V7.729h6.028v2.35Zm6.028-4.39h-6.028V3.555h6.028ZM293.073,20.96h6.276v2.563h-6.276Zm6.276-4.517v2.411h-6.276V16.447Zm9.8-15.056H297.463v10.82h8.78v12.71c0,.526-.155.68-.711.711-.5,0-1.979.031-3.493-.031V14.283H290.445V27.236h2.628V25.69h8.347a12.867,12.867,0,0,1,.9,2.813c2.6,0,4.3-.031,5.379-.5,1.113-.495,1.453-1.422,1.453-3.061Z" fill="#111"/>
</svg>
