<svg id="Group_485" data-name="Group 485" xmlns="http://www.w3.org/2000/svg" xmlns:xlink="http://www.w3.org/1999/xlink" width="260.915" height="34.651" viewBox="0 0 260.915 34.651">
  <defs>
    <clipPath id="clip-path">
      <rect id="Rectangle_20" data-name="Rectangle 20" width="260.915" height="34.651" fill="#c89c88"/>
    </clipPath>
  </defs>
  <g id="Group_33" data-name="Group 33" clip-path="url(#clip-path)">
    <path id="Path_64" data-name="Path 64" d="M.086,9.69c-.126-.859-.16-1.09.241-1.516a27.356,27.356,0,0,1,2.1-2.026c.48-.415.621-.409,1.032-.063.485.41,1.171,1.009,1.785,1.592.269.255.262.457-.014.761C4.7,9.022,4.106,9.685,4.036,9.766l-.048.056A1.808,1.808,0,0,0,3.6,11.408c.16,1.873,1.46,14.222,1.813,17.306A.253.253,0,0,1,5.158,29H3.349a.268.268,0,0,1-.294-.244C3.035,28.629.225,10.643.086,9.69M24.1,11.408c-.16,1.873-1.46,14.222-1.813,17.306A.253.253,0,0,0,22.54,29h1.809a.268.268,0,0,0,.294-.244c.02-.126,2.831-18.112,2.97-19.065.127-.859.16-1.09-.241-1.516a27.407,27.407,0,0,0-2.1-2.026c-.48-.415-.621-.409-1.032-.063-.485.41-1.171,1.009-1.786,1.592-.269.255-.262.457.014.761.53.583,1.17,1.3,1.24,1.382a1.808,1.808,0,0,1,.391,1.586M18.424,0H9.274a.487.487,0,0,0-.512.657c.046.166.572,1.817.652,2.063a.752.752,0,0,0,.793.575h7.285a.752.752,0,0,0,.793-.575c.08-.247.606-1.9.652-2.063A.487.487,0,0,0,18.424,0m1.253,7.693a17.945,17.945,0,0,0-1.454-1.58c-.348-.338-.445-.388-1.122-.388H10.6c-.676,0-.774.05-1.122.388a17.949,17.949,0,0,0-1.455,1.58c-.371.455-.4.551-.322,1.533.015.193,1.522,19.365,1.536,19.527a.276.276,0,0,0,.3.247h1.69a.262.262,0,0,0,.292-.255c-.034-3.813-.146-16.321-.137-17.526A1.9,1.9,0,0,1,12.023,9.5c.182-.211.814-.836,1.01-1.018a1.106,1.106,0,0,1,1.632,0c.2.182.828.807,1.01,1.018a1.9,1.9,0,0,1,.639,1.719c.008,1.206-.1,13.713-.137,17.526a.262.262,0,0,0,.292.255h1.69a.276.276,0,0,0,.3-.247C18.477,28.591,19.984,9.419,20,9.225c.077-.982.049-1.078-.322-1.533m4.257,23.42H3.765c-.362,0-.582.192-.528.54.171,1.089.259,1.741.4,2.436.09.459.219.563.777.563H23.29c.557,0,.686-.1.777-.563.136-.7.225-1.347.4-2.436.054-.348-.166-.539-.528-.54" transform="translate(0)" fill="#c89c88"/>
    <g id="Group_419" data-name="Group 419" transform="translate(57.385 14.989)">
      <path id="Path_65" data-name="Path 65" d="M1013.856,78.513,994.7,69.947v8.566H990.57v-11.4H995.2l19.153,8.577,0-8.577h4.131v11.4Z" transform="translate(-816.318 -67.103)" fill="#c89c88"/>
      <path id="Path_66" data-name="Path 66" d="M419.5,78.515l-2.691-3.756h-18.1v3.756h-4.454v-11.4h26.566c1.661,0,2.356.619,2.4,2.136.025.886.019,2,0,2.607-.049,1.595-.471,2.151-1.884,2.48l-.142.032.275.4c.542.709,1.492,1.939,2.3,2.983l.591.763Zm-2.217-6.094c1.619,0,1.619,0,1.625-1.021,0-.265,0-.445,0-.694v-.1c0-.212,0-.436,0-.688,0-.449,0-.542-.9-.542H398.707v3.044Z" transform="translate(-353.286 -67.105)" fill="#c89c88"/>
      <path id="Path_67" data-name="Path 67" d="M803.485,78.53l-5.96-8.363-5.959,8.363H787.8l-7.868-11.384h4.4l5.583,8.046,5.707-8.046h3.811l5.707,8.046,5.583-8.046h4.238L807.091,78.53Z" transform="translate(-652.763 -67.127)" fill="#c89c88"/>
      <path id="Path_68" data-name="Path 68" d="M213.293,78.482a3.523,3.523,0,0,1-1.084-.122,1.7,1.7,0,0,1-1.16-1.225,4.61,4.61,0,0,1-.081-.888V69.3a4.618,4.618,0,0,1,.081-.888,1.7,1.7,0,0,1,1.16-1.225,3.527,3.527,0,0,1,1.084-.122h25.235v2.257h-22.3c-.645,0-.727.044-.727.785v5.257c0,.741.082.785.727.785h22.3v2.336Z" transform="translate(-210.968 -67.061)" fill="#c89c88"/>
      <path id="Path_69" data-name="Path 69" d="M595.913,78.482a3.531,3.531,0,0,1-1.085-.122,1.705,1.705,0,0,1-1.159-1.225,4.607,4.607,0,0,1-.081-.888V69.3a4.618,4.618,0,0,1,.081-.889,1.7,1.7,0,0,1,1.16-1.224,3.528,3.528,0,0,1,1.084-.122h24.92a3.535,3.535,0,0,1,1.085.122,1.706,1.706,0,0,1,1.16,1.224,4.625,4.625,0,0,1,.081.889v6.952a4.612,4.612,0,0,1-.081.888,1.706,1.706,0,0,1-1.16,1.225,3.529,3.529,0,0,1-1.084.122Zm2.935-9.164c-.645,0-.727.044-.727.785v5.257c0,.741.082.785.727.785H617.9c.646,0,.728-.044.728-.785V70.1c0-.741-.082-.785-.728-.785Z" transform="translate(-508.067 -67.061)" fill="#c89c88"/>
    </g>
  </g>
</svg>
